<svg width="25" height="20" viewBox="0 0 25 20" fill="none" xmlns="http://www.w3.org/2000/svg">
<path d="M14.9167 2.99967C14.9167 2.69026 14.7894 2.39351 14.5628 2.17472C14.3361 1.95592 14.0288 1.83301 13.7083 1.83301H11.2917C10.9712 1.83301 10.6639 1.95592 10.4372 2.17472C10.2106 2.39351 10.0833 2.69026 10.0833 2.99967V9.99967C10.0833 10.3091 10.2106 10.6058 10.4372 10.8246C10.6639 11.0434 10.9712 11.1663 11.2917 11.1663H13.7083C14.0288 11.1663 14.3361 11.0434 14.5628 10.8246C14.7894 10.6058 14.9167 10.3091 14.9167 9.99967V7.66634C14.9167 7.35692 14.7894 7.06018 14.5628 6.84138C14.3361 6.62259 14.0288 6.49967 13.7083 6.49967H10.0833M1.625 1.83301H4.64583C5.12654 1.83301 5.58756 2.01738 5.92746 2.34557C6.26737 2.67376 6.45833 3.11888 6.45833 3.58301V4.74967C6.45833 5.2138 6.26737 5.65892 5.92746 5.98711C5.58756 6.3153 5.12654 6.49967 4.64583 6.49967M4.64583 6.49967H2.83333M4.64583 6.49967C5.12654 6.49967 5.58756 6.68405 5.92746 7.01224C6.26737 7.34043 6.45833 7.78555 6.45833 8.24967V9.41634C6.45833 9.88047 6.26737 10.3256 5.92746 10.6538C5.58756 10.982 5.12654 11.1663 4.64583 11.1663H1.625M1.625 14.6663C1.625 16.5995 6.49458 18.1663 12.5 18.1663C18.5054 18.1663 23.375 16.5995 23.375 14.6663M18.5417 4.16634V8.83301C18.5417 9.45185 18.7963 10.0453 19.2495 10.4829C19.7027 10.9205 20.3174 11.1663 20.9583 11.1663C21.5993 11.1663 22.214 10.9205 22.6672 10.4829C23.1204 10.0453 23.375 9.45185 23.375 8.83301V4.16634C23.375 3.5475 23.1204 2.95401 22.6672 2.51643C22.214 2.07884 21.5993 1.83301 20.9583 1.83301C20.3174 1.83301 19.7027 2.07884 19.2495 2.51643C18.7963 2.95401 18.5417 3.5475 18.5417 4.16634Z" stroke="#67747C" stroke-width="2" stroke-linecap="round" stroke-linejoin="round"/>
</svg>
