<svg width="214" height="92" viewBox="0 0 214 92" fill="none" xmlns="http://www.w3.org/2000/svg">
<path d="M60.9526 25.3163H57.6512C57.4048 25.3163 57.3063 25.4395 57.3063 25.6613V33.0771C57.3063 33.8408 57.3063 34.4568 57.2323 34.9002C57.1831 35.3437 57.0845 35.7133 56.9367 35.9596C56.7889 36.206 56.5425 36.3785 56.1976 36.4524C55.8527 36.5263 55.4092 36.5756 54.8179 36.5756C54.2266 36.5756 53.4382 36.4031 52.9701 36.0089C52.502 35.6394 52.2803 35.0727 52.2803 34.3089V28.4453C52.2803 28.1989 52.1571 28.0757 51.9353 28.0757H48.6339C48.3876 28.0757 48.289 28.1989 48.289 28.4453V33.8408C48.289 34.4568 48.2644 34.9495 48.1905 35.3191C48.1412 35.6886 48.018 35.935 47.8209 36.1321C47.6485 36.3046 47.4021 36.4278 47.0818 36.5017C46.7615 36.5509 46.3427 36.6002 45.8253 36.6002C44.1007 36.6002 43.2384 35.8611 43.2384 34.3829V28.4699C43.2384 28.2235 43.1152 28.1004 42.8935 28.1004H39.5921C39.3457 28.1004 39.2472 28.2235 39.2472 28.4699V33.8655C39.2472 34.9002 39.1486 35.6147 38.9515 35.9843C38.7544 36.3785 38.2863 36.5756 37.5472 36.5756H17.4925H16.8765C15.9649 36.5756 15.2505 36.3785 14.7331 36.0089C14.2157 35.6394 13.9447 35.0973 13.9447 34.4075V31.0568C13.9447 28.7902 13.3534 27.1641 12.1954 26.1787C11.0129 25.1685 9.43607 24.6758 7.44045 24.6758H1.99562C1.74924 24.6758 1.62606 24.799 1.62606 25.0453V27.9033C1.62606 28.1496 1.74924 28.2728 1.99562 28.2728H6.2825C7.48973 28.2728 8.4013 28.5192 9.01724 29.0119C9.63317 29.5047 9.92882 30.3177 9.92882 31.4018V33.7916C9.92882 34.3089 9.90418 34.7524 9.83027 35.122C9.78099 35.4669 9.63317 35.7625 9.43607 35.9843C9.23897 36.206 8.94333 36.3785 8.54913 36.477C8.15493 36.5756 7.66219 36.6249 7.02162 36.6249H0.369559C0.123186 36.6249 0 36.748 0 36.9944V39.8523C0 40.0987 0.123186 40.2219 0.369559 40.2219H8.37667C9.58389 40.2219 10.594 40.0741 11.3578 39.8031C12.1215 39.532 12.7375 38.99 13.1809 38.1524C13.5751 38.99 14.1418 39.5567 14.8809 39.8277C15.62 40.0987 16.4823 40.2219 17.4678 40.2219H38.7298C39.8138 40.2219 40.6761 40.0741 41.3167 39.7784C41.9326 39.4828 42.4254 38.99 42.7456 38.3002C43.3616 39.5813 44.5195 40.2219 46.2195 40.2219H47.7963C48.8803 40.2219 49.718 40.0741 50.3586 39.8031C50.9991 39.532 51.4672 39.0393 51.8122 38.3495C52.1324 38.9408 52.5759 39.4089 53.1426 39.7538C53.7092 40.0987 54.4483 40.2465 55.2614 40.2465H56.7889C58.4149 40.2465 59.5729 39.9016 60.2381 39.2364C60.9279 38.5466 61.2482 37.3886 61.2482 35.7379V25.7598C61.2482 25.5134 61.125 25.3903 60.9033 25.3903L60.9526 25.3163Z" fill="white"/>
<path d="M100.004 26.4751C99.3385 25.8591 98.5747 25.391 97.6632 25.12C96.7516 24.8244 95.7661 24.7012 94.7313 24.7012C93.6966 24.7012 92.7111 24.849 91.8241 25.12C90.9372 25.391 90.1734 25.8345 89.5082 26.4504C88.843 27.0663 88.3256 27.8547 87.9561 28.8156C87.5865 29.7764 87.3894 30.959 87.3648 32.3387V32.8807C87.3648 33.0532 87.3648 33.2257 87.3894 33.4228C87.3894 34.0387 87.3155 34.5561 87.1677 34.9749C87.0199 35.3937 86.8474 35.714 86.6257 35.985C86.4039 36.2314 86.1822 36.4039 85.9112 36.5271C85.6402 36.6256 85.3938 36.6995 85.1228 36.6995H75.1447H74.5288C73.6172 36.6995 72.9027 36.5024 72.3607 36.1329C71.8187 35.7633 71.5477 35.1966 71.5477 34.4822V25.7852C71.5477 25.5388 71.4245 25.4403 71.2028 25.4403H67.9014C67.655 25.4403 67.5564 25.5635 67.5564 25.8098V38.5966C67.5564 39.4589 67.5564 40.2226 67.5072 40.8632C67.4825 41.5284 67.3593 42.0704 67.1869 42.5385C67.0144 43.0067 66.7188 43.3516 66.3492 43.5979C65.955 43.8443 65.4376 43.9675 64.7478 43.9675H63.9594C63.713 43.9675 63.5898 44.0907 63.5898 44.3371V47.195C63.5898 47.4414 63.713 47.5645 63.9594 47.5645H65.2898C66.4724 47.5645 67.4825 47.3921 68.2956 47.0718C69.1086 46.7515 69.7492 46.2588 70.2419 45.6182C70.7346 44.9776 71.0796 44.1646 71.2767 43.2038C71.4984 42.2429 71.597 41.1096 71.597 39.8038V39.114C71.9911 39.6313 72.5085 39.9516 73.0752 40.0995C73.6665 40.2473 74.3563 40.3212 75.1694 40.3212H85.0243C85.3692 40.3212 85.7141 40.3212 86.1083 40.2473C86.4779 40.198 86.8474 40.0995 87.217 39.9763C87.5865 39.8531 87.9315 39.656 88.2517 39.4096C88.5967 39.1632 88.8677 38.843 89.114 38.4734C89.7546 39.2125 90.5676 39.7545 91.5285 40.0748C92.4893 40.3951 93.5487 40.5676 94.756 40.5676C95.9632 40.5676 96.8501 40.4197 97.7617 40.1487C98.6733 39.8531 99.437 39.4096 100.102 38.7937C100.767 38.1778 101.26 37.3647 101.605 36.4039C101.95 35.443 102.147 34.2358 102.147 32.8315C102.147 31.4271 101.95 30.146 101.58 29.1112C101.211 28.0765 100.694 27.2634 100.028 26.6475L100.004 26.4751ZM97.269 35.8372C96.727 36.5024 95.8646 36.8473 94.7067 36.8473C93.5487 36.8473 92.7357 36.5271 92.1691 35.8618C91.627 35.1966 91.356 34.1126 91.356 32.5851C91.356 31.0576 91.627 30.1214 92.1691 29.3822C92.7111 28.6431 93.5487 28.2736 94.7067 28.2736C96.9733 28.2736 98.082 29.7025 98.082 32.5851C98.082 35.4677 97.811 35.172 97.269 35.8372Z" fill="white"/>
<path d="M2.24068 54.9792C2.24068 54.7821 2.33923 54.6836 2.53633 54.6836H4.45803C4.70441 54.6836 4.85223 54.7821 4.92614 54.9792L10.9623 68.5544H11.0608L16.9738 54.9792C17.0477 54.7821 17.2201 54.6836 17.4419 54.6836H19.3636C19.5607 54.6836 19.6592 54.7821 19.6592 54.9792V74.5412C19.6592 74.7383 19.5607 74.8369 19.3636 74.8369H17.4665C17.2694 74.8369 17.1709 74.7383 17.1709 74.5412V60.5226H17.0723L12.0709 71.6094C11.9724 71.8558 11.7999 71.9543 11.5289 71.9543H10.3463C10.0753 71.9543 9.87823 71.8311 9.77968 71.6094L4.77832 60.5226H4.67977V74.5412C4.67977 74.7383 4.58122 74.8369 4.38412 74.8369H2.48705C2.28995 74.8369 2.19141 74.7383 2.19141 74.5412V54.9792H2.24068Z" fill="white"/>
<path d="M33.4791 74.8368C33.282 74.8368 33.1834 74.7382 33.1834 74.5411V73.2107H33.1588C32.7892 73.802 32.2718 74.2701 31.6313 74.6397C30.9907 74.9846 30.2023 75.1817 29.2661 75.1817C27.7139 75.1817 26.5067 74.689 25.6444 73.7035C24.7821 72.718 24.3633 71.4368 24.3633 69.8108V60.9414C24.3633 60.7443 24.4618 60.6457 24.6589 60.6457H26.556C26.7531 60.6457 26.8516 60.7443 26.8516 60.9414V69.1949C26.8516 70.3528 27.098 71.2644 27.6154 71.8803C28.1328 72.5209 28.9212 72.8165 29.9806 72.8165C31.04 72.8165 31.7298 72.4962 32.2965 71.8803C32.8878 71.2397 33.1588 70.4021 33.1588 69.3427V60.9167C33.1588 60.7196 33.2573 60.6211 33.4544 60.6211H35.3515C35.5486 60.6211 35.6471 60.7196 35.6471 60.9167V74.5165C35.6471 74.7136 35.5486 74.8121 35.3515 74.8121H33.4544L33.4791 74.8368Z" fill="white"/>
<path d="M40.823 74.8375C40.6259 74.8375 40.5273 74.739 40.5273 74.5419V60.9421C40.5273 60.745 40.6259 60.6465 40.823 60.6465H42.7201C42.9172 60.6465 43.0157 60.745 43.0157 60.9421V62.3957H43.0403C43.3606 61.7798 43.8287 61.287 44.4447 60.8928C45.0606 60.4986 45.849 60.3262 46.8098 60.3262C47.7707 60.3262 47.9185 60.4247 48.4359 60.5972C48.9287 60.7943 49.3721 61.0406 49.717 61.3856C49.8649 61.5334 49.8649 61.6566 49.7663 61.8044L48.6823 63.258C48.5591 63.4058 48.4359 63.4305 48.2634 63.3073C47.9185 63.0855 47.5736 62.9131 47.2287 62.8145C46.8838 62.6913 46.4896 62.6421 46.0707 62.6421C44.9867 62.6421 44.1983 63.0116 43.7302 63.7754C43.2621 64.5391 43.0157 65.5493 43.0157 66.7811V74.5419C43.0157 74.739 42.9172 74.8375 42.7201 74.8375H40.823Z" fill="white"/>
<path d="M57.33 75.1563C56.6402 75.1563 55.9996 75.0824 55.4083 74.9592C54.817 74.836 54.275 74.6636 53.7822 74.4665C53.2895 74.2694 52.8707 74.023 52.4765 73.7766C52.0823 73.5302 51.762 73.2839 51.4663 73.0129C51.3185 72.865 51.3185 72.7418 51.4663 72.594L52.6736 71.2882C52.8214 71.1404 52.9446 71.1404 53.0924 71.2882C53.6344 71.7317 54.275 72.1259 55.0387 72.4462C55.8025 72.7665 56.6155 72.9143 57.4778 72.9143C58.3401 72.9143 59.301 72.7172 59.8184 72.2984C60.3357 71.9042 60.5821 71.3868 60.5821 70.7462C60.5821 70.1057 60.4097 69.7607 60.0401 69.4158C59.6705 69.0955 58.9314 68.8738 57.8228 68.7506L56.3199 68.6028C54.9156 68.455 53.8562 68.0361 53.1417 67.3463C52.4272 66.6811 52.0823 65.7449 52.0823 64.5869C52.0823 63.429 52.5504 62.1725 53.462 61.4087C54.3735 60.645 55.6793 60.2754 57.3546 60.2754C59.03 60.2754 59.3503 60.4232 60.2126 60.7189C61.0749 61.0145 61.7894 61.3841 62.3806 61.8522C62.5285 61.9507 62.5531 62.0985 62.4299 62.271L61.4198 63.5522C61.2966 63.7 61.1734 63.7 61.001 63.6014C60.5575 63.3058 59.9908 63.0348 59.301 62.813C58.6111 62.5667 57.9213 62.4681 57.1822 62.4681C56.4431 62.4681 55.63 62.6406 55.1619 63.0101C54.6938 63.3797 54.4721 63.8478 54.4721 64.4145C54.4721 64.9811 54.6692 65.4246 55.0634 65.7449C55.4576 66.0405 56.1967 66.2622 57.2561 66.3608L58.7343 66.5086C60.1879 66.6564 61.2473 67.0506 61.9618 67.7651C62.6763 68.455 63.0212 69.3665 63.0212 70.5245C63.0212 71.6824 62.5285 73.0621 61.543 73.8998C60.5575 74.7375 59.1285 75.1809 57.2807 75.1809L57.33 75.1563Z" fill="white"/>
<path d="M76.1784 74.8376C75.9813 74.8376 75.8828 74.7391 75.8828 74.542V66.2392C75.8828 65.1059 75.6118 64.1943 75.0944 63.5784C74.577 62.9378 73.764 62.6422 72.7046 62.6422C71.6452 62.6422 70.9553 62.9625 70.3394 63.5784C69.7481 64.1943 69.4278 65.0566 69.4278 66.116V74.5666C69.4278 74.7637 69.3293 74.8623 69.1322 74.8623H67.2351C67.038 74.8623 66.9395 74.7637 66.9395 74.5666V55.0046C66.9395 54.8075 67.038 54.709 67.2351 54.709H69.1322C69.3293 54.709 69.4278 54.8075 69.4278 55.0046V62.2726H69.4524C69.7974 61.7306 70.2901 61.2625 70.9553 60.8929C71.6205 60.5234 72.4336 60.3509 73.419 60.3509C74.9712 60.3509 76.1538 60.8437 77.0407 61.8045C77.903 62.7654 78.3465 64.0711 78.3465 65.6972V74.5912C78.3465 74.7883 78.2479 74.8869 78.0509 74.8869H76.1538L76.1784 74.8376Z" fill="white"/>
<path d="M83.2957 57.443C83.0986 57.443 83 57.3444 83 57.1473V54.9792C83 54.7821 83.0986 54.6836 83.2957 54.6836H85.3159C85.513 54.6836 85.6116 54.7821 85.6116 54.9792V57.1473C85.6116 57.3444 85.513 57.443 85.3159 57.443H83.2957ZM83.3696 74.8369C83.1725 74.8369 83.0739 74.7383 83.0739 74.5412V60.9415C83.0739 60.7444 83.1725 60.6458 83.3696 60.6458H85.2666C85.4637 60.6458 85.5623 60.7444 85.5623 60.9415V74.5412C85.5623 74.7383 85.4637 74.8369 85.2666 74.8369H83.3696Z" fill="white"/>
<path d="M99.3118 74.8376C99.1147 74.8376 99.0161 74.7391 99.0161 74.542V73.1869H98.9915C98.6466 73.7536 98.1785 74.2217 97.5133 74.6159C96.8727 74.9854 96.0104 75.1825 94.951 75.1825C93.8916 75.1825 92.6597 74.8869 91.8467 74.3202C91.009 73.7536 90.4177 72.8913 90.0728 71.7826C89.8757 71.2159 89.7525 70.6247 89.6786 70.0087C89.6047 69.3928 89.5801 68.6537 89.5801 67.7667C89.5801 66.8798 89.6047 66.1407 89.6786 65.5247C89.7525 64.9334 89.8757 64.3422 90.0728 63.7509C90.4177 62.6175 91.009 61.7799 91.8467 61.2132C92.6844 60.6466 93.7191 60.3509 94.951 60.3509C96.1829 60.3509 96.8727 60.5234 97.5133 60.8929C98.1538 61.2625 98.6466 61.7306 98.9915 62.2973H99.0161V55.0046C99.0161 54.8075 99.1147 54.709 99.3118 54.709H101.209C101.406 54.709 101.505 54.8075 101.505 55.0046V74.5666C101.505 74.7637 101.406 74.8623 101.209 74.8623H99.3118V74.8376ZM95.5423 72.842C97.1683 72.842 98.2031 72.1275 98.6712 70.6739C98.7944 70.329 98.8683 69.9348 98.9176 69.4667C98.9669 68.9986 98.9915 68.4073 98.9915 67.6928C98.9915 66.9783 98.9669 66.4117 98.9176 65.9436C98.8683 65.5001 98.7944 65.0813 98.6712 64.7363C98.2031 63.3074 97.1437 62.5929 95.5423 62.5929C93.9409 62.5929 92.9307 63.3074 92.438 64.7363C92.3148 65.1305 92.2409 65.574 92.1916 66.0421C92.1424 66.5102 92.1177 67.0769 92.1177 67.6928C92.1177 68.3087 92.1177 68.9 92.1916 69.3928C92.2409 69.8609 92.3148 70.3044 92.438 70.6739C92.9307 72.1275 93.9655 72.842 95.5423 72.842Z" fill="white"/>
<path d="M94.6801 17.4077C94.2859 17.0135 93.7932 16.8164 93.2265 16.8164C92.6598 16.8164 92.1671 17.0135 91.7975 17.4077C91.4034 17.8019 91.2309 18.2946 91.2309 18.8613C91.2309 19.428 91.4033 19.8714 91.7483 20.2163C92.0932 20.5366 92.5859 20.7091 93.2265 20.7091H94.0642C93.9656 20.9062 93.7685 21.1279 93.4729 21.3743C93.1772 21.6207 92.6599 21.7439 91.9207 21.7439H91.1323C90.9599 21.7439 90.8613 21.8424 90.8613 22.0149V22.483C90.8613 22.6554 90.9599 22.754 91.1323 22.754H91.9207C92.4135 22.754 92.857 22.7047 93.2758 22.5815C93.6946 22.4583 94.0395 22.2612 94.3598 22.0149C94.6555 21.7439 94.9018 21.3989 95.0743 20.9555C95.2468 20.512 95.3207 19.97 95.3207 19.3294C95.3207 18.6888 95.1236 17.8265 94.7294 17.4323L94.6801 17.4077ZM94.2613 19.7482H93.3497C93.2511 19.7482 93.128 19.7482 93.0048 19.699C92.8816 19.6743 92.7584 19.6251 92.6352 19.5758C92.512 19.5019 92.4135 19.428 92.3396 19.3048C92.2657 19.1816 92.2164 19.0338 92.2164 18.8613C92.2164 18.6888 92.2903 18.3686 92.4627 18.1468C92.6352 17.9251 92.8816 17.8019 93.2265 17.8019C93.5714 17.8019 93.7685 17.9251 93.9656 18.1715C94.1627 18.4178 94.2366 18.7874 94.2366 19.2801V19.7482H94.2613Z" fill="white"/>
<path d="M46.4399 25.2672H49.4456C49.692 25.2672 49.8152 25.1441 49.8152 24.8977V21.7934C49.8152 21.547 49.692 21.4238 49.4456 21.4238H46.4399C46.1935 21.4238 46.0703 21.547 46.0703 21.7934V24.8977C46.0703 25.1441 46.1935 25.2672 46.4399 25.2672Z" fill="white"/>
<path d="M50.7266 21.7934V24.8977C50.7266 25.1441 50.8497 25.2672 51.0961 25.2672H54.1019C54.3482 25.2672 54.4714 25.1441 54.4714 24.8977V21.7934C54.4714 21.547 54.3482 21.4238 54.1019 21.4238H51.0961C50.8497 21.4238 50.7266 21.547 50.7266 21.7934Z" fill="white"/>
<path d="M48.7309 20.6598H51.7366C51.983 20.6598 52.1062 20.5366 52.1062 20.2903V17.186C52.1062 16.9396 51.983 16.8164 51.7366 16.8164H48.7309C48.4845 16.8164 48.3613 16.9396 48.3613 17.186V20.2903C48.3613 20.5366 48.4845 20.6598 48.7309 20.6598Z" fill="white"/>
<path d="M159.552 51.9983H162.607C162.78 51.9983 162.977 51.9983 163.199 51.9491C163.42 51.9244 163.618 51.8752 163.815 51.8012C164.012 51.7273 164.209 51.6288 164.381 51.481C164.578 51.3578 164.726 51.1853 164.849 50.9636C165.194 51.3824 165.638 51.6781 166.18 51.8505C166.697 52.023 167.289 52.1215 167.954 52.1215C168.619 52.1215 169.112 52.0476 169.604 51.8752C170.097 51.7273 170.541 51.4563 170.886 51.136C171.23 50.8158 171.526 50.3477 171.723 49.8056C171.92 49.2636 172.019 48.5984 172.019 47.8347C172.019 47.0709 171.92 46.3564 171.723 45.7898C171.526 45.2231 171.23 44.7796 170.861 44.4347C170.491 44.0898 170.073 43.8434 169.555 43.6956C169.038 43.5478 168.52 43.4492 167.929 43.4492C167.338 43.4492 166.82 43.5231 166.328 43.671C165.835 43.8188 165.416 44.0651 165.047 44.4101C164.677 44.755 164.406 45.1738 164.184 45.7158C163.987 46.2579 163.864 46.8984 163.864 47.6622V47.9578C163.864 48.0564 163.864 48.1549 163.864 48.2535C163.864 48.5984 163.815 48.8694 163.741 49.1158C163.667 49.3375 163.568 49.5346 163.445 49.6578C163.322 49.8056 163.199 49.9042 163.051 49.9535C162.903 50.0027 162.755 50.052 162.607 50.052H159.479V52.023L159.552 51.9983ZM169.407 49.6085C169.112 49.9781 168.644 50.1752 168.003 50.1752C167.362 50.1752 166.919 50.0027 166.599 49.6332C166.303 49.2636 166.155 48.6723 166.155 47.8347C166.155 46.997 166.303 46.4796 166.599 46.0608C166.894 45.6666 167.362 45.4448 168.003 45.4448C169.26 45.4448 169.875 46.2332 169.875 47.8347C169.875 49.4361 169.728 49.2636 169.432 49.6332L169.407 49.6085Z" fill="white"/>
<path d="M164.06 40.2962C163.74 40.0006 163.37 39.8281 162.902 39.8281C162.434 39.8281 162.065 39.9759 161.744 40.2962C161.449 40.6165 161.276 40.9861 161.276 41.4542C161.276 41.9223 161.424 42.2672 161.695 42.5382C161.966 42.7846 162.36 42.9324 162.853 42.9324H163.518C163.444 43.0802 163.296 43.2773 163.05 43.4744C162.804 43.6715 162.385 43.7701 161.818 43.7701H161.202C161.054 43.7701 160.98 43.844 160.98 43.9918V44.3614C160.98 44.5092 161.054 44.5831 161.202 44.5831H161.818C162.212 44.5831 162.557 44.5338 162.902 44.4353C163.222 44.3367 163.518 44.1889 163.764 43.9672C164.011 43.7454 164.208 43.4744 164.331 43.1295C164.479 42.7846 164.528 42.3411 164.528 41.8237C164.528 41.3064 164.38 40.6165 164.06 40.3209V40.2962ZM163.715 42.1687H162.976C162.902 42.1687 162.804 42.1687 162.705 42.144C162.607 42.144 162.508 42.0948 162.409 42.0455C162.311 41.9962 162.237 41.9223 162.163 41.8237C162.089 41.7252 162.064 41.602 162.064 41.4788C162.064 41.3556 162.138 41.0846 162.262 40.9122C162.409 40.7397 162.607 40.6412 162.878 40.6412C163.149 40.6412 163.321 40.7397 163.469 40.9368C163.617 41.1339 163.691 41.4295 163.691 41.8237V42.1933L163.715 42.1687Z" fill="white"/>
<path d="M188.105 57.9127C185.691 55.7693 182.784 54.562 179.803 54.291C182.71 58.3069 188.253 62.988 192.836 66.5111C192.318 63.3083 190.742 60.2286 188.105 57.9127Z" fill="#A52A2A"/>
<path d="M210.476 39.1881L210.353 39.7794C210.353 39.9026 210.205 39.9765 210.082 39.9518L209.491 39.8287C209.367 39.8287 209.244 39.8779 209.22 40.0011L209.096 40.5924C209.096 40.7156 208.949 40.7895 208.825 40.7649L208.234 40.6417C208.111 40.6417 207.988 40.691 207.963 40.8141L207.84 41.4054C207.84 41.5286 207.889 41.6518 208.012 41.6764L208.604 41.7996C208.727 41.7996 208.801 41.9475 208.776 42.0706L208.653 42.6619C208.653 42.7851 208.702 42.9083 208.825 42.9329L209.417 43.0561C209.54 43.0561 209.614 43.204 209.589 43.3271L209.466 43.9184C209.466 44.0416 209.515 44.1648 209.638 44.1894L210.23 44.3126C210.353 44.3126 210.476 44.2634 210.501 44.1402L210.624 43.5489C210.624 43.4257 210.772 43.3518 210.895 43.3764L211.486 43.4996C211.609 43.4996 211.733 43.4503 211.757 43.3271L211.88 42.7359C211.88 42.6127 212.028 42.5388 212.151 42.5634L212.743 42.6866C212.866 42.6866 212.989 42.6373 213.014 42.5141L213.137 41.9228C213.137 41.7996 213.088 41.6764 212.964 41.6518L212.373 41.5286C212.25 41.5286 212.176 41.3808 212.201 41.2576L212.324 40.6663C212.324 40.5431 212.275 40.42 212.151 40.3953L211.56 40.2721C211.437 40.2721 211.363 40.1243 211.388 40.0011L211.511 39.4098C211.511 39.2866 211.462 39.1634 211.338 39.1388L210.747 39.0156C210.624 39.0156 210.501 39.0649 210.476 39.1881Z" fill="#A52A2A"/>
<path d="M211.388 46.6035C211.659 55.0787 209.983 65.0075 203.43 70.9451C204.218 70.1814 204.933 69.3683 205.573 68.4814C208.751 64.0467 210.008 58.5279 210.377 53.157C210.525 51.0136 210.525 48.8209 210.328 46.7021L211.412 46.6035H211.388Z" fill="#A52A2A"/>
<path d="M192.809 66.5103C192.291 63.3075 190.715 60.2278 188.078 57.9119C185.664 55.7685 182.757 54.5613 179.776 54.2903C175.292 53.8714 170.685 55.5221 167.482 59.1192C166.792 59.8829 166.176 60.967 165.609 62.2481C163.589 66.7814 162.308 73.9015 161.519 79.642C160.83 84.8405 160.559 88.881 160.559 88.881C160.559 88.881 183.939 84.5202 189.286 78.5087C192.316 75.1087 193.449 70.6987 192.784 66.5103H192.809ZM184.925 74.5667C181.771 78.1391 176.302 78.4594 172.729 75.2812C169.157 72.103 168.837 66.6582 172.015 63.0858C175.193 59.5134 180.638 59.1931 184.21 62.3713C187.783 65.5495 188.103 70.9943 184.925 74.5667Z" fill="#D4A373"/>
<path d="M194.041 81.2682L193.475 81.4653C193.352 81.5146 193.228 81.4653 193.204 81.3175L193.007 80.7508C192.957 80.6276 192.834 80.5784 192.736 80.603L192.169 80.8001C192.046 80.8494 191.923 80.8001 191.898 80.6523L191.701 80.0856C191.652 79.9624 191.529 79.9132 191.43 79.9378L190.863 80.1349C190.74 80.1842 190.691 80.3074 190.715 80.4059L190.913 80.9726C190.962 81.0957 190.913 81.2189 190.765 81.2436L190.198 81.4407C190.075 81.4899 190.026 81.6131 190.05 81.7117L190.247 82.2783C190.297 82.4015 190.247 82.5247 190.1 82.5494L189.533 82.7464C189.41 82.7957 189.36 82.9189 189.385 83.0175L189.582 83.5841C189.631 83.7073 189.755 83.7566 189.853 83.7319L190.42 83.5348C190.543 83.4856 190.666 83.5348 190.691 83.6827L190.888 84.2493C190.937 84.3725 191.06 84.4218 191.159 84.3971L191.726 84.2C191.849 84.1508 191.972 84.2 191.997 84.3479L192.194 84.9145C192.243 85.0377 192.366 85.087 192.465 85.0623L193.031 84.8653C193.155 84.816 193.204 84.6928 193.179 84.5942L192.982 84.0276C192.933 83.9044 192.982 83.7812 193.13 83.7566L193.697 83.5595C193.82 83.5102 193.869 83.387 193.844 83.2885L193.647 82.7218C193.598 82.5986 193.647 82.4754 193.795 82.4508L194.362 82.2537C194.485 82.2044 194.534 82.0812 194.51 81.9827L194.313 81.416C194.263 81.2928 194.14 81.2436 194.041 81.2682Z" fill="#D4A373"/>
<path d="M188.079 85.7776C180.885 90.2615 171.424 93.76 162.998 91.0499C164.057 91.3456 165.117 91.5427 166.201 91.6659C171.646 92.1833 177.041 90.5326 181.87 88.1674C183.792 87.2065 185.714 86.1225 187.438 84.8906L188.054 85.7776H188.079Z" fill="#D4A373"/>
<path d="M126.042 62.9125C126.042 62.9125 141.514 80.9962 149.398 82.5977C157.282 84.2237 165.018 79.1485 166.62 71.2399C168.246 63.3313 163.171 55.6199 155.262 54.0185C147.353 52.3924 126.018 62.9125 126.018 62.9125H126.042ZM154.104 59.9068C158.785 60.8676 161.791 65.4255 160.83 70.1066C159.869 74.7877 155.311 77.7934 150.63 76.8326C145.949 75.8717 142.943 71.3138 143.904 66.6327C144.865 61.9516 149.448 58.9459 154.104 59.9068Z" fill="#00AEEF"/>
<path d="M149.374 88.0663L148.93 87.6721C148.832 87.5981 148.832 87.4503 148.93 87.3518L149.325 86.9083C149.399 86.8098 149.399 86.6866 149.325 86.588L148.881 86.1938C148.783 86.1199 148.783 85.9721 148.881 85.8735L149.275 85.4301C149.349 85.3315 149.349 85.2083 149.275 85.1098L148.832 84.7156C148.733 84.6417 148.61 84.6417 148.512 84.7156L148.117 85.1591C148.043 85.2576 147.896 85.2576 147.797 85.1591L147.354 84.7649C147.255 84.691 147.132 84.691 147.033 84.7649L146.639 85.2083C146.565 85.3069 146.417 85.3069 146.319 85.2083L145.875 84.8141C145.777 84.7402 145.654 84.7402 145.555 84.8141L145.161 85.2576C145.087 85.3562 145.087 85.4793 145.161 85.5779L145.604 85.9721C145.703 86.046 145.703 86.1938 145.604 86.2924L145.21 86.7358C145.136 86.8344 145.136 86.9576 145.21 87.0561L145.654 87.4503C145.752 87.5242 145.752 87.6721 145.654 87.7706L145.259 88.2141C145.186 88.3126 145.186 88.4358 145.259 88.5344L145.703 88.9286C145.801 89.0025 145.925 89.0025 146.023 88.9286L146.417 88.4851C146.491 88.3865 146.639 88.3865 146.738 88.4851L147.181 88.8793C147.28 88.9532 147.403 88.9532 147.501 88.8793L147.896 88.4358C147.97 88.3373 148.117 88.3373 148.216 88.4358L148.659 88.83C148.758 88.9039 148.881 88.9039 148.98 88.83L149.374 88.3865C149.448 88.288 149.448 88.1648 149.374 88.0663Z" fill="#00AEEF"/>
<path d="M142.501 85.1591C135.011 81.1678 127.25 74.7375 125.402 66.0898C125.673 67.1492 126.018 68.184 126.462 69.1695C128.728 74.1462 132.867 77.9896 137.327 80.9954C139.125 82.2026 141.022 83.2866 142.944 84.1736L142.501 85.1591Z" fill="#00AEEF"/>
<path d="M131.267 19.9961C131.267 19.9961 123.359 42.4406 125.897 50.0782C128.434 57.7157 136.688 61.8548 144.35 59.3172C152.012 56.7795 156.126 48.526 153.589 40.8638C151.051 33.2017 131.267 19.9961 131.267 19.9961ZM147.898 42.7856C149.4 47.3188 146.961 52.197 142.428 53.6999C137.895 55.2027 133.017 52.7636 131.514 48.2304C130.011 43.6971 132.45 38.819 136.983 37.3161C141.517 35.8132 146.395 38.2523 147.898 42.7856Z" fill="#6B8E23"/>
<path d="M121.141 52.7886L121.264 52.1973C121.264 52.0741 121.412 52.0002 121.535 52.0249L122.127 52.148C122.25 52.148 122.373 52.0988 122.398 51.9756L122.521 51.3843C122.521 51.2611 122.669 51.1872 122.792 51.2118L123.383 51.335C123.506 51.335 123.63 51.2857 123.654 51.1626L123.777 50.5713C123.777 50.4481 123.728 50.3249 123.605 50.3002L123.014 50.1771C122.891 50.1771 122.817 50.0292 122.841 49.9061L122.964 49.3148C122.964 49.1916 122.915 49.0684 122.792 49.0437L122.201 48.9206C122.078 48.9206 122.004 48.7727 122.028 48.6496L122.151 48.0583C122.151 47.9351 122.102 47.8119 121.979 47.7872L121.388 47.6641C121.264 47.6641 121.141 47.7133 121.117 47.8365L120.993 48.4278C120.993 48.551 120.846 48.6249 120.722 48.6003L120.131 48.4771C120.008 48.4771 119.885 48.5264 119.86 48.6496L119.737 49.2408C119.737 49.364 119.589 49.4379 119.466 49.4133L118.875 49.2901C118.751 49.2901 118.628 49.3394 118.604 49.4626L118.48 50.0539C118.48 50.1771 118.53 50.3002 118.653 50.3249L119.244 50.4481C119.367 50.4481 119.441 50.5959 119.417 50.7191L119.294 51.3104C119.294 51.4336 119.343 51.5567 119.466 51.5814L120.057 51.7046C120.18 51.7046 120.254 51.8524 120.23 51.9756L120.107 52.5669C120.107 52.6901 120.156 52.8132 120.279 52.8379L120.87 52.9611C120.993 52.9611 121.117 52.9118 121.141 52.7886Z" fill="#6B8E23"/>
<path d="M120.229 45.3729C119.958 36.8976 121.633 26.9688 128.186 21.0312C127.398 21.795 126.684 22.608 126.043 23.495C122.865 27.9297 121.608 33.4484 121.239 38.8193C121.091 40.9628 121.091 43.1555 121.288 45.2743L120.204 45.3729H120.229Z" fill="#6B8E23"/>
<path d="M171.054 3.09375C171.054 3.09375 147.674 7.45455 142.327 13.466C136.981 19.4775 137.523 28.7165 143.534 34.0628C149.571 39.4091 158.785 38.867 164.131 32.8556C169.478 26.8194 171.054 3.09375 171.054 3.09375ZM159.623 28.889C156.444 32.4614 151 32.7816 147.427 29.6034C143.855 26.4252 143.534 20.9804 146.713 17.408C149.891 13.8356 155.336 13.5153 158.908 16.6935C162.481 19.8717 162.801 25.3166 159.623 28.889Z" fill="white"/>
<path d="M137.574 10.7065L138.141 10.5094C138.264 10.4602 138.387 10.5094 138.412 10.6573L138.609 11.2239C138.658 11.3471 138.781 11.3964 138.88 11.3718L139.446 11.1747C139.569 11.1254 139.693 11.1747 139.717 11.3225L139.914 11.8891C139.964 12.0123 140.087 12.0616 140.185 12.037L140.752 11.8399C140.875 11.7906 140.925 11.6674 140.9 11.5689L140.703 11.0022C140.654 10.879 140.703 10.7558 140.851 10.7312L141.417 10.5341C141.54 10.4848 141.59 10.3616 141.565 10.2631L141.368 9.69642C141.319 9.57323 141.368 9.45005 141.516 9.42541L142.082 9.22831C142.206 9.17904 142.255 9.05585 142.23 8.9573L142.033 8.39064C141.984 8.26746 141.861 8.21818 141.762 8.24282L141.196 8.43992C141.072 8.48919 140.949 8.43992 140.925 8.2921L140.727 7.72544C140.678 7.60225 140.555 7.55298 140.456 7.57762L139.89 7.77471C139.767 7.82399 139.643 7.77471 139.619 7.62689L139.422 7.06023C139.372 6.93705 139.249 6.88777 139.151 6.91241L138.584 7.10951C138.461 7.15878 138.412 7.28197 138.436 7.38052L138.633 7.94717C138.683 8.07036 138.633 8.19355 138.485 8.21818L137.919 8.41528C137.796 8.46456 137.746 8.58774 137.771 8.68629L137.968 9.25295C138.017 9.37614 137.968 9.49932 137.82 9.52396L137.254 9.72106C137.13 9.77033 137.081 9.89352 137.106 9.99207L137.303 10.5587C137.352 10.6819 137.475 10.7312 137.574 10.7065Z" fill="white"/>
<path d="M143.561 6.22315C150.755 1.73917 160.215 -1.75932 168.641 0.950775C167.582 0.655128 166.522 0.45803 165.438 0.334843C159.994 -0.182539 154.598 1.46816 149.769 3.83333C147.847 4.79419 145.926 5.87823 144.201 7.11009L143.585 6.22315H143.561Z" fill="white"/>
<path d="M182.214 9.3773C177.755 8.46572 173.37 9.67294 170.093 12.3338C167.555 14.3787 165.707 17.2859 164.993 20.7351C164.352 23.8886 164.771 27.0176 166.003 29.7277C167.876 33.8175 171.596 36.9957 176.326 37.9565C177.336 38.1783 178.593 38.1783 179.972 38.0304C181.697 35.5913 184.21 33.6696 187.265 32.6595C190.591 31.5508 194.04 31.7233 197.071 32.8812C201.924 30.8856 205.571 29.0871 205.571 29.0871C205.571 29.0871 190.098 11.0034 182.214 9.40193V9.3773ZM187.733 25.3669C186.772 30.048 182.19 33.0537 177.533 32.0928C172.852 31.132 169.847 26.5495 170.807 21.893C171.768 17.2119 176.326 14.2062 181.007 15.1671C185.688 16.1279 188.694 20.6858 187.733 25.3669Z" fill="#FF8C00"/>
<path d="M205.719 41.8986C204.29 37.587 201.013 34.3842 197.071 32.8813C194.041 31.7234 190.592 31.5509 187.266 32.6596C184.211 33.6697 181.722 35.6161 179.973 38.0305C177.362 41.7015 176.475 46.5057 178.002 51.0883C178.322 52.0737 178.938 53.1578 179.751 54.2911C182.733 54.5621 185.64 55.7693 188.054 57.9128C190.666 60.2533 192.267 63.3083 192.785 66.5112C196.924 69.714 200.324 71.9806 200.324 71.9806C200.324 71.9806 208.232 49.5361 205.694 41.8986H205.719ZM194.632 54.6607C190.099 56.1635 185.221 53.7244 183.693 49.1912C182.19 44.6579 184.63 39.7797 189.163 38.2522C193.696 36.7494 198.574 39.1885 200.102 43.7217C201.605 48.255 199.166 53.1331 194.632 54.6607Z" fill="#A52A2A"/>
<path d="M182.241 3.90797L182.684 4.30217C182.783 4.37608 182.783 4.5239 182.684 4.62245L182.29 5.06592C182.216 5.16447 182.216 5.28766 182.29 5.38621L182.734 5.7804C182.832 5.85432 182.832 6.00214 182.734 6.10069L182.34 6.54416C182.266 6.64271 182.266 6.76589 182.34 6.86444L182.783 7.25864C182.882 7.33255 183.005 7.33255 183.103 7.25864L183.497 6.81517C183.571 6.71662 183.719 6.71662 183.818 6.81517L184.261 7.20936C184.36 7.28328 184.483 7.28328 184.582 7.20936L184.976 6.76589C185.05 6.66734 185.197 6.66734 185.296 6.76589L185.739 7.16009C185.838 7.234 185.961 7.234 186.06 7.16009L186.454 6.71662C186.528 6.61807 186.528 6.49488 186.454 6.39633L186.01 6.00214C185.912 5.92823 185.912 5.7804 186.01 5.68185L186.405 5.23838C186.479 5.13984 186.479 5.01665 186.405 4.9181L185.961 4.5239C185.863 4.44999 185.863 4.30217 185.961 4.20362L186.355 3.76015C186.429 3.6616 186.429 3.53841 186.355 3.43986L185.912 3.04567C185.813 2.97176 185.69 2.97176 185.592 3.04567L185.197 3.48914C185.124 3.58769 184.976 3.58769 184.877 3.48914L184.434 3.09494C184.335 3.02103 184.212 3.02103 184.113 3.09494L183.719 3.53841C183.645 3.63696 183.497 3.63696 183.399 3.53841L182.955 3.14422C182.857 3.07031 182.734 3.07031 182.635 3.14422L182.241 3.58769C182.167 3.68624 182.167 3.80942 182.241 3.90797Z" fill="#FF8C00"/>
<path d="M189.139 6.81445C196.629 10.8057 204.389 17.236 206.237 25.8837C205.966 24.8243 205.621 23.7895 205.178 22.804C202.911 17.8273 198.772 13.9839 194.313 10.9781C192.514 9.77092 190.617 8.68688 188.695 7.79994L189.139 6.81445Z" fill="#FF8C00"/>
</svg>
