<svg width="248" height="64" viewBox="0 0 248 64" fill="none" xmlns="http://www.w3.org/2000/svg">
<path d="M0.900391 44.5783C0.900391 41.5471 3.35764 39.0898 6.38882 39.0898C9.42 39.0898 11.8772 41.5471 11.8772 44.5783V72.9231H0.900391V44.5783Z" fill="white" fill-opacity="0.3"/>
<path d="M17.3652 39.7443C17.3652 36.7131 19.8225 34.2559 22.8537 34.2559C25.8848 34.2559 28.3421 36.7131 28.3421 39.7443V72.9225H17.3652V39.7443Z" fill="white"/>
<path d="M74.0801 20.4113C74.0801 17.3801 76.5373 14.9229 79.5685 14.9229C82.5997 14.9229 85.0569 17.3801 85.0569 20.4113V72.9228H74.0801V20.4113Z" fill="white" fill-opacity="0.3"/>
<path d="M90.543 15.5783C90.543 12.5471 93.0002 10.0898 96.0314 10.0898C99.0626 10.0898 101.52 12.5471 101.52 15.5783V72.9231H90.543V15.5783Z" fill="white"/>
<path d="M147.26 10.7443C147.26 7.71312 149.717 5.25586 152.748 5.25586C155.779 5.25586 158.237 7.71311 158.237 10.7443V72.9224H147.26V10.7443Z" fill="white" fill-opacity="0.3"/>
<path d="M163.723 5.91126C163.723 2.88009 166.18 0.422852 169.211 0.422852C172.242 0.422852 174.699 2.8801 174.699 5.91127V72.9228H163.723V5.91126Z" fill="white"/>
<path d="M220.438 34.9113C220.438 31.8801 222.895 29.4229 225.926 29.4229C228.957 29.4229 231.414 31.8801 231.414 34.9113V72.9228H220.438V34.9113Z" fill="white" fill-opacity="0.3"/>
<path d="M236.902 30.0783C236.902 27.0471 239.36 24.5898 242.391 24.5898C245.422 24.5898 247.879 27.0471 247.879 30.0783V72.9231H236.902V30.0783Z" fill="white"/>
</svg>
