<svg width="390" height="102" viewBox="0 0 390 102" fill="none" xmlns="http://www.w3.org/2000/svg">
<path d="M0.599609 70.9467C0.599609 66.1793 4.46441 62.3145 9.2319 62.3145C13.9994 62.3145 17.8642 66.1793 17.8642 70.9467V116.214H0.599609V70.9467Z" fill="white" fill-opacity="0.3"/>
<path d="M26.4941 63.2475C26.4941 58.48 30.3589 54.6152 35.1264 54.6152C39.8939 54.6152 43.7587 58.48 43.7587 63.2475V116.215H26.4941V63.2475Z" fill="white"/>
<path d="M115.697 32.4467C115.697 27.6793 119.562 23.8145 124.33 23.8145C129.097 23.8145 132.962 27.6793 132.962 32.4467V116.214H115.697V32.4467Z" fill="white" fill-opacity="0.3"/>
<path d="M141.592 24.7475C141.592 19.98 145.457 16.1152 150.224 16.1152C154.992 16.1152 158.856 19.98 158.856 24.7475V116.215H141.592V24.7475Z" fill="white"/>
<path d="M230.795 17.0464C230.795 12.2789 234.66 8.41406 239.427 8.41406C244.195 8.41406 248.06 12.2789 248.06 17.0464V116.214H230.795V17.0464Z" fill="white" fill-opacity="0.3"/>
<path d="M256.689 9.34712C256.689 4.57965 260.554 0.714844 265.322 0.714844C270.089 0.714844 273.954 4.57964 273.954 9.34712V116.215H256.689V9.34712Z" fill="white"/>
<path d="M345.893 55.5463C345.893 50.7789 349.757 46.9141 354.525 46.9141C359.292 46.9141 363.157 50.7789 363.157 55.5463V116.214H345.893V55.5463Z" fill="white" fill-opacity="0.3"/>
<path d="M371.787 47.8471C371.787 43.0796 375.652 39.2148 380.419 39.2148C385.187 39.2148 389.052 43.0797 389.052 47.8471V116.215H371.787V47.8471Z" fill="white"/>
</svg>
