<svg width="319" height="42" viewBox="0 0 319 42" fill="none" xmlns="http://www.w3.org/2000/svg">
<path d="M0.228516 26.1718C0.228516 24.0889 1.91704 22.4004 3.99995 22.4004C6.08285 22.4004 7.77138 24.0889 7.77138 26.1718V42.0004H0.228516V26.1718Z" fill="white" fill-opacity="0.3"/>
<path d="M11.543 23.371C11.543 21.2881 13.2315 19.5996 15.3144 19.5996C17.3973 19.5996 19.0858 21.2881 19.0858 23.371V41.9996H11.543V23.371Z" fill="white"/>
<path d="M50.5137 12.1718C50.5137 10.0889 52.2022 8.40039 54.2851 8.40039C56.368 8.40039 58.0565 10.0889 58.0565 12.1718V42.0004H50.5137V12.1718Z" fill="white" fill-opacity="0.3"/>
<path d="M61.8281 9.37103C61.8281 7.28813 63.5166 5.59961 65.5995 5.59961C67.6824 5.59961 69.371 7.28813 69.371 9.37103V41.9996H61.8281V9.37103Z" fill="white"/>
<path d="M100.801 6.57125C100.801 4.48834 102.489 2.7998 104.572 2.7998C106.655 2.7998 108.344 4.48834 108.344 6.57124V41.9998H100.801V6.57125Z" fill="white" fill-opacity="0.3"/>
<path d="M112.113 3.77144C112.113 1.68853 113.802 0 115.885 0C117.968 0 119.656 1.68853 119.656 3.77144V42H112.113V3.77144Z" fill="white"/>
<path d="M151.086 20.5712C151.086 18.4883 152.774 16.7998 154.857 16.7998C156.94 16.7998 158.629 18.4883 158.629 20.5712V41.9998H151.086V20.5712Z" fill="white" fill-opacity="0.3"/>
<path d="M162.4 17.7714C162.4 15.6885 164.089 14 166.172 14C168.255 14 169.943 15.6885 169.943 17.7714V42H162.4V17.7714Z" fill="white"/>
<path d="M201.371 24.7714C201.371 22.6885 203.06 21 205.143 21C207.225 21 208.914 22.6885 208.914 24.7714V42H201.371V24.7714Z" fill="white" fill-opacity="0.3"/>
<path d="M212.686 21.9716C212.686 19.8887 214.374 18.2002 216.457 18.2002C218.54 18.2002 220.228 19.8887 220.228 21.9716V42.0002H212.686V21.9716Z" fill="white"/>
<path d="M250.4 14.9716C250.4 12.8887 252.089 11.2002 254.172 11.2002C256.255 11.2002 257.943 12.8887 257.943 14.9716V42.0002H250.4V14.9716Z" fill="white" fill-opacity="0.3"/>
<path d="M261.715 12.1718C261.715 10.0889 263.403 8.40039 265.486 8.40039C267.569 8.40039 269.258 10.0889 269.258 12.1718V42.0004H261.715V12.1718Z" fill="white"/>
<path d="M299.428 19.1718C299.428 17.0889 301.116 15.4004 303.199 15.4004C305.282 15.4004 306.971 17.0889 306.971 19.1718V42.0004H299.428V19.1718Z" fill="white" fill-opacity="0.3"/>
<path d="M310.742 16.371C310.742 14.2881 312.431 12.5996 314.514 12.5996C316.596 12.5996 318.285 14.2881 318.285 16.371V41.9996H310.742V16.371Z" fill="white"/>
</svg>
