<svg width="160" height="102" viewBox="0 0 160 102" fill="none" xmlns="http://www.w3.org/2000/svg">
<path d="M0 65.8678C0 63.9059 1.59045 62.3154 3.55238 62.3154C5.51431 62.3154 7.10476 63.9059 7.10476 65.8678V116.215H0V65.8678Z" fill="white" fill-opacity="0.3"/>
<path d="M10.6562 58.1686C10.6562 56.2067 12.2467 54.6162 14.2086 54.6162C16.1706 54.6162 17.761 56.2067 17.761 58.1686V116.216H10.6562V58.1686Z" fill="white"/>
<path d="M47.3652 27.3678C47.3652 25.4059 48.9557 23.8154 50.9176 23.8154C52.8795 23.8154 54.47 25.4059 54.47 27.3678V116.215H47.3652V27.3678Z" fill="white" fill-opacity="0.3"/>
<path d="M58.0215 19.6676C58.0215 17.7057 59.6119 16.1152 61.5739 16.1152C63.5358 16.1152 65.1262 17.7057 65.1262 19.6676V116.215H58.0215V19.6676Z" fill="white"/>
<path d="M94.7305 11.9684C94.7305 10.0065 96.3209 8.41602 98.2829 8.41602C100.245 8.41602 101.835 10.0065 101.835 11.9684V116.216H94.7305V11.9684Z" fill="white" fill-opacity="0.3"/>
<path d="M105.387 4.2682C105.387 2.30628 106.977 0.71582 108.939 0.71582C110.901 0.71582 112.491 2.30627 112.491 4.2682V116.216H105.387V4.2682Z" fill="white"/>
<path d="M142.096 50.4684C142.096 48.5065 143.686 46.916 145.648 46.916C147.61 46.916 149.2 48.5065 149.2 50.4684V116.216H142.096V50.4684Z" fill="white" fill-opacity="0.3"/>
<path d="M152.752 42.7682C152.752 40.8063 154.342 39.2158 156.304 39.2158C158.266 39.2158 159.857 40.8063 159.857 42.7682V116.216H152.752V42.7682Z" fill="white"/>
</svg>
