<svg width="28" height="28" viewBox="0 0 28 28" fill="none" xmlns="http://www.w3.org/2000/svg">
<path opacity="0.5" d="M20.25 10.2529C22.9687 10.2679 24.4413 10.3892 25.4013 11.3492C26.5 12.4479 26.5 14.2154 26.5 17.7504V19.0004C26.5 22.5367 26.5 24.3042 25.4013 25.4029C24.3038 26.5004 22.535 26.5004 19 26.5004H9C5.465 26.5004 3.69625 26.5004 2.59875 25.4029C1.5 24.3029 1.5 22.5367 1.5 19.0004V17.7504C1.5 14.2154 1.5 12.4479 2.59875 11.3492C3.55875 10.3892 5.03125 10.2679 7.75 10.2529" stroke="white" stroke-width="1.5" stroke-linecap="round"/>
<path d="M14 1.5V17.75M14 17.75L10.25 13.375M14 17.75L17.75 13.375" stroke="white" stroke-width="1.5" stroke-linecap="round" stroke-linejoin="round"/>
</svg>
