<svg xmlns="http://www.w3.org/2000/svg" width="30" height="30" viewBox="0 0 30 30" fill="none">
<path d="M29.6387 0.995549C29.3125 0.663674 28.87 0.453674 28.4387 0.314924C27.9302 0.163304 27.4063 0.0689694 26.8768 0.0336739C25.7143 -0.0582011 24.2631 0.0336739 22.6544 0.361799C19.435 1.0218 15.4956 2.65305 11.8412 5.81242C8.18685 8.9718 5.90123 12.7949 4.79498 15.9805C4.24373 17.5687 3.96998 19.0443 3.9906 20.233C3.99998 20.8255 4.08435 21.3955 4.27935 21.883C4.3106 21.9593 4.3456 22.0355 4.38435 22.1118C2.90947 24.197 1.49759 26.3261 0.150601 28.4962C0.014963 28.7154 -0.0301561 28.9788 0.0247714 29.2307C0.0796988 29.4826 0.230373 29.7033 0.444976 29.8462C0.550927 29.9151 0.669622 29.962 0.794037 29.9842C0.918453 30.0065 1.04606 30.0035 1.16931 29.9755C1.29256 29.9475 1.40895 29.8951 1.51158 29.8214C1.61422 29.7476 1.70102 29.6541 1.76685 29.5462C3.05674 27.4703 4.40605 25.432 5.8131 23.4337C6.34748 23.698 6.9681 23.7993 7.60935 23.7749C8.57123 23.7374 9.6681 23.4224 10.84 22.8562C13.1837 21.7218 15.985 19.5055 18.9081 16.0274L21.7544 13.1212C21.9347 12.9357 22.0357 12.6871 22.0357 12.4284C22.0357 12.1696 21.9347 11.9211 21.7544 11.7355L20.3875 10.3405L22.8456 10.7324C22.9965 10.7568 23.1511 10.7439 23.2958 10.6949C23.4406 10.6459 23.5712 10.5622 23.6762 10.4512L24.9193 9.16867C26.1625 7.89367 27.3419 6.6843 28.225 5.62117C28.8137 4.91242 29.3218 4.21117 29.6387 3.54555C29.9443 2.89867 30.16 2.09617 29.8487 1.31805C29.8018 1.19718 29.7303 1.08737 29.6387 0.995549ZM6.99998 21.7874C10.0975 17.5762 13.5756 13.528 17.455 10.1137L19.7237 12.4274L17.5281 14.6699L17.4775 14.7262C14.665 18.0805 12.0568 20.1018 10.0206 21.088C9.0006 21.5812 8.16435 21.7968 7.5381 21.8193C7.35803 21.828 7.17755 21.8185 6.99998 21.7874ZM19.6919 8.24992C22.1481 6.32242 24.7543 4.66117 27.5143 3.37492C27.2799 3.71338 27.0296 4.04062 26.7643 4.35555C25.9356 5.35492 24.8369 6.4818 23.6125 7.73805L22.6562 8.72055L19.6919 8.24992ZM25.9656 1.95555C17.9893 5.90055 11.335 12.7499 5.90498 20.0212C5.9181 19.1512 6.13185 17.9849 6.59873 16.6349C7.5981 13.7568 9.69247 10.2318 13.0768 7.30492C16.465 4.37805 20.1006 2.87992 23.0331 2.27992C23.9976 2.07569 24.9798 1.96704 25.9656 1.95555Z" fill="#979797"/>
</svg>