<svg width="30" height="26" viewBox="0 0 30 26" fill="none" xmlns="http://www.w3.org/2000/svg">
<path d="M26.548 14.5C26.2249 14.4998 25.9042 14.5563 25.5998 14.6671V14.5C25.5998 9.4407 21.9175 6.93648 19.2283 5.10797C17.5596 3.97211 16.1185 2.99609 16.1185 1.90625C16.1185 1.64932 16.0186 1.40292 15.8408 1.22124C15.6629 1.03956 15.4218 0.9375 15.1703 0.9375C14.9189 0.9375 14.6777 1.03956 14.4999 1.22124C14.3221 1.40292 14.2222 1.64932 14.2222 1.90625C14.2222 2.99609 12.781 3.97211 11.1123 5.10797C8.42313 6.93648 4.7408 9.4407 4.7408 14.5V14.6671C4.31184 14.5122 3.85276 14.4646 3.40209 14.5284C2.95143 14.5923 2.52232 14.7656 2.15079 15.0339C1.77926 15.3023 1.47616 15.6578 1.26691 16.0705C1.05766 16.4833 0.948383 16.9414 0.948242 17.4062V24.1875C0.948242 24.4444 1.04814 24.6908 1.22595 24.8725C1.40376 25.0542 1.64492 25.1562 1.89638 25.1562H9.48149C9.73295 25.1562 9.97411 25.0542 10.1519 24.8725C10.3297 24.6908 10.4296 24.4444 10.4296 24.1875V20.3125C10.4296 20.0556 10.5295 19.8092 10.7073 19.6275C10.8851 19.4458 11.1263 19.3438 11.3778 19.3438C11.6292 19.3438 11.8704 19.4458 12.0482 19.6275C12.226 19.8092 12.3259 20.0556 12.3259 20.3125V24.1875C12.3259 24.4444 12.4258 24.6908 12.6036 24.8725C12.7814 25.0542 13.0226 25.1562 13.274 25.1562H17.0666C17.3181 25.1562 17.5592 25.0542 17.737 24.8725C17.9148 24.6908 18.0147 24.4444 18.0147 24.1875V20.3125C18.0147 20.0556 18.1146 19.8092 18.2924 19.6275C18.4702 19.4458 18.7114 19.3438 18.9629 19.3438C19.2143 19.3438 19.4555 19.4458 19.6333 19.6275C19.8111 19.8092 19.911 20.0556 19.911 20.3125V24.1875C19.911 24.4444 20.0109 24.6908 20.1887 24.8725C20.3665 25.0542 20.6077 25.1562 20.8591 25.1562H28.4443C28.6957 25.1562 28.9369 25.0542 29.1147 24.8725C29.2925 24.6908 29.3924 24.4444 29.3924 24.1875V17.4062C29.3924 16.6355 29.0927 15.8962 28.5593 15.3512C28.0259 14.8062 27.3024 14.5 26.548 14.5ZM12.1635 6.72094C13.3096 5.94109 14.4154 5.18547 15.1703 4.29906C15.9217 5.1891 17.031 5.94473 18.1771 6.72094C20.5474 8.33391 23.2117 10.1467 23.6419 13.5312H6.69396C7.12892 10.1467 9.78963 8.33391 12.1635 6.72094ZM2.84452 17.4062C2.84452 17.1493 2.94441 16.9029 3.12222 16.7212C3.30003 16.5396 3.5412 16.4375 3.79266 16.4375C4.04412 16.4375 4.28528 16.5396 4.46309 16.7212C4.6409 16.9029 4.7408 17.1493 4.7408 17.4062V23.2188H2.84452V17.4062ZM18.9629 17.4062C18.2085 17.4062 17.485 17.7124 16.9516 18.2575C16.4181 18.8025 16.1185 19.5417 16.1185 20.3125V23.2188H14.2222V20.3125C14.2222 19.5417 13.9225 18.8025 13.3891 18.2575C12.8556 17.7124 12.1321 17.4062 11.3778 17.4062C10.6234 17.4062 9.89989 17.7124 9.36646 18.2575C8.83303 18.8025 8.53335 19.5417 8.53335 20.3125V23.2188H6.63707V15.4688H23.7036V23.2188H21.8073V20.3125C21.8073 19.5417 21.5076 18.8025 20.9742 18.2575C20.4407 17.7124 19.7173 17.4062 18.9629 17.4062ZM27.4961 23.2188H25.5998V17.4062C25.5998 17.1493 25.6997 16.9029 25.8775 16.7212C26.0554 16.5396 26.2965 16.4375 26.548 16.4375C26.7994 16.4375 27.0406 16.5396 27.2184 16.7212C27.3962 16.9029 27.4961 17.1493 27.4961 17.4062V23.2188Z" fill="#979797"/>
</svg>
