<svg width="28" height="30" viewBox="0 0 28 30" fill="none" xmlns="http://www.w3.org/2000/svg">
<path d="M24.3125 24.0337H3.6875C2.99714 24.0337 2.4375 24.668 2.4375 25.4504V26.867C2.4375 27.6494 2.99714 28.2837 3.6875 28.2837H24.3125C25.0029 28.2837 25.5625 27.6494 25.5625 26.867V25.4504C25.5625 24.668 25.0029 24.0337 24.3125 24.0337Z" stroke="#979797" stroke-width="3" stroke-linecap="round" stroke-linejoin="round"/>
<path d="M5.5625 11.9886V24.0445M22.4375 11.9886V24.0445M17.125 11.9886V24.0445M10.875 11.9886V24.0445M12.8 2.46297L3.0875 8.48381C2.89079 8.60579 2.72666 8.78549 2.61229 9.00408C2.49793 9.22267 2.43756 9.4721 2.4375 9.72622V11.1386C2.4375 11.3641 2.51652 11.5803 2.65717 11.7397C2.79782 11.8991 2.98859 11.9886 3.1875 11.9886H24.8125C25.0114 11.9886 25.2022 11.8991 25.3428 11.7397C25.4835 11.5803 25.5625 11.3641 25.5625 11.1386V9.72622C25.5624 9.4721 25.5021 9.22267 25.3877 9.00408C25.2733 8.78549 25.1092 8.60579 24.9125 8.48381L15.2 2.46297C14.8321 2.23482 14.4194 2.11523 14 2.11523C13.5806 2.11523 13.1679 2.23482 12.8 2.46297Z" stroke="#979797" stroke-width="3" stroke-linecap="round" stroke-linejoin="round"/>
</svg>
