<svg width="22" height="22" viewBox="0 0 22 22" fill="none" xmlns="http://www.w3.org/2000/svg">
<path d="M3.6668 9.53333V8.8H2.93346V9.53333H3.6668ZM9.53346 9.53333V8.8H8.80013V9.53333H9.53346ZM9.53346 15.4H8.80013V16.1333H9.53346V15.4ZM19.8001 5.13333H20.5335V4.82973L20.3193 4.61413L19.8001 5.13333ZM15.4001 0.733333L15.9193 0.214133L15.7037 0H15.4001V0.733333ZM3.6668 10.2667H5.13346V8.8H3.6668V10.2667ZM4.40013 16.1333V12.4667H2.93346V16.1333H4.40013ZM4.40013 12.4667V9.53333H2.93346V12.4667H4.40013ZM5.13346 11.7333H3.6668V13.2H5.13346V11.7333ZM5.8668 11C5.8668 11.1945 5.78954 11.381 5.65201 11.5185C5.51448 11.6561 5.32796 11.7333 5.13346 11.7333V13.2C5.71694 13.2 6.27652 12.9682 6.6891 12.5556C7.10168 12.1431 7.33346 11.5835 7.33346 11H5.8668ZM5.13346 10.2667C5.32796 10.2667 5.51448 10.3439 5.65201 10.4815C5.78954 10.619 5.8668 10.8055 5.8668 11H7.33346C7.33346 10.4165 7.10168 9.85695 6.6891 9.44436C6.27652 9.03179 5.71694 8.8 5.13346 8.8V10.2667ZM8.80013 9.53333V15.4H10.2668V9.53333H8.80013ZM9.53346 16.1333H11.0001V14.6667H9.53346V16.1333ZM13.2001 13.9333V11H11.7335V13.9333H13.2001ZM11.0001 8.8H9.53346V10.2667H11.0001V8.8ZM13.2001 11C13.2001 10.4165 12.9683 9.85695 12.5558 9.44436C12.1432 9.03179 11.5836 8.8 11.0001 8.8V10.2667C11.1946 10.2667 11.3811 10.3439 11.5187 10.4815C11.6562 10.619 11.7335 10.8055 11.7335 11H13.2001ZM11.0001 16.1333C11.5836 16.1333 12.1432 15.9015 12.5558 15.489C12.9683 15.0764 13.2001 14.5168 13.2001 13.9333H11.7335C11.7335 14.1278 11.6562 14.3144 11.5187 14.4519C11.3811 14.5894 11.1946 14.6667 11.0001 14.6667V16.1333ZM14.6668 8.8V16.1333H16.1335V8.8H14.6668ZM15.4001 10.2667H19.0668V8.8H15.4001V10.2667ZM15.4001 13.2H17.6001V11.7333H15.4001V13.2ZM2.93346 7.33333V2.2H1.4668V7.33333H2.93346ZM19.0668 5.13333V7.33333H20.5335V5.13333H19.0668ZM3.6668 1.46667H15.4001V0H3.6668V1.46667ZM14.8809 1.25253L19.2809 5.65253L20.3193 4.61413L15.9193 0.214133L14.8809 1.25253ZM2.93346 2.2C2.93346 2.00551 3.01073 1.81898 3.14825 1.68146C3.28578 1.54393 3.4723 1.46667 3.6668 1.46667V0C3.08332 0 2.52374 0.231785 2.11116 0.644365C1.69858 1.05695 1.4668 1.61652 1.4668 2.2H2.93346ZM1.4668 17.6V19.8H2.93346V17.6H1.4668ZM3.6668 22H18.3335V20.5333H3.6668V22ZM20.5335 19.8V17.6H19.0668V19.8H20.5335ZM18.3335 22C18.9169 22 19.4765 21.7682 19.8891 21.3556C20.3017 20.9431 20.5335 20.3835 20.5335 19.8H19.0668C19.0668 19.9945 18.9895 20.181 18.852 20.3185C18.7145 20.4561 18.528 20.5333 18.3335 20.5333V22ZM1.4668 19.8C1.4668 20.3835 1.69858 20.9431 2.11116 21.3556C2.52374 21.7682 3.08332 22 3.6668 22V20.5333C3.4723 20.5333 3.28578 20.4561 3.14825 20.3185C3.01073 20.181 2.93346 19.9945 2.93346 19.8H1.4668Z" fill="#6C6C6C"/>
</svg>
