<svg xmlns="http://www.w3.org/2000/svg" fill="none" viewBox="0.5 0.75 25 22.5">
<path d="M23 0.75C23.6307 0.749801 24.2382 0.988008 24.7007 1.41687C25.1632 1.84573 25.4464 2.43356 25.4938 3.0625L25.5 3.25V20.75C25.5002 21.3807 25.262 21.9882 24.8331 22.4507C24.4043 22.9132 23.8164 23.1964 23.1875 23.2438L23 23.25H3C2.36928 23.2502 1.76179 23.012 1.29932 22.5831C0.836838 22.1543 0.553554 21.5664 0.50625 20.9375L0.5 20.75V3.25C0.499801 2.61928 0.738008 2.01179 1.16687 1.54932C1.59573 1.08684 2.18356 0.803554 2.8125 0.75625L3 0.75H23ZM10.3487 12.0625L3.2775 19.1338C3.19524 19.2163 3.10184 19.287 3 19.3438V20.75H23V19.3438C22.8982 19.287 22.8048 19.2163 22.7225 19.1338L19.1875 15.6L18.3037 16.4837L18.5625 16.7425C18.6786 16.8586 18.7706 16.9965 18.8334 17.1482C18.8962 17.2999 18.9284 17.4625 18.9284 17.6267C18.9283 17.7909 18.8959 17.9534 18.833 18.1051C18.7702 18.2568 18.678 18.3946 18.5619 18.5106C18.4457 18.6267 18.3079 18.7187 18.1562 18.7815C18.0045 18.8443 17.8419 18.8766 17.6777 18.8765C17.5135 18.8764 17.3509 18.844 17.1993 18.7812C17.0476 18.7183 16.9098 18.6261 16.7938 18.51L10.35 12.0625H10.3487ZM23 3.25H3V15.875L9.24375 9.6325C9.51593 9.36039 9.87895 9.19831 10.2632 9.17732C10.6475 9.15633 11.0261 9.27791 11.3263 9.51875L11.4525 9.63125L16.535 14.715L18.0825 13.1675C18.3547 12.8954 18.7177 12.7333 19.102 12.7123C19.4863 12.6913 19.8648 12.8129 20.165 13.0538L20.2925 13.1675L23 15.8762V3.25ZM17.375 5.75C17.8723 5.75 18.3492 5.94754 18.7008 6.29917C19.0525 6.65081 19.25 7.12772 19.25 7.625C19.25 8.12228 19.0525 8.59919 18.7008 8.95083C18.3492 9.30246 17.8723 9.5 17.375 9.5C16.8777 9.5 16.4008 9.30246 16.0492 8.95083C15.6975 8.59919 15.5 8.12228 15.5 7.625C15.5 7.12772 15.6975 6.65081 16.0492 6.29917C16.4008 5.94754 16.8777 5.75 17.375 5.75Z" fill="#67747C"/>
</svg>