<svg width="41" height="305" viewBox="0 0 41 305" fill="none" xmlns="http://www.w3.org/2000/svg">
<path d="M0 0H41V257.379L0 305V0Z" fill="#FF8B00"/>
<path d="M4.70508 186.795V194.28L16.3866 209.892L4.70508 225.447V232.99L19.2421 213.635L35.2933 235.037V227.493L22.0543 209.892L35.2933 192.291V184.748L19.2421 206.15L4.70508 186.795Z" fill="#48007D"/>
<path d="M4.70508 174.691L19.9776 195.04L35.25 174.691L19.9776 154.342L4.70508 174.691ZM19.9776 187.556L10.3295 174.75L19.9776 161.944L29.6256 174.75L19.9776 187.556Z" fill="#48007D"/>
<path d="M4.70508 116.449V123.934L16.3866 139.547L4.70508 155.101V162.644L19.2421 143.289L35.2933 164.691V157.148L22.0543 139.547L35.2933 121.887V114.402L19.2421 135.746L4.70508 116.449Z" fill="#48007D"/>
<path d="M4.70508 104.345L19.9776 124.695L35.25 104.345L19.9776 83.9961L4.70508 104.345ZM19.9776 117.21L10.3295 104.404L19.9776 91.5979L29.6256 104.404L19.9776 117.21Z" fill="#48007D"/>
<path d="M35.2933 34H29.6256L19.9776 46.8061L10.3728 34H4.70508L19.9776 54.3493L35.2933 34Z" fill="#48007D"/>
<path d="M4.70508 46.0467V53.59L16.3866 69.2029L4.70508 84.7573V92.3006L19.2421 72.9453L35.2933 94.3472V86.8039L22.0543 69.2029L35.2933 51.5434V44.0586L19.2421 65.402L4.70508 46.0467Z" fill="#48007D"/>
</svg>
