<svg width="30" height="30" viewBox="0 0 30 30" fill="none" xmlns="http://www.w3.org/2000/svg">
<g clip-path="url(#clip0_2336_15295)">
<path d="M15 7.5C15.2486 7.5 15.4871 7.59877 15.6629 7.77459C15.8387 7.9504 15.9375 8.18886 15.9375 8.4375V11.25C15.9375 11.4986 15.8387 11.7371 15.6629 11.9129C15.4871 12.0887 15.2486 12.1875 15 12.1875C14.7514 12.1875 14.5129 12.0887 14.3371 11.9129C14.1613 11.7371 14.0625 11.4986 14.0625 11.25V8.4375C14.0625 8.18886 14.1613 7.9504 14.3371 7.77459C14.5129 7.59877 14.7514 7.5 15 7.5ZM6.9975 10.7475C7.17331 10.5717 7.41172 10.473 7.66031 10.473C7.9089 10.473 8.14732 10.5717 8.32313 10.7475L10.0388 12.4612C10.1259 12.5484 10.1951 12.6519 10.2422 12.7658C10.2894 12.8797 10.3137 13.0017 10.3137 13.125C10.3137 13.2483 10.2894 13.3703 10.2422 13.4842C10.1951 13.5981 10.1259 13.7016 10.0388 13.7888C9.95159 13.8759 9.84811 13.9451 9.73422 13.9922C9.62033 14.0394 9.49827 14.0637 9.375 14.0637C9.25173 14.0637 9.12967 14.0394 9.01578 13.9922C8.90189 13.9451 8.79841 13.8759 8.71125 13.7888L6.9975 12.0731C6.82175 11.8973 6.72301 11.6589 6.72301 11.4103C6.72301 11.1617 6.82175 10.9233 6.9975 10.7475ZM3.75 18.75C3.75 18.5014 3.84877 18.2629 4.02459 18.0871C4.2004 17.9113 4.43886 17.8125 4.6875 17.8125H7.66125C7.90989 17.8125 8.14835 17.9113 8.32416 18.0871C8.49998 18.2629 8.59875 18.5014 8.59875 18.75C8.59875 18.9986 8.49998 19.2371 8.32416 19.4129C8.14835 19.5887 7.90989 19.6875 7.66125 19.6875H4.6875C4.43886 19.6875 4.2004 19.5887 4.02459 19.4129C3.84877 19.2371 3.75 18.9986 3.75 18.75ZM21.5625 18.75C21.5625 18.5014 21.6613 18.2629 21.8371 18.0871C22.0129 17.9113 22.2514 17.8125 22.5 17.8125H25.3125C25.5611 17.8125 25.7996 17.9113 25.9754 18.0871C26.1512 18.2629 26.25 18.5014 26.25 18.75C26.25 18.9986 26.1512 19.2371 25.9754 19.4129C25.7996 19.5887 25.5611 19.6875 25.3125 19.6875H22.5C22.2514 19.6875 22.0129 19.5887 21.8371 19.4129C21.6613 19.2371 21.5625 18.9986 21.5625 18.75ZM22.9762 10.7888C22.8461 10.6599 22.6724 10.5846 22.4895 10.5777C22.3065 10.5707 22.1276 10.6327 21.9881 10.7513L14.1506 17.4563C13.968 17.6101 13.8197 17.8006 13.7154 18.0153C13.611 18.2301 13.5529 18.4644 13.5448 18.703C13.5366 18.9417 13.5787 19.1794 13.6682 19.4007C13.7577 19.6221 13.8927 19.8222 14.0644 19.9881C14.2362 20.1541 14.4408 20.2821 14.6651 20.364C14.8894 20.4458 15.1284 20.4797 15.3666 20.4634C15.6049 20.447 15.837 20.3809 16.0481 20.2692C16.2591 20.1575 16.4444 20.0028 16.5919 19.815L23.0306 11.7581C23.1423 11.6177 23.1984 11.4412 23.1884 11.2621C23.1783 11.0831 23.1028 10.9139 22.9762 10.7869V10.7888Z" fill="#48007D"/>
<path fill-rule="evenodd" clip-rule="evenodd" d="M6.01663e-06 18.7502C0.00196609 16.5673 0.48033 14.4112 1.4017 12.4323C2.32308 10.4534 3.66525 8.69945 5.33454 7.29289C7.00383 5.88632 8.95999 4.86104 11.0665 4.28861C13.173 3.71619 15.379 3.61041 17.5306 3.97867C19.6822 4.34694 21.7274 5.18036 23.5236 6.42076C25.3199 7.66117 26.8237 9.27866 27.9302 11.1603C29.0366 13.042 29.7191 15.1425 29.9299 17.3151C30.1407 19.4878 29.8747 21.6803 29.1506 23.7396C28.3219 26.089 25.6913 26.7433 23.6531 26.0833C21.2044 25.2902 17.7656 24.3752 15 24.3752C12.2363 24.3752 8.79376 25.2902 6.34688 26.0833C4.30876 26.7433 1.67813 26.089 0.849381 23.7396C0.285697 22.1366 -0.00151589 20.4494 6.01663e-06 18.7502ZM15 5.6252C12.9007 5.62466 10.8319 6.12769 8.96721 7.09208C7.10253 8.05646 5.49638 9.45406 4.28357 11.1676C3.07075 12.8811 2.28665 14.8605 1.99708 16.9398C1.70751 19.019 1.92091 21.1374 2.61938 23.1171C3.00001 24.1952 4.35001 24.7596 5.76938 24.2983C8.24438 23.4996 11.9213 22.5002 15 22.5002C18.0788 22.5002 21.7575 23.4977 24.2306 24.3002C25.65 24.7596 27 24.1952 27.3806 23.1171C28.0791 21.1374 28.2925 19.019 28.0029 16.9398C27.7134 14.8605 26.9293 12.8811 25.7164 11.1676C24.5036 9.45406 22.8975 8.05646 21.0328 7.09208C19.1681 6.12769 17.0993 5.62466 15 5.6252Z" fill="#48007D"/>
</g>
<defs>
<clipPath id="clip0_2336_15295">
<rect width="30" height="30" fill="white"/>
</clipPath>
</defs>
</svg>
