<svg width="25" height="19" viewBox="0 0 25 19" fill="none" xmlns="http://www.w3.org/2000/svg">
<path d="M4.74961 0.200195C3.51635 0.200195 2.33361 0.690105 1.46156 1.56215C0.589519 2.43419 0.0996094 3.61694 0.0996094 4.8502V14.1502C0.0996094 15.3835 0.589519 16.5662 1.46156 17.4382C2.33361 18.3103 3.51635 18.8002 4.74961 18.8002H12.4996C13.7329 18.8002 14.9156 18.3103 15.7877 17.4382C16.6597 16.5662 17.1496 15.3835 17.1496 14.1502V13.6526L21.857 16.903C22.1478 17.1037 22.488 17.2211 22.8407 17.2424C23.1934 17.2637 23.5452 17.1881 23.8581 17.0238C24.1709 16.8596 24.4329 16.6129 24.6157 16.3105C24.7984 16.008 24.895 15.6614 24.895 15.308V3.6908C24.8947 3.33757 24.798 2.99112 24.6151 2.68892C24.4322 2.38672 24.1702 2.14026 23.8574 1.97619C23.5446 1.81213 23.1929 1.7367 22.8403 1.75806C22.4877 1.77942 22.1477 1.89676 21.857 2.0974L17.1496 5.3462V4.8502C17.1496 3.61694 16.6597 2.43419 15.7877 1.56215C14.9156 0.690105 13.7329 0.200195 12.4996 0.200195H4.74961ZM17.1496 7.231L22.7374 3.3715C22.7955 3.33134 22.8636 3.30787 22.9342 3.30362C23.0047 3.29937 23.0751 3.31451 23.1377 3.3474C23.2003 3.38029 23.2527 3.42967 23.2892 3.4902C23.3258 3.55073 23.345 3.6201 23.345 3.6908V15.308C23.345 15.3787 23.3258 15.4481 23.2892 15.5086C23.2527 15.5692 23.2003 15.6186 23.1377 15.6514C23.0751 15.6843 23.0047 15.6995 22.9342 15.6952C22.8636 15.691 22.7955 15.6675 22.7374 15.6273L17.1496 11.7678V7.231ZM1.64961 4.8502C1.64961 4.02802 1.97622 3.23953 2.55758 2.65816C3.13894 2.0768 3.92744 1.7502 4.74961 1.7502H12.4996C13.3218 1.7502 14.1103 2.0768 14.6916 2.65816C15.273 3.23953 15.5996 4.02802 15.5996 4.8502V14.1502C15.5996 14.9724 15.273 15.7609 14.6916 16.3422C14.1103 16.9236 13.3218 17.2502 12.4996 17.2502H4.74961C3.92744 17.2502 3.13894 16.9236 2.55758 16.3422C1.97622 15.7609 1.64961 14.9724 1.64961 14.1502V4.8502Z" fill="#6C6C6C"/>
</svg>
