<svg xmlns="http://www.w3.org/2000/svg" fill="none" viewBox="0.58 0.63 24.83 21.75">
<path d="M1.33301 14.8755V8.12549C1.33301 6.33528 2.07051 4.61839 3.38326 3.35252C4.69602 2.08665 6.47649 1.37549 8.33301 1.37549H17.6663C19.5229 1.37549 21.3033 2.08665 22.6161 3.35252C23.9288 4.61839 24.6663 6.33528 24.6663 8.12549V14.8755C24.6663 16.6657 23.9288 18.3826 22.6161 19.6485C21.3033 20.9143 19.5229 21.6255 17.6663 21.6255H8.33301C6.47649 21.6255 4.69602 20.9143 3.38326 19.6485C2.07051 18.3826 1.33301 16.6657 1.33301 14.8755Z" stroke="#67747C" stroke-width="1.5"/>
<path d="M14.1663 15.438V12.288M14.1663 12.288V7.56299H17.4995C18.3325 7.56299 19.9997 7.56299 19.9997 9.92549C19.9997 12.288 18.3325 12.288 17.4995 12.288M14.1663 12.288H17.4995M17.4995 12.288L19.9997 15.438M11.833 7.56299L8.33301 15.438L4.83301 7.56299" stroke="#67747C" stroke-width="1.5" stroke-linecap="round" stroke-linejoin="round"/>
</svg>