<svg width="112" height="50" viewBox="0 0 112 50" fill="none" xmlns="http://www.w3.org/2000/svg">
<path d="M33.364 14.8573H31.7258C31.6035 14.8573 31.5546 14.9178 31.5546 15.0266V18.6654C31.5546 19.0401 31.5546 19.3424 31.5179 19.56C31.4935 19.7776 31.4446 19.9589 31.3712 20.0798C31.2979 20.2007 31.1756 20.2853 31.0045 20.3216C30.8333 20.3578 30.6132 20.382 30.3198 20.382C30.0264 20.382 29.6352 20.2974 29.4029 20.104C29.1706 19.9226 29.0606 19.6446 29.0606 19.2698V16.3926C29.0606 16.2718 28.9994 16.2113 28.8894 16.2113H27.2512C27.1289 16.2113 27.08 16.2718 27.08 16.3926V19.0401C27.08 19.3424 27.0678 19.5841 27.0311 19.7655C27.0066 19.9468 26.9455 20.0677 26.8477 20.1644C26.7621 20.249 26.6399 20.3095 26.4809 20.3457C26.322 20.3699 26.1142 20.3941 25.8574 20.3941C25.0016 20.3941 24.5737 20.0314 24.5737 19.3061V16.4047C24.5737 16.2838 24.5126 16.2234 24.4026 16.2234H22.7643C22.6421 16.2234 22.5932 16.2838 22.5932 16.4047V19.0522C22.5932 19.56 22.5443 19.9105 22.4464 20.0919C22.3486 20.2853 22.1164 20.382 21.7496 20.382H11.7978H11.4922C11.0398 20.382 10.6853 20.2853 10.4285 20.104C10.1718 19.9226 10.0373 19.6567 10.0373 19.3182V17.6741C10.0373 16.5619 9.7439 15.764 9.16929 15.2805C8.58246 14.7848 7.80001 14.543 6.80973 14.543H4.10784C3.98558 14.543 3.92445 14.6035 3.92445 14.7244V16.1267C3.92445 16.2476 3.98558 16.308 4.10784 16.308H6.23512C6.83418 16.308 7.28653 16.4289 7.59217 16.6707C7.89782 16.9125 8.04453 17.3114 8.04453 17.8433V19.016C8.04453 19.2698 8.0323 19.4874 7.99562 19.6688C7.97117 19.838 7.89782 19.9831 7.80001 20.0919C7.70221 20.2007 7.5555 20.2853 7.35989 20.3337C7.16427 20.382 6.91976 20.4062 6.60189 20.4062H3.30094C3.17868 20.4062 3.11755 20.4666 3.11755 20.5875V21.9898C3.11755 22.1107 3.17868 22.1712 3.30094 22.1712H7.27431C7.87337 22.1712 8.37462 22.0986 8.75362 21.9657C9.13262 21.8327 9.43826 21.5667 9.65832 21.1557C9.85394 21.5667 10.1351 21.8448 10.5019 21.9778C10.8687 22.1107 11.2966 22.1712 11.7856 22.1712H22.3364C22.8743 22.1712 23.3022 22.0986 23.6201 21.9536C23.9258 21.8085 24.1703 21.5667 24.3292 21.2282C24.6349 21.8569 25.2095 22.1712 26.053 22.1712H26.8355C27.3734 22.1712 27.7891 22.0986 28.107 21.9657C28.4248 21.8327 28.6571 21.5909 28.8283 21.2524C28.9872 21.5426 29.2073 21.7722 29.4885 21.9415C29.7697 22.1107 30.1364 22.1833 30.5399 22.1833H31.2979C32.1048 22.1833 32.6794 22.014 33.0095 21.6876C33.3518 21.3491 33.5107 20.7809 33.5107 19.971V15.0749C33.5107 14.9541 33.4496 14.8936 33.3396 14.8936L33.364 14.8573Z" fill="white"/>
<path d="M52.7419 15.4255C52.4118 15.1233 52.0328 14.8936 51.5804 14.7606C51.1281 14.6156 50.6391 14.5551 50.1256 14.5551C49.6121 14.5551 49.1231 14.6277 48.6829 14.7606C48.2428 14.8936 47.8638 15.1112 47.5337 15.4134C47.2036 15.7157 46.9469 16.1025 46.7635 16.574C46.5801 17.0455 46.4823 17.6257 46.4701 18.3027V18.5687C46.4701 18.6533 46.4701 18.7379 46.4823 18.8346C46.4823 19.1368 46.4456 19.3907 46.3723 19.5962C46.2989 19.8017 46.2133 19.9589 46.1033 20.0919C45.9933 20.2128 45.8832 20.2974 45.7488 20.3578C45.6143 20.4062 45.492 20.4425 45.3575 20.4425H40.4061H40.1005C39.6481 20.4425 39.2936 20.3457 39.0246 20.1644C38.7556 19.9831 38.6212 19.705 38.6212 19.3544V15.087C38.6212 14.9661 38.56 14.9178 38.45 14.9178H36.8117C36.6895 14.9178 36.6406 14.9782 36.6406 15.0991V21.3733C36.6406 21.7964 36.6406 22.1712 36.6161 22.4855C36.6039 22.8119 36.5428 23.0779 36.4572 23.3075C36.3716 23.5372 36.2249 23.7065 36.0415 23.8274C35.8459 23.9483 35.5892 24.0087 35.2468 24.0087H34.8556C34.7334 24.0087 34.6722 24.0691 34.6722 24.19V25.5924C34.6722 25.7132 34.7334 25.7737 34.8556 25.7737H35.5158C36.1027 25.7737 36.6039 25.6891 37.0074 25.5319C37.4108 25.3748 37.7287 25.133 37.9732 24.8187C38.2177 24.5044 38.3889 24.1054 38.4867 23.6339C38.5967 23.1625 38.6456 22.6064 38.6456 21.9657V21.6272C38.8412 21.881 39.098 22.0382 39.3792 22.1107C39.6726 22.1833 40.0149 22.2195 40.4183 22.2195H45.3086C45.4798 22.2195 45.651 22.2195 45.8466 22.1833C46.03 22.1591 46.2133 22.1107 46.3967 22.0503C46.5801 21.9898 46.7513 21.8931 46.9102 21.7722C47.0814 21.6514 47.2159 21.4942 47.3381 21.3129C47.656 21.6755 48.0594 21.9415 48.5362 22.0986C49.013 22.2558 49.5387 22.3404 50.1378 22.3404C50.7369 22.3404 51.177 22.2679 51.6293 22.1349C52.0817 21.9898 52.4607 21.7722 52.7908 21.47C53.1209 21.1678 53.3654 20.7689 53.5366 20.2974C53.7077 19.8259 53.8055 19.2336 53.8055 18.5445C53.8055 17.8554 53.7077 17.2268 53.5243 16.7191C53.3409 16.2113 53.0842 15.8124 52.7541 15.5102L52.7419 15.4255ZM51.3848 20.0193C51.1159 20.3457 50.688 20.515 50.1133 20.515C49.5387 20.515 49.1353 20.3578 48.8541 20.0314C48.5851 19.705 48.4506 19.1731 48.4506 18.4236C48.4506 17.6741 48.5851 17.2147 48.8541 16.852C49.1231 16.4894 49.5387 16.308 50.1133 16.308C51.2381 16.308 51.7883 17.0092 51.7883 18.4236C51.7883 19.838 51.6538 19.6929 51.3848 20.0193Z" fill="white"/>
<path d="M4.23014 29.4125C4.23014 29.3158 4.27904 29.2674 4.37685 29.2674H5.33046C5.45271 29.2674 5.52607 29.3158 5.56275 29.4125L8.55805 36.0735H8.60695L11.5411 29.4125C11.5778 29.3158 11.6634 29.2674 11.7734 29.2674H12.727C12.8248 29.2674 12.8737 29.3158 12.8737 29.4125V39.0111C12.8737 39.1078 12.8248 39.1562 12.727 39.1562H11.7856C11.6878 39.1562 11.6389 39.1078 11.6389 39.0111V32.1325H11.59L9.10821 37.5725C9.05931 37.6934 8.97373 37.7418 8.83924 37.7418H8.25241C8.11792 37.7418 8.02012 37.6813 7.97122 37.5725L5.48939 32.1325H5.44049V39.0111C5.44049 39.1078 5.39158 39.1562 5.29378 39.1562H4.3524C4.25459 39.1562 4.20569 39.1078 4.20569 39.0111V29.4125H4.23014Z" fill="white"/>
<path d="M19.7324 39.1562C19.6346 39.1562 19.5857 39.1078 19.5857 39.0111V38.3583H19.5735C19.3901 38.6485 19.1333 38.8781 18.8155 39.0595C18.4976 39.2287 18.1064 39.3254 17.6418 39.3254C16.8716 39.3254 16.2725 39.0837 15.8446 38.6001C15.4167 38.1165 15.2089 37.4879 15.2089 36.69V32.338C15.2089 32.2413 15.2578 32.1929 15.3556 32.1929H16.297C16.3948 32.1929 16.4437 32.2413 16.4437 32.338V36.3878C16.4437 36.956 16.5659 37.4033 16.8227 37.7055C17.0794 38.0198 17.4706 38.1649 17.9963 38.1649C18.522 38.1649 18.8644 38.0077 19.1456 37.7055C19.439 37.3912 19.5735 36.9802 19.5735 36.4604V32.3259C19.5735 32.2292 19.6224 32.1809 19.7202 32.1809H20.6615C20.7593 32.1809 20.8083 32.2292 20.8083 32.3259V38.999C20.8083 39.0957 20.7593 39.1441 20.6615 39.1441H19.7202L19.7324 39.1562Z" fill="white"/>
<path d="M23.3756 39.1562C23.2778 39.1562 23.2289 39.1078 23.2289 39.0111V32.338C23.2289 32.2413 23.2778 32.1929 23.3756 32.1929H24.317C24.4148 32.1929 24.4637 32.2413 24.4637 32.338V33.0513H24.4759C24.6348 32.749 24.8671 32.5073 25.1728 32.3138C25.4784 32.1204 25.8696 32.0358 26.3464 32.0358C26.8232 32.0358 26.8966 32.0841 27.1533 32.1688C27.3979 32.2655 27.6179 32.3864 27.7891 32.5556C27.8624 32.6281 27.8624 32.6886 27.8135 32.7611L27.2756 33.4744C27.2145 33.5469 27.1533 33.559 27.0678 33.4986C26.8966 33.3898 26.7254 33.3051 26.5543 33.2568C26.3831 33.1963 26.1875 33.1721 25.9797 33.1721C25.4417 33.1721 25.0505 33.3535 24.8182 33.7282C24.5859 34.103 24.4637 34.5986 24.4637 35.2031V39.0111C24.4637 39.1078 24.4148 39.1562 24.317 39.1562H23.3756Z" fill="white"/>
<path d="M31.5669 39.3133C31.2246 39.3133 30.9067 39.2771 30.6133 39.2166C30.3199 39.1562 30.0509 39.0716 29.8064 38.9749C29.5619 38.8781 29.3541 38.7573 29.1584 38.6364C28.9628 38.5155 28.8039 38.3946 28.6572 38.2616C28.5838 38.1891 28.5838 38.1286 28.6572 38.0561L29.2563 37.4154C29.3296 37.3428 29.3907 37.3428 29.4641 37.4154C29.7331 37.633 30.0509 37.8264 30.4299 37.9836C30.8089 38.1407 31.2124 38.2133 31.6403 38.2133C32.0682 38.2133 32.545 38.1165 32.8017 37.911C33.0585 37.7176 33.1807 37.4637 33.1807 37.1494C33.1807 36.8351 33.0951 36.6659 32.9117 36.4966C32.7284 36.3395 32.3616 36.2307 31.8114 36.1702L31.0657 36.0977C30.3688 36.0251 29.8431 35.8196 29.4885 35.4811C29.134 35.1547 28.9628 34.6954 28.9628 34.1272C28.9628 33.559 29.1951 32.9425 29.6475 32.5677C30.0998 32.1929 30.7478 32.0116 31.5791 32.0116C32.4105 32.0116 32.5694 32.0841 32.9973 32.2292C33.4252 32.3743 33.7798 32.5556 34.0732 32.7853C34.1465 32.8337 34.1588 32.9062 34.0976 32.9908L33.5964 33.6194C33.5353 33.692 33.4741 33.692 33.3886 33.6436C33.1685 33.4985 32.8873 33.3656 32.545 33.2568C32.2027 33.1359 31.8603 33.0875 31.4936 33.0875C31.1268 33.0875 30.7233 33.1721 30.491 33.3535C30.2588 33.5348 30.1487 33.7645 30.1487 34.0426C30.1487 34.3206 30.2465 34.5382 30.4421 34.6954C30.6378 34.8404 31.0045 34.9492 31.5302 34.9976L32.2638 35.0701C32.9851 35.1427 33.5108 35.3361 33.8654 35.6867C34.2199 36.0251 34.3911 36.4724 34.3911 37.0406C34.3911 37.6088 34.1465 38.2858 33.6575 38.6968C33.1685 39.1078 32.4594 39.3254 31.5425 39.3254L31.5669 39.3133Z" fill="white"/>
<path d="M40.9196 39.1562C40.8218 39.1562 40.7729 39.1078 40.7729 39.0111V34.9371C40.7729 34.381 40.6384 33.9338 40.3817 33.6315C40.1249 33.3172 39.7215 33.1721 39.1958 33.1721C38.6701 33.1721 38.3278 33.3293 38.0221 33.6315C37.7287 33.9338 37.5698 34.3569 37.5698 34.8767V39.0232C37.5698 39.1199 37.5209 39.1683 37.4231 39.1683H36.4817C36.3839 39.1683 36.335 39.1199 36.335 39.0232V29.4246C36.335 29.3279 36.3839 29.2795 36.4817 29.2795H37.4231C37.5209 29.2795 37.5698 29.3279 37.5698 29.4246V32.9908H37.582C37.7531 32.7249 37.9977 32.4952 38.3278 32.3138C38.6579 32.1325 39.0613 32.0479 39.5503 32.0479C40.3206 32.0479 40.9074 32.2897 41.3475 32.7611C41.7754 33.2326 41.9955 33.8733 41.9955 34.6712V39.0353C41.9955 39.132 41.9466 39.1804 41.8488 39.1804H40.9074L40.9196 39.1562Z" fill="white"/>
<path d="M44.4529 30.6214C44.3551 30.6214 44.3062 30.573 44.3062 30.4763V29.4125C44.3062 29.3158 44.3551 29.2674 44.4529 29.2674H45.4554C45.5532 29.2674 45.6021 29.3158 45.6021 29.4125V30.4763C45.6021 30.573 45.5532 30.6214 45.4554 30.6214H44.4529ZM44.4895 39.1562C44.3917 39.1562 44.3428 39.1078 44.3428 39.0111V32.338C44.3428 32.2413 44.3917 32.1929 44.4895 32.1929H45.4309C45.5287 32.1929 45.5776 32.2413 45.5776 32.338V39.0111C45.5776 39.1078 45.5287 39.1562 45.4309 39.1562H44.4895Z" fill="white"/>
<path d="M52.3996 39.1562C52.3018 39.1562 52.2529 39.1078 52.2529 39.0111V38.3462H52.2407C52.0695 38.6243 51.8372 38.854 51.5071 39.0474C51.1893 39.2287 50.7614 39.3254 50.2356 39.3254C49.7099 39.3254 49.0986 39.1804 48.6952 38.9023C48.2795 38.6243 47.9861 38.2012 47.8149 37.6572C47.7171 37.3791 47.656 37.089 47.6193 36.7868C47.5827 36.4845 47.5704 36.1219 47.5704 35.6867C47.5704 35.2515 47.5827 34.8888 47.6193 34.5866C47.656 34.2964 47.7171 34.0063 47.8149 33.7162C47.9861 33.1601 48.2795 32.749 48.6952 32.471C49.1109 32.1929 49.6244 32.0479 50.2356 32.0479C50.8469 32.0479 51.1893 32.1325 51.5071 32.3138C51.825 32.4952 52.0695 32.7249 52.2407 33.0029H52.2529V29.4246C52.2529 29.3279 52.3018 29.2795 52.3996 29.2795H53.341C53.4388 29.2795 53.4877 29.3279 53.4877 29.4246V39.0232C53.4877 39.1199 53.4388 39.1683 53.341 39.1683H52.3996V39.1562ZM50.5291 38.177C51.336 38.177 51.8494 37.8264 52.0817 37.1132C52.1429 36.9439 52.1795 36.7505 52.204 36.5208C52.2284 36.2911 52.2407 36.001 52.2407 35.6504C52.2407 35.2998 52.2284 35.0218 52.204 34.7921C52.1795 34.5745 52.1429 34.369 52.0817 34.1997C51.8494 33.4986 51.3237 33.148 50.5291 33.148C49.7344 33.148 49.2331 33.4986 48.9886 34.1997C48.9275 34.3931 48.8908 34.6107 48.8664 34.8404C48.8419 35.0701 48.8297 35.3482 48.8297 35.6504C48.8297 35.9526 48.8297 36.2427 48.8664 36.4845C48.8908 36.7142 48.9275 36.9318 48.9886 37.1132C49.2331 37.8264 49.7466 38.177 50.5291 38.177Z" fill="white"/>
<path d="M50.101 10.9768C49.9054 10.7834 49.6609 10.6867 49.3797 10.6867C49.0985 10.6867 48.854 10.7834 48.6706 10.9768C48.475 11.1702 48.3894 11.412 48.3894 11.69C48.3894 11.9681 48.475 12.1857 48.6462 12.3549C48.8173 12.5121 49.0619 12.5967 49.3797 12.5967H49.7954C49.7465 12.6934 49.6487 12.8022 49.502 12.9231C49.3553 13.044 49.0985 13.1044 48.7318 13.1044H48.3405C48.255 13.1044 48.2061 13.1528 48.2061 13.2374V13.4671C48.2061 13.5517 48.255 13.6001 48.3405 13.6001H48.7318C48.9763 13.6001 49.1963 13.5759 49.4042 13.5155C49.612 13.455 49.7832 13.3583 49.9421 13.2374C50.0888 13.1044 50.2111 12.9352 50.2967 12.7176C50.3822 12.5 50.4189 12.234 50.4189 11.9197C50.4189 11.6054 50.3211 11.1823 50.1255 10.9889L50.101 10.9768ZM49.8932 12.1252H49.4409C49.392 12.1252 49.3308 12.1252 49.2697 12.1011C49.2086 12.089 49.1474 12.0648 49.0863 12.0406C49.0252 12.0044 48.9763 11.9681 48.9396 11.9076C48.9029 11.8472 48.8785 11.7747 48.8785 11.69C48.8785 11.6054 48.9151 11.4483 49.0007 11.3395C49.0863 11.2307 49.2086 11.1702 49.3797 11.1702C49.5509 11.1702 49.6487 11.2307 49.7465 11.3515C49.8443 11.4724 49.881 11.6538 49.881 11.8956V12.1252H49.8932Z" fill="white"/>
<path d="M26.1631 14.8332H27.6547C27.7769 14.8332 27.838 14.7727 27.838 14.6518V13.1286C27.838 13.0077 27.7769 12.9473 27.6547 12.9473H26.1631C26.0409 12.9473 25.9797 13.0077 25.9797 13.1286V14.6518C25.9797 14.7727 26.0409 14.8332 26.1631 14.8332Z" fill="white"/>
<path d="M28.2904 13.1286V14.6518C28.2904 14.7727 28.3515 14.8332 28.4738 14.8332H29.9653C30.0876 14.8332 30.1487 14.7727 30.1487 14.6518V13.1286C30.1487 13.0077 30.0876 12.9473 29.9653 12.9473H28.4738C28.3515 12.9473 28.2904 13.0077 28.2904 13.1286Z" fill="white"/>
<path d="M27.3001 12.5725H28.7916C28.9139 12.5725 28.975 12.5121 28.975 12.3912V10.868C28.975 10.7471 28.9139 10.6867 28.7916 10.6867H27.3001C27.1778 10.6867 27.1167 10.7471 27.1167 10.868V12.3912C27.1167 12.5121 27.1778 12.5725 27.3001 12.5725Z" fill="white"/>
<path d="M82.2914 27.9497H83.8074C83.893 27.9497 83.9908 27.9497 84.1009 27.9255C84.2109 27.9134 84.3087 27.8893 84.4065 27.853C84.5043 27.8167 84.6021 27.7684 84.6877 27.6958C84.7855 27.6354 84.8588 27.5508 84.92 27.442C85.0911 27.6475 85.3112 27.7926 85.5802 27.8772C85.8369 27.9618 86.1303 28.0102 86.4604 28.0102C86.7905 28.0102 87.035 27.9739 87.2795 27.8893C87.5241 27.8167 87.7441 27.6837 87.9153 27.5266C88.0864 27.3694 88.2331 27.1397 88.331 26.8738C88.4288 26.6078 88.4777 26.2814 88.4777 25.9067C88.4777 25.5319 88.4288 25.1813 88.331 24.9033C88.2331 24.6252 88.0864 24.4076 87.9031 24.2384C87.7197 24.0691 87.5118 23.9483 87.2551 23.8757C86.9984 23.8032 86.7416 23.7548 86.4482 23.7548C86.1548 23.7548 85.898 23.7911 85.6535 23.8636C85.409 23.9362 85.2012 24.0571 85.0178 24.2263C84.8344 24.3955 84.6999 24.6011 84.5899 24.867C84.4921 25.133 84.4309 25.4473 84.4309 25.822V25.9671C84.4309 26.0155 84.4309 26.0638 84.4309 26.1122C84.4309 26.2814 84.4065 26.4144 84.3698 26.5353C84.3331 26.6441 84.2842 26.7408 84.2231 26.8013C84.162 26.8738 84.1008 26.9221 84.0275 26.9463C83.9541 26.9705 83.8808 26.9947 83.8074 26.9947H82.2548V27.9618L82.2914 27.9497ZM87.1817 26.7771C87.035 26.9584 86.8027 27.0551 86.4849 27.0551C86.167 27.0551 85.9469 26.9705 85.788 26.7892C85.6413 26.6078 85.5679 26.3177 85.5679 25.9067C85.5679 25.4956 85.6413 25.2418 85.788 25.0363C85.9347 24.8428 86.167 24.734 86.4849 24.734C87.1084 24.734 87.414 25.1209 87.414 25.9067C87.414 26.6925 87.3407 26.6078 87.194 26.7892L87.1817 26.7771Z" fill="white"/>
<path d="M84.5287 22.2074C84.3698 22.0624 84.1864 21.9778 83.9541 21.9778C83.7218 21.9778 83.5384 22.0503 83.3795 22.2074C83.2328 22.3646 83.1472 22.5459 83.1472 22.7756C83.1472 23.0053 83.2205 23.1746 83.355 23.3075C83.4895 23.4284 83.6851 23.501 83.9296 23.501H84.2597C84.2231 23.5735 84.1497 23.6702 84.0274 23.7669C83.9052 23.8636 83.6974 23.912 83.4162 23.912H83.1105C83.0372 23.912 83.0005 23.9483 83.0005 24.0208V24.2021C83.0005 24.2747 83.0372 24.3109 83.1105 24.3109H83.4162C83.6118 24.3109 83.7829 24.2867 83.9541 24.2384C84.113 24.19 84.2597 24.1175 84.382 24.0087C84.5043 23.8999 84.6021 23.7669 84.6632 23.5977C84.7365 23.4284 84.761 23.2108 84.761 22.957C84.761 22.7031 84.6876 22.3646 84.5287 22.2195V22.2074ZM84.3575 23.1262H83.9908C83.9541 23.1262 83.9052 23.1262 83.8563 23.1141C83.8074 23.1141 83.7585 23.0899 83.7096 23.0658C83.6607 23.0416 83.624 23.0053 83.5873 22.957C83.5506 22.9086 83.5384 22.8482 83.5384 22.7877C83.5384 22.7273 83.5751 22.5943 83.6362 22.5097C83.7096 22.425 83.8074 22.3767 83.9419 22.3767C84.0763 22.3767 84.1619 22.425 84.2353 22.5218C84.3086 22.6185 84.3453 22.7635 84.3453 22.957V23.1383L84.3575 23.1262Z" fill="white"/>
<path d="M96.461 30.8511C95.2629 29.7993 93.8203 29.207 92.3409 29.074C93.7836 31.0445 96.5344 33.3414 98.8084 35.0701C98.5516 33.4985 97.7692 31.9874 96.461 30.8511Z" fill="#A52A2A"/>
<path d="M107.562 21.6634L107.501 21.9536C107.501 22.014 107.427 22.0503 107.366 22.0382L107.073 21.9778C107.012 21.9778 106.951 22.0019 106.938 22.0624L106.877 22.3525C106.877 22.413 106.804 22.4492 106.743 22.4371L106.449 22.3767C106.388 22.3767 106.327 22.4009 106.315 22.4613L106.254 22.7514C106.254 22.8119 106.278 22.8723 106.339 22.8844L106.633 22.9449C106.694 22.9449 106.731 23.0174 106.718 23.0779L106.657 23.368C106.657 23.4284 106.682 23.4889 106.743 23.501L107.036 23.5614C107.097 23.5614 107.134 23.6339 107.122 23.6944L107.061 23.9845C107.061 24.045 107.085 24.1054 107.146 24.1175L107.44 24.1779C107.501 24.1779 107.562 24.1538 107.574 24.0933L107.635 23.8032C107.635 23.7427 107.709 23.7065 107.77 23.7186L108.063 23.779C108.124 23.779 108.185 23.7548 108.198 23.6944L108.259 23.4043C108.259 23.3438 108.332 23.3075 108.393 23.3196L108.687 23.3801C108.748 23.3801 108.809 23.3559 108.821 23.2955L108.882 23.0053C108.882 22.9449 108.858 22.8844 108.797 22.8723L108.503 22.8119C108.442 22.8119 108.406 22.7394 108.418 22.6789L108.479 22.3888C108.479 22.3283 108.454 22.2679 108.393 22.2558L108.1 22.1954C108.039 22.1954 108.002 22.1228 108.014 22.0624L108.075 21.7722C108.075 21.7118 108.051 21.6514 107.99 21.6393L107.696 21.5788C107.635 21.5788 107.574 21.603 107.562 21.6634Z" fill="#A52A2A"/>
<path d="M108.014 25.3022C108.149 29.4608 107.317 34.3327 104.065 37.2461C104.457 36.8714 104.811 36.4724 105.129 36.0372C106.706 33.8612 107.33 31.1533 107.513 28.5179C107.586 27.4661 107.586 26.3902 107.489 25.3506L108.027 25.3022H108.014Z" fill="#A52A2A"/>
<path d="M98.7962 35.0701C98.5395 33.4985 97.757 31.9874 96.4489 30.8511C95.2508 29.7993 93.8081 29.207 92.3288 29.074C90.1037 28.8685 87.8175 29.6784 86.2282 31.4434C85.8858 31.8182 85.5802 32.3501 85.299 32.9787C84.2965 35.2031 83.6607 38.6968 83.2695 41.5135C82.9272 44.0643 82.7927 46.0469 82.7927 46.0469C82.7927 46.0469 94.3949 43.9072 97.0479 40.9574C98.5517 39.2892 99.1141 37.1252 98.784 35.0701H98.7962ZM94.884 39.0232C93.3191 40.7761 90.605 40.9333 88.8322 39.3738C87.0595 37.8143 86.9006 35.1426 88.4777 33.3897C90.0548 31.6368 92.7567 31.4797 94.5294 33.0392C96.3022 34.5986 96.4611 37.2703 94.884 39.0232Z" fill="#D4A373"/>
<path d="M99.4075 42.3114L99.1263 42.4081C99.0651 42.4323 99.004 42.4081 98.9918 42.3356L98.894 42.0575C98.8695 41.9971 98.8084 41.9729 98.7595 41.985L98.4783 42.0817C98.4172 42.1059 98.3561 42.0817 98.3438 42.0092L98.246 41.7311C98.2216 41.6707 98.1604 41.6465 98.1115 41.6586L97.8304 41.7553C97.7692 41.7795 97.7448 41.8399 97.757 41.8883L97.8548 42.1663C97.8793 42.2268 97.8548 42.2872 97.7814 42.2993L97.5003 42.396C97.4391 42.4202 97.4147 42.4807 97.4269 42.529L97.5247 42.8071C97.5492 42.8675 97.5247 42.928 97.4513 42.94L97.1702 43.0368C97.109 43.0609 97.0846 43.1214 97.0968 43.1697L97.1946 43.4478C97.2191 43.5082 97.2802 43.5324 97.3291 43.5203L97.6103 43.4236C97.6714 43.3994 97.7325 43.4236 97.7448 43.4961L97.8426 43.7742C97.867 43.8346 97.9282 43.8588 97.9771 43.8467L98.2583 43.75C98.3194 43.7258 98.3805 43.75 98.3927 43.8225L98.4905 44.1006C98.515 44.161 98.5761 44.1852 98.625 44.1731L98.9062 44.0764C98.9673 44.0522 98.9918 43.9918 98.9796 43.9434L98.8818 43.6654C98.8573 43.6049 98.8818 43.5445 98.9551 43.5324L99.2363 43.4357C99.2974 43.4115 99.3219 43.3511 99.3097 43.3027L99.2119 43.0247C99.1874 42.9642 99.2119 42.9038 99.2852 42.8917L99.5664 42.795C99.6275 42.7708 99.652 42.7103 99.6398 42.662L99.542 42.3839C99.5175 42.3235 99.4564 42.2993 99.4075 42.3114Z" fill="#D4A373"/>
<path d="M96.4489 44.5237C92.8789 46.7239 88.1843 48.4405 84.0031 47.1107C84.5288 47.2558 85.0545 47.3525 85.5924 47.413C88.2943 47.6668 90.9717 46.8569 93.368 45.6963C94.3216 45.2249 95.2752 44.6929 96.131 44.0885L96.4366 44.5237H96.4489Z" fill="#D4A373"/>
<path d="M65.6644 33.3051C65.6644 33.3051 73.3422 42.1784 77.2545 42.9642C81.1667 43.7621 85.0056 41.2718 85.8002 37.3912C86.6071 33.5106 84.0886 29.7268 80.1642 28.941C76.2397 28.1431 65.6522 33.3051 65.6522 33.3051H65.6644ZM79.5896 31.8303C81.9125 32.3017 83.404 34.5382 82.9272 36.8351C82.4504 39.132 80.1886 40.6069 77.8657 40.1354C75.5428 39.6639 74.0513 37.4275 74.5281 35.1306C75.0049 32.8337 77.2789 31.3588 79.5896 31.8303Z" fill="#00AEEF"/>
<path d="M77.2423 45.648L77.0222 45.4545C76.9733 45.4183 76.9733 45.3457 77.0222 45.2974L77.2178 45.0798C77.2545 45.0314 77.2545 44.971 77.2178 44.9226L76.9977 44.7292C76.9488 44.6929 76.9488 44.6204 76.9977 44.5721L77.1934 44.3544C77.23 44.3061 77.23 44.2456 77.1934 44.1973L76.9733 44.0039C76.9244 43.9676 76.8633 43.9676 76.8144 44.0039L76.6187 44.2215C76.5821 44.2698 76.5087 44.2698 76.4598 44.2215L76.2397 44.028C76.1908 43.9918 76.1297 43.9918 76.0808 44.028L75.8852 44.2456C75.8485 44.294 75.7752 44.294 75.7263 44.2456L75.5062 44.0522C75.4573 44.016 75.3962 44.016 75.3473 44.0522L75.1517 44.2698C75.115 44.3182 75.115 44.3786 75.1517 44.427L75.3717 44.6204C75.4206 44.6567 75.4206 44.7292 75.3717 44.7776L75.1761 44.9952C75.1394 45.0435 75.1394 45.104 75.1761 45.1523L75.3962 45.3457C75.4451 45.382 75.4451 45.4545 75.3962 45.5029L75.2006 45.7205C75.1639 45.7689 75.1639 45.8293 75.2006 45.8777L75.4206 46.0711C75.4695 46.1074 75.5307 46.1074 75.5796 46.0711L75.7752 45.8535C75.8118 45.8051 75.8852 45.8051 75.9341 45.8535L76.1542 46.0469C76.2031 46.0832 76.2642 46.0832 76.3131 46.0469L76.5087 45.8293C76.5454 45.7809 76.6187 45.7809 76.6676 45.8293L76.8877 46.0227C76.9366 46.059 76.9977 46.059 77.0466 46.0227L77.2423 45.8051C77.2789 45.7568 77.2789 45.6963 77.2423 45.648Z" fill="#00AEEF"/>
<path d="M73.8312 44.2215C70.1146 42.2631 66.2635 39.1078 65.3466 34.8646C65.481 35.3844 65.6522 35.8922 65.8723 36.3757C66.997 38.8177 69.051 40.7036 71.2638 42.1784C72.1563 42.7708 73.0977 43.3027 74.0513 43.7379L73.8312 44.2215Z" fill="#00AEEF"/>
<path d="M68.2562 12.2461C68.2562 12.2461 64.3318 23.2592 65.591 27.0068C66.8503 30.7544 70.9459 32.7853 74.7481 31.5401C78.5503 30.295 80.592 26.2452 79.3328 22.4855C78.0735 18.7258 68.2562 12.2461 68.2562 12.2461ZM76.5086 23.4284C77.2544 25.6528 76.044 28.0464 73.7945 28.7838C71.545 29.5213 69.1243 28.3245 68.3785 26.1001C67.6327 23.8757 68.8431 21.4821 71.0926 20.7447C73.3421 20.0073 75.7628 21.2041 76.5086 23.4284Z" fill="#6B8E23"/>
<path d="M63.2315 28.3366L63.2926 28.0464C63.2926 27.986 63.366 27.9497 63.4271 27.9618L63.7205 28.0222C63.7817 28.0222 63.8428 27.9981 63.855 27.9376L63.9162 27.6475C63.9162 27.587 63.9895 27.5508 64.0506 27.5629L64.3441 27.6233C64.4052 27.6233 64.4663 27.5991 64.4785 27.5387L64.5397 27.2485C64.5397 27.1881 64.5152 27.1277 64.4541 27.1156L64.1607 27.0551C64.0995 27.0551 64.0629 26.9826 64.0751 26.9221L64.1362 26.632C64.1362 26.5716 64.1118 26.5111 64.0506 26.499L63.7572 26.4386C63.6961 26.4386 63.6594 26.3661 63.6716 26.3056L63.7328 26.0155C63.7328 25.955 63.7083 25.8946 63.6472 25.8825L63.3538 25.8221C63.2926 25.8221 63.2315 25.8462 63.2193 25.9067L63.1582 26.1968C63.1582 26.2573 63.0848 26.2935 63.0237 26.2814L62.7303 26.221C62.6691 26.221 62.608 26.2452 62.5958 26.3056L62.5346 26.5957C62.5346 26.6562 62.4613 26.6925 62.4002 26.6804L62.1067 26.6199C62.0456 26.6199 61.9845 26.6441 61.9723 26.7045L61.9111 26.9947C61.9111 27.0551 61.9356 27.1156 61.9967 27.1277L62.2901 27.1881C62.3513 27.1881 62.3879 27.2606 62.3757 27.3211L62.3146 27.6112C62.3146 27.6717 62.339 27.7321 62.4002 27.7442L62.6936 27.8046C62.7547 27.8046 62.7914 27.8772 62.7792 27.9376L62.718 28.2278C62.718 28.2882 62.7425 28.3486 62.8036 28.3607L63.097 28.4212C63.1582 28.4212 63.2193 28.397 63.2315 28.3366Z" fill="#6B8E23"/>
<path d="M62.7792 24.6978C62.6447 20.5392 63.4761 15.6673 66.7281 12.7539C66.3369 13.1286 65.9824 13.5276 65.6645 13.9628C64.0874 16.1388 63.4639 18.8467 63.2805 21.4821C63.2071 22.5338 63.2071 23.6098 63.3049 24.6494L62.767 24.6978H62.7792Z" fill="#6B8E23"/>
<path d="M88.0009 3.95309C88.0009 3.95309 76.3987 6.09284 73.7457 9.04255C71.0927 11.9923 71.3617 16.5256 74.3448 19.1489C77.3401 21.7722 81.9125 21.5063 84.5655 18.5566C87.2185 15.5948 88.0009 3.95309 88.0009 3.95309ZM82.3282 16.6103C80.7511 18.3632 78.0492 18.5203 76.2764 16.9608C74.5037 15.4014 74.3448 12.7297 75.9219 10.9768C77.499 9.22389 80.2009 9.06673 81.9736 10.6262C83.7464 12.1857 83.9053 14.8573 82.3282 16.6103Z" fill="white"/>
<path d="M71.3861 7.68859L71.6673 7.59188C71.7284 7.5677 71.7896 7.59188 71.8018 7.66441L71.8996 7.94246C71.924 8.0029 71.9852 8.02708 72.0341 8.01499L72.3153 7.91828C72.3764 7.8941 72.4375 7.91828 72.4497 7.99081L72.5476 8.26886C72.572 8.3293 72.6331 8.35348 72.682 8.34139L72.9632 8.24468C73.0244 8.2205 73.0488 8.16006 73.0366 8.1117L72.9388 7.83366C72.9143 7.77321 72.9388 7.71277 73.0121 7.70068L73.2933 7.60397C73.3544 7.57979 73.3789 7.51934 73.3667 7.47099L73.2689 7.19294C73.2444 7.1325 73.2689 7.07205 73.3422 7.05996L73.6234 6.96325C73.6845 6.93907 73.709 6.87863 73.6968 6.83027L73.599 6.55222C73.5745 6.49178 73.5134 6.4676 73.4645 6.47969L73.1833 6.5764C73.1222 6.60058 73.061 6.5764 73.0488 6.50387L72.951 6.22582C72.9265 6.16538 72.8654 6.1412 72.8165 6.15329L72.5353 6.25C72.4742 6.27418 72.4131 6.25 72.4008 6.17747L72.303 5.89942C72.2786 5.83898 72.2175 5.8148 72.1685 5.82689L71.8874 5.9236C71.8262 5.94778 71.8018 6.00822 71.814 6.05658L71.9118 6.33462C71.9363 6.39507 71.9118 6.45551 71.8385 6.4676L71.5573 6.56431C71.4961 6.58849 71.4717 6.64894 71.4839 6.69729L71.5817 6.97534C71.6062 7.03578 71.5817 7.09623 71.5084 7.10832L71.2272 7.20503C71.166 7.22921 71.1416 7.28965 71.1538 7.33801L71.2516 7.61605C71.2761 7.6765 71.3372 7.70068 71.3861 7.68859Z" fill="white"/>
<path d="M74.3569 5.4884C77.9268 3.2882 82.6215 1.57157 86.8027 2.90135C86.277 2.75629 85.7513 2.65958 85.2134 2.59913C82.5115 2.34526 79.8341 3.15522 77.4378 4.31576C76.4842 4.78723 75.5306 5.31915 74.6748 5.9236L74.3692 5.4884H74.3569Z" fill="white"/>
<path d="M93.5391 7.03578C91.3262 6.58849 89.1501 7.18085 87.524 8.48646C86.2648 9.48985 85.3478 10.9163 84.9933 12.6088C84.6754 14.1562 84.8833 15.6915 85.4946 17.0213C86.4237 19.028 88.2698 20.5875 90.6171 21.059C91.1184 21.1678 91.7419 21.1678 92.4266 21.0953C93.2824 19.8985 94.5294 18.9555 96.0454 18.4599C97.6958 17.9159 99.4075 18.0005 100.911 18.5687C103.32 17.5895 105.129 16.707 105.129 16.707C105.129 16.707 97.4513 7.83366 93.5391 7.04787V7.03578ZM96.2777 14.8815C95.8009 17.1784 93.5269 18.6533 91.2162 18.1818C88.8933 17.7103 87.4018 15.4618 87.8786 13.177C88.3554 10.8801 90.6171 9.40522 92.94 9.87669C95.2629 10.3482 96.7545 12.5846 96.2777 14.8815Z" fill="#FF8C00"/>
<path d="M105.202 22.9932C104.493 20.8777 102.867 19.3061 100.911 18.5687C99.4074 18.0005 97.6958 17.9159 96.0453 18.4599C94.5293 18.9555 93.2945 19.9105 92.4265 21.0953C91.1306 22.8965 90.6905 25.2539 91.4485 27.5024C91.6074 27.986 91.913 28.5179 92.3165 29.074C93.7958 29.207 95.2384 29.7993 96.4366 30.8511C97.7325 31.9995 98.5272 33.4986 98.7839 35.0701C100.838 36.6417 102.525 37.7539 102.525 37.7539C102.525 37.7539 106.449 26.7408 105.19 22.9932H105.202ZM99.7008 29.2553C97.4513 29.9927 95.0306 28.7959 94.2726 26.5716C93.5268 24.3472 94.7372 21.9536 96.9867 21.2041C99.2362 20.4666 101.657 21.6634 102.415 23.8878C103.161 26.1122 101.95 28.5058 99.7008 29.2553Z" fill="#A52A2A"/>
<path d="M93.5513 4.35203L93.7714 4.54546C93.8203 4.58172 93.8203 4.65426 93.7714 4.70261L93.5758 4.92021C93.5391 4.96857 93.5391 5.02902 93.5758 5.07737L93.7958 5.27079C93.8447 5.30706 93.8447 5.3796 93.7958 5.42795L93.6002 5.64555C93.5635 5.69391 93.5635 5.75435 93.6002 5.80271L93.8203 5.99613C93.8692 6.0324 93.9303 6.0324 93.9792 5.99613L94.1748 5.77853C94.2115 5.73018 94.2849 5.73018 94.3338 5.77853L94.5538 5.97196C94.6027 6.00822 94.6639 6.00822 94.7128 5.97196L94.9084 5.75435C94.945 5.706 95.0184 5.706 95.0673 5.75435L95.2874 5.94778C95.3363 5.98404 95.3974 5.98404 95.4463 5.94778L95.6419 5.73018C95.6786 5.68182 95.6786 5.62137 95.6419 5.57302L95.4218 5.3796C95.3729 5.34333 95.3729 5.27079 95.4218 5.22244L95.6175 5.00484C95.6541 4.95648 95.6541 4.89604 95.6175 4.84768L95.3974 4.65426C95.3485 4.61799 95.3485 4.54546 95.3974 4.4971L95.593 4.2795C95.6297 4.23114 95.6297 4.1707 95.593 4.12234L95.3729 3.92892C95.324 3.89265 95.2629 3.89265 95.214 3.92892L95.0184 4.14652C94.9817 4.19488 94.9084 4.19488 94.8595 4.14652L94.6394 3.9531C94.5905 3.91683 94.5294 3.91683 94.4805 3.9531L94.2849 4.1707C94.2482 4.21905 94.1748 4.21905 94.1259 4.1707L93.9059 3.97727C93.857 3.94101 93.7958 3.94101 93.7469 3.97727L93.5513 4.19488C93.5146 4.24323 93.5146 4.30368 93.5513 4.35203Z" fill="#FF8C00"/>
<path d="M96.9746 5.77853C100.691 7.73695 104.542 10.8922 105.459 15.1354C105.325 14.6156 105.154 14.1078 104.934 13.6243C103.809 11.1823 101.755 9.29642 99.542 7.82157C98.6495 7.22921 97.7081 6.69729 96.7545 6.26209L96.9746 5.77853Z" fill="#FF8C00"/>
</svg>
