<svg width="156" height="68" viewBox="0 0 156 68" fill="none" xmlns="http://www.w3.org/2000/svg">
<path d="M44.8544 18.9889H42.4556C42.2765 18.9889 42.2049 19.0784 42.2049 19.2394V24.6248C42.2049 25.1794 42.2049 25.6267 42.1512 25.9488C42.1154 26.2708 42.0438 26.5392 41.9364 26.7181C41.829 26.897 41.65 27.0223 41.3993 27.0759C41.1487 27.1296 40.8265 27.1654 40.3968 27.1654C39.9672 27.1654 39.3943 27.0402 39.0542 26.7539C38.7141 26.4855 38.5529 26.074 38.5529 25.5194V21.2611C38.5529 21.0822 38.4634 20.9928 38.3023 20.9928H35.9034C35.7244 20.9928 35.6528 21.0822 35.6528 21.2611V25.1794C35.6528 25.6267 35.6349 25.9845 35.5812 26.2529C35.5454 26.5213 35.4559 26.7002 35.3127 26.8433C35.1874 26.9686 35.0083 27.058 34.7756 27.1117C34.5429 27.1475 34.2386 27.1833 33.8626 27.1833C32.6095 27.1833 31.9829 26.6465 31.9829 25.573V21.279C31.9829 21.1001 31.8934 21.0107 31.7323 21.0107H29.3334C29.1544 21.0107 29.0828 21.1001 29.0828 21.279V25.1973C29.0828 25.9488 29.0112 26.4676 28.868 26.736C28.7248 27.0223 28.3846 27.1654 27.8476 27.1654H13.2753H12.8278C12.1654 27.1654 11.6463 27.0223 11.2703 26.7539C10.8944 26.4855 10.6975 26.0919 10.6975 25.5909V23.1577C10.6975 21.5116 10.2678 20.3308 9.42642 19.6151C8.56712 18.8815 7.4214 18.5237 5.97134 18.5237H2.015C1.83598 18.5237 1.74647 18.6132 1.74647 18.7921V20.8675C1.74647 21.0464 1.83598 21.1359 2.015 21.1359H5.12995C6.00714 21.1359 6.66952 21.3148 7.11706 21.6726C7.56461 22.0305 7.77944 22.6209 7.77944 23.4081V25.1436C7.77944 25.5194 7.76154 25.8414 7.70783 26.1098C7.67203 26.3603 7.56461 26.575 7.4214 26.736C7.27818 26.897 7.06336 27.0223 6.77693 27.0938C6.4905 27.1654 6.13246 27.2012 5.667 27.2012H0.833471C0.654451 27.2012 0.564941 27.2906 0.564941 27.4696V29.545C0.564941 29.7239 0.654451 29.8134 0.833471 29.8134H6.65161C7.52881 29.8134 8.26279 29.706 8.81775 29.5092C9.37271 29.3124 9.82026 28.9188 10.1425 28.3105C10.4289 28.9188 10.8407 29.3303 11.3777 29.5271C11.9148 29.7239 12.5414 29.8134 13.2574 29.8134H28.7068C29.4945 29.8134 30.1211 29.706 30.5866 29.4913C31.0341 29.2766 31.3921 28.9188 31.6249 28.4178C32.0724 29.3482 32.9138 29.8134 34.1491 29.8134H35.2948C36.0825 29.8134 36.6911 29.706 37.1566 29.5092C37.622 29.3124 37.9622 28.9546 38.2128 28.4536C38.4455 28.883 38.7678 29.2229 39.1795 29.4734C39.5912 29.7239 40.1283 29.8313 40.7191 29.8313H41.829C43.0105 29.8313 43.8519 29.5808 44.3353 29.0977C44.8365 28.5967 45.0693 27.7558 45.0693 26.5571V19.3109C45.0693 19.132 44.9797 19.0426 44.8186 19.0426L44.8544 18.9889Z" fill="#076871"/>
<path d="M73.2291 19.8298C72.7458 19.3825 72.1908 19.0426 71.5285 18.8458C70.8661 18.6311 70.15 18.5416 69.3981 18.5416C68.6462 18.5416 67.9302 18.6489 67.2857 18.8458C66.6412 19.0426 66.0862 19.3646 65.6029 19.8119C65.1195 20.2592 64.7436 20.8317 64.4751 21.5295C64.2065 22.2273 64.0633 23.0861 64.0454 24.088V24.4816C64.0454 24.6069 64.0454 24.7321 64.0633 24.8753C64.0633 25.3225 64.0096 25.6983 63.9022 26.0024C63.7948 26.3066 63.6695 26.5392 63.5084 26.736C63.3472 26.9149 63.1861 27.0401 62.9892 27.1296C62.7923 27.2012 62.6133 27.2548 62.4163 27.2548H55.166H54.7185C54.0561 27.2548 53.537 27.1117 53.1431 26.8433C52.7493 26.575 52.5524 26.1635 52.5524 25.6446V19.3288C52.5524 19.1499 52.4628 19.0783 52.3017 19.0783H49.9029C49.7238 19.0783 49.6522 19.1678 49.6522 19.3467V28.6325C49.6522 29.2587 49.6522 29.8134 49.6164 30.2785C49.5985 30.7616 49.509 31.1552 49.3837 31.4952C49.2584 31.8351 49.0436 32.0856 48.775 32.2645C48.4886 32.4434 48.1127 32.5329 47.6114 32.5329H47.0385C46.8595 32.5329 46.77 32.6224 46.77 32.8013V34.8767C46.77 35.0556 46.8595 35.1451 47.0385 35.1451H48.0053C48.8645 35.1451 49.5985 35.0198 50.1893 34.7872C50.7801 34.5547 51.2455 34.1968 51.6036 33.7316C51.9616 33.2665 52.2122 32.676 52.3554 31.9782C52.5166 31.2805 52.5882 30.4575 52.5882 29.5092V29.0082C52.8746 29.384 53.2505 29.6165 53.6623 29.7239C54.0919 29.8312 54.5932 29.8849 55.1839 29.8849H62.3447C62.5954 29.8849 62.846 29.8849 63.1324 29.8312C63.401 29.7955 63.6695 29.7239 63.938 29.6344C64.2065 29.545 64.4572 29.4018 64.6899 29.2229C64.9405 29.044 65.1374 28.8114 65.3165 28.543C65.7819 29.0798 66.3727 29.4734 67.0709 29.706C67.769 29.9386 68.5388 30.0638 69.416 30.0638C70.2932 30.0638 70.9377 29.9565 71.6001 29.7597C72.2624 29.545 72.8174 29.2229 73.3007 28.7756C73.7841 28.3283 74.1421 27.7379 74.3928 27.0401C74.6434 26.3424 74.7866 25.4657 74.7866 24.4458C74.7866 23.426 74.6434 22.4957 74.3749 21.7442C74.1063 20.9928 73.7304 20.4023 73.247 19.955L73.2291 19.8298ZM71.242 26.6286C70.8482 27.1117 70.2216 27.3622 69.3802 27.3622C68.5388 27.3622 67.9481 27.1296 67.5363 26.6465C67.1425 26.1635 66.9455 25.3762 66.9455 24.2669C66.9455 23.1576 67.1425 22.4778 67.5363 21.941C67.9302 21.4043 68.5388 21.1359 69.3802 21.1359C71.0272 21.1359 71.8328 22.1736 71.8328 24.2669C71.8328 26.3603 71.6359 26.1456 71.242 26.6286Z" fill="#076871"/>
<path d="M2.19401 40.5305C2.19401 40.3873 2.26561 40.3158 2.40883 40.3158H3.80518C3.9842 40.3158 4.09162 40.3873 4.14532 40.5305L8.53131 50.3888H8.60291L12.8994 40.5305C12.9531 40.3873 13.0784 40.3158 13.2395 40.3158H14.6359C14.7791 40.3158 14.8507 40.3873 14.8507 40.5305V54.7365C14.8507 54.8796 14.7791 54.9512 14.6359 54.9512H13.2574C13.1142 54.9512 13.0426 54.8796 13.0426 54.7365V44.5561H12.971L9.3369 52.6073C9.26529 52.7863 9.13997 52.8578 8.94305 52.8578H8.08376C7.88684 52.8578 7.74362 52.7684 7.67201 52.6073L4.03791 44.5561H3.9663V54.7365C3.9663 54.8796 3.89469 54.9512 3.75148 54.9512H2.37303C2.22981 54.9512 2.1582 54.8796 2.1582 54.7365V40.5305H2.19401Z" fill="#076871"/>
<path d="M24.8937 54.9512C24.7505 54.9512 24.6789 54.8796 24.6789 54.7365V53.7703H24.661C24.3925 54.1997 24.0166 54.5396 23.5511 54.808C23.0856 55.0585 22.5128 55.2016 21.8325 55.2016C20.7047 55.2016 19.8275 54.8438 19.2009 54.1281C18.5744 53.4125 18.27 52.4821 18.27 51.3013V44.8602C18.27 44.7171 18.3416 44.6455 18.4848 44.6455H19.8633C20.0065 44.6455 20.0781 44.7171 20.0781 44.8602V50.854C20.0781 51.6949 20.2571 52.3569 20.6331 52.8042C21.009 53.2693 21.5819 53.484 22.3517 53.484C23.1215 53.484 23.6227 53.2514 24.0345 52.8042C24.4641 52.339 24.661 51.7307 24.661 50.9613V44.8424C24.661 44.6992 24.7326 44.6277 24.8758 44.6277H26.2543C26.3975 44.6277 26.4691 44.6992 26.4691 44.8424V54.7186C26.4691 54.8617 26.3975 54.9333 26.2543 54.9333H24.8758L24.8937 54.9512Z" fill="#076871"/>
<path d="M30.2285 54.9512C30.0853 54.9512 30.0137 54.8796 30.0137 54.7365V44.8603C30.0137 44.7171 30.0853 44.6456 30.2285 44.6456H31.6069C31.7502 44.6456 31.8218 44.7171 31.8218 44.8603V45.9159H31.8397C32.0724 45.4686 32.4125 45.1107 32.8601 44.8245C33.3076 44.5382 33.8805 44.413 34.5787 44.413C35.2769 44.413 35.3843 44.4845 35.7602 44.6098C36.1182 44.7529 36.4405 44.9318 36.6911 45.1823C36.7985 45.2897 36.7985 45.3791 36.7269 45.4865L35.9392 46.5421C35.8497 46.6494 35.7602 46.6673 35.6349 46.5779C35.3843 46.4168 35.1336 46.2916 34.883 46.22C34.6324 46.1306 34.346 46.0948 34.0416 46.0948C33.2539 46.0948 32.6811 46.3632 32.3409 46.9178C32.0008 47.4724 31.8218 48.206 31.8218 49.1006V54.7365C31.8218 54.8796 31.7502 54.9512 31.6069 54.9512H30.2285Z" fill="#076871"/>
<path d="M42.2228 55.1837C41.7216 55.1837 41.2561 55.1301 40.8265 55.0406C40.3968 54.9512 40.003 54.8259 39.6449 54.6828C39.2869 54.5396 38.9826 54.3607 38.6961 54.1818C38.4097 54.0029 38.177 53.824 37.9622 53.6272C37.8547 53.5198 37.8547 53.4304 37.9622 53.323L38.8393 52.3748C38.9468 52.2674 39.0363 52.2674 39.1437 52.3748C39.5375 52.6968 40.003 52.9831 40.5579 53.2157C41.1129 53.4483 41.7037 53.5556 42.3302 53.5556C42.9568 53.5556 43.655 53.4125 44.0309 53.1083C44.4069 52.822 44.5859 52.4463 44.5859 51.9811C44.5859 51.5159 44.4606 51.2655 44.192 51.015C43.9235 50.7824 43.3865 50.6214 42.5809 50.5319L41.4888 50.4246C40.4684 50.3172 39.6986 50.013 39.1795 49.5121C38.6603 49.029 38.4097 48.3491 38.4097 47.5082C38.4097 46.6673 38.7498 45.7548 39.4122 45.2002C40.0746 44.6455 41.0234 44.3772 42.2407 44.3772C43.4581 44.3772 43.6908 44.4845 44.3174 44.6992C44.9439 44.9139 45.4631 45.1823 45.8927 45.5222C46.0001 45.5938 46.018 45.7012 45.9285 45.8264L45.1945 46.7568C45.105 46.8641 45.0155 46.8641 44.8902 46.7925C44.568 46.5778 44.1562 46.381 43.655 46.22C43.1537 46.0411 42.6525 45.9695 42.1154 45.9695C41.5784 45.9695 40.9876 46.0948 40.6474 46.3631C40.3073 46.6315 40.1462 46.9715 40.1462 47.383C40.1462 47.7945 40.2894 48.1165 40.5758 48.3491C40.8623 48.5638 41.3993 48.7248 42.1691 48.7964L43.2432 48.9038C44.2994 49.0111 45.0692 49.2974 45.5884 49.8162C46.1076 50.3172 46.3582 50.9792 46.3582 51.8201C46.3582 52.661 46.0001 53.663 45.2841 54.2713C44.568 54.8796 43.5297 55.2016 42.187 55.2016L42.2228 55.1837Z" fill="#076871"/>
<path d="M55.9178 54.9512C55.7746 54.9512 55.703 54.8796 55.703 54.7365V48.707C55.703 47.8839 55.5061 47.2219 55.1301 46.7747C54.7542 46.3095 54.1634 46.0948 53.3937 46.0948C52.6239 46.0948 52.1226 46.3274 51.6751 46.7747C51.2454 47.2219 51.0127 47.8482 51.0127 48.6175V54.7543C51.0127 54.8975 50.9411 54.969 50.7979 54.969H49.4194C49.2762 54.969 49.2046 54.8975 49.2046 54.7543V40.5483C49.2046 40.4052 49.2762 40.3336 49.4194 40.3336H50.7979C50.9411 40.3336 51.0127 40.4052 51.0127 40.5483V45.8264H51.0306C51.2812 45.4328 51.6393 45.0928 52.1226 44.8245C52.606 44.5561 53.1967 44.4308 53.9128 44.4308C55.0406 44.4308 55.8999 44.7887 56.5444 45.4865C57.171 46.1842 57.4932 47.1325 57.4932 48.3133V54.7722C57.4932 54.9154 57.4216 54.9869 57.2784 54.9869H55.8999L55.9178 54.9512Z" fill="#076871"/>
<path d="M61.0915 42.3196C60.9483 42.3196 60.8767 42.2481 60.8767 42.1049V40.5305C60.8767 40.3873 60.9483 40.3158 61.0915 40.3158H62.5595C62.7027 40.3158 62.7743 40.3873 62.7743 40.5305V42.1049C62.7743 42.2481 62.7027 42.3196 62.5595 42.3196H61.0915ZM61.1452 54.9512C61.002 54.9512 60.9304 54.8796 60.9304 54.7365V44.8603C60.9304 44.7171 61.002 44.6455 61.1452 44.6455H62.5237C62.6669 44.6455 62.7385 44.7171 62.7385 44.8603V54.7365C62.7385 54.8796 62.6669 54.9512 62.5237 54.9512H61.1452Z" fill="#076871"/>
<path d="M72.7278 54.9512C72.5846 54.9512 72.5129 54.8796 72.5129 54.7365V53.7524H72.495C72.2444 54.1639 71.9043 54.5039 71.4209 54.7901C70.9555 55.0585 70.3289 55.2016 69.5591 55.2016C68.7893 55.2016 67.8942 54.9869 67.3035 54.5754C66.6948 54.1639 66.2652 53.5377 66.0145 52.7326C65.8713 52.3211 65.7818 51.8917 65.7281 51.4444C65.6744 50.9971 65.6565 50.4603 65.6565 49.8162C65.6565 49.1721 65.6744 48.6354 65.7281 48.1881C65.7818 47.7587 65.8713 47.3293 66.0145 46.8999C66.2652 46.0769 66.6948 45.4686 67.3035 45.0571C67.9121 44.6455 68.664 44.4308 69.5591 44.4308C70.4542 44.4308 70.9555 44.5561 71.4209 44.8245C71.8864 45.0928 72.2444 45.4328 72.495 45.8443H72.5129V40.5483C72.5129 40.4052 72.5846 40.3336 72.7278 40.3336H74.1062C74.2494 40.3336 74.321 40.4052 74.321 40.5483V54.7543C74.321 54.8975 74.2494 54.969 74.1062 54.969H72.7278V54.9512ZM69.9888 53.5019C71.1703 53.5019 71.9222 52.9831 72.2623 51.9275C72.3518 51.677 72.4055 51.3907 72.4413 51.0508C72.4771 50.7108 72.495 50.2814 72.495 49.7626C72.495 49.2437 72.4771 48.8322 72.4413 48.4923C72.4055 48.1702 72.3518 47.866 72.2623 47.6156C71.9222 46.5778 71.1524 46.059 69.9888 46.059C68.8251 46.059 68.0912 46.5778 67.7331 47.6156C67.6436 47.9018 67.5899 48.2239 67.5541 48.5638C67.5183 48.9038 67.5004 49.3153 67.5004 49.7626C67.5004 50.2099 67.5004 50.6393 67.5541 50.9971C67.5899 51.337 67.6436 51.6591 67.7331 51.9275C68.0912 52.9831 68.843 53.5019 69.9888 53.5019Z" fill="#076871"/>
<path d="M69.3622 13.2457C69.0758 12.9594 68.7177 12.8163 68.306 12.8163C67.8942 12.8163 67.5362 12.9594 67.2677 13.2457C66.9812 13.5319 66.8559 13.8898 66.8559 14.3013C66.8559 14.7128 66.9812 15.0348 67.2319 15.2853C67.4825 15.5179 67.8405 15.6431 68.306 15.6431H68.9147C68.8431 15.7863 68.6998 15.9473 68.485 16.1262C68.2702 16.3051 67.8942 16.3946 67.3572 16.3946H66.7843C66.659 16.3946 66.5874 16.4662 66.5874 16.5914V16.9313C66.5874 17.0566 66.659 17.1281 66.7843 17.1281H67.3572C67.7152 17.1281 68.0375 17.0924 68.3418 17.0029C68.6461 16.9134 68.8968 16.7703 69.1295 16.5914C69.3443 16.3946 69.5233 16.1441 69.6486 15.8221C69.774 15.5 69.8277 15.1064 69.8277 14.6412C69.8277 14.176 69.6844 13.5498 69.398 13.2635L69.3622 13.2457ZM69.0579 14.9454H68.3955C68.3239 14.9454 68.2344 14.9454 68.1449 14.9096C68.0554 14.8917 67.9659 14.8559 67.8763 14.8201C67.7868 14.7664 67.7152 14.7128 67.6615 14.6233C67.6078 14.5339 67.572 14.4265 67.572 14.3013C67.572 14.176 67.6257 13.9434 67.751 13.7824C67.8763 13.6214 68.0554 13.5319 68.306 13.5319C68.5566 13.5319 68.6998 13.6214 68.8431 13.8003C68.9863 13.9792 69.04 14.2476 69.04 14.6054V14.9454H69.0579Z" fill="#076871"/>
<path d="M34.3103 18.9531H36.4943C36.6733 18.9531 36.7628 18.8636 36.7628 18.6847V16.4304C36.7628 16.2514 36.6733 16.162 36.4943 16.162H34.3103C34.1313 16.162 34.0417 16.2514 34.0417 16.4304V18.6847C34.0417 18.8636 34.1313 18.9531 34.3103 18.9531Z" fill="#076871"/>
<path d="M37.4253 16.4304V18.6847C37.4253 18.8636 37.5148 18.9531 37.6938 18.9531H39.8779C40.0569 18.9531 40.1464 18.8636 40.1464 18.6847V16.4304C40.1464 16.2514 40.0569 16.162 39.8779 16.162H37.6938C37.5148 16.162 37.4253 16.2514 37.4253 16.4304Z" fill="#076871"/>
<path d="M35.9751 15.6074H38.1591C38.3381 15.6074 38.4276 15.5179 38.4276 15.339V13.0846C38.4276 12.9057 38.3381 12.8163 38.1591 12.8163H35.9751C35.7961 12.8163 35.7065 12.9057 35.7065 13.0846V15.339C35.7065 15.5179 35.7961 15.6074 35.9751 15.6074Z" fill="#076871"/>
<path d="M116.498 38.3655H118.718C118.843 38.3655 118.986 38.3655 119.148 38.3298C119.309 38.3119 119.452 38.2761 119.595 38.2224C119.738 38.1687 119.882 38.0972 120.007 37.9898C120.15 37.9004 120.257 37.7751 120.347 37.6141C120.598 37.9183 120.92 38.133 121.314 38.2582C121.69 38.3834 122.119 38.455 122.603 38.455C123.086 38.455 123.444 38.4013 123.802 38.2761C124.16 38.1687 124.482 37.9719 124.733 37.7393C124.984 37.5067 125.198 37.1668 125.342 36.7732C125.485 36.3796 125.556 35.8965 125.556 35.3419C125.556 34.7872 125.485 34.2684 125.342 33.8568C125.198 33.4453 124.984 33.1233 124.715 32.8728C124.447 32.6223 124.142 32.4434 123.766 32.3361C123.39 32.2287 123.014 32.1571 122.585 32.1571C122.155 32.1571 121.779 32.2108 121.421 32.3182C121.063 32.4255 120.759 32.6044 120.49 32.8549C120.222 33.1054 120.025 33.4096 119.864 33.8032C119.72 34.1968 119.631 34.662 119.631 35.2166V35.4313C119.631 35.5029 119.631 35.5744 119.631 35.646C119.631 35.8965 119.595 36.0933 119.541 36.2722C119.488 36.4332 119.416 36.5764 119.327 36.6658C119.237 36.7732 119.148 36.8448 119.04 36.8805C118.933 36.9163 118.825 36.9521 118.718 36.9521H116.444V38.3834L116.498 38.3655ZM123.659 36.6301C123.444 36.8984 123.104 37.0416 122.638 37.0416C122.173 37.0416 121.851 36.9163 121.618 36.6479C121.403 36.3796 121.296 35.9502 121.296 35.3419C121.296 34.7335 121.403 34.3578 121.618 34.0537C121.833 33.7674 122.173 33.6064 122.638 33.6064C123.551 33.6064 123.999 34.1789 123.999 35.3419C123.999 36.5048 123.892 36.3796 123.677 36.6479L123.659 36.6301Z" fill="#076871"/>
<path d="M119.774 29.867C119.541 29.6523 119.273 29.5271 118.933 29.5271C118.593 29.5271 118.324 29.6344 118.091 29.867C117.877 30.0996 117.751 30.368 117.751 30.7079C117.751 31.0479 117.859 31.2983 118.056 31.4952C118.252 31.6741 118.539 31.7814 118.897 31.7814H119.38C119.327 31.8888 119.219 32.0319 119.04 32.175C118.861 32.3182 118.557 32.3897 118.145 32.3897H117.697C117.59 32.3897 117.536 32.4434 117.536 32.5508V32.8191C117.536 32.9265 117.59 32.9802 117.697 32.9802H118.145C118.431 32.9802 118.682 32.9444 118.933 32.8728C119.165 32.8012 119.38 32.6939 119.559 32.5329C119.738 32.3718 119.882 32.175 119.971 31.9246C120.078 31.6741 120.114 31.352 120.114 30.9763C120.114 30.6006 120.007 30.0996 119.774 29.8849V29.867ZM119.523 31.2268H118.986C118.933 31.2268 118.861 31.2268 118.79 31.2089C118.718 31.2089 118.646 31.1731 118.575 31.1373C118.503 31.1015 118.449 31.0479 118.396 30.9763C118.342 30.9047 118.324 30.8153 118.324 30.7258C118.324 30.6364 118.378 30.4395 118.467 30.3143C118.575 30.1891 118.718 30.1175 118.915 30.1175C119.112 30.1175 119.237 30.1891 119.344 30.3322C119.452 30.4753 119.506 30.69 119.506 30.9763V31.2447L119.523 31.2268Z" fill="#076871"/>
<path d="M137.247 42.6596C135.492 41.103 133.38 40.2263 131.214 40.0295C133.326 42.9458 137.354 46.3452 140.684 48.9038C140.308 46.5778 139.162 44.3414 137.247 42.6596Z" fill="#A52A2A"/>
<path d="M153.502 29.0619L153.412 29.4913C153.412 29.5807 153.305 29.6344 153.215 29.6165L152.786 29.5271C152.696 29.5271 152.607 29.5629 152.589 29.6523L152.499 30.0817C152.499 30.1712 152.392 30.2248 152.302 30.207L151.873 30.1175C151.783 30.1175 151.694 30.1533 151.676 30.2427L151.586 30.6721C151.586 30.7616 151.622 30.8511 151.711 30.8689L152.141 30.9584C152.231 30.9584 152.284 31.0658 152.266 31.1552L152.177 31.5846C152.177 31.6741 152.213 31.7635 152.302 31.7814L152.732 31.8709C152.821 31.8709 152.875 31.9782 152.857 32.0677L152.768 32.4971C152.768 32.5865 152.804 32.676 152.893 32.6939L153.323 32.7834C153.412 32.7834 153.502 32.7476 153.52 32.6581L153.609 32.2287C153.609 32.1393 153.717 32.0856 153.806 32.1035L154.236 32.1929C154.325 32.1929 154.415 32.1571 154.433 32.0677L154.522 31.6383C154.522 31.5488 154.63 31.4952 154.719 31.513L155.149 31.6025C155.238 31.6025 155.328 31.5667 155.346 31.4773L155.435 31.0479C155.435 30.9584 155.399 30.8689 155.31 30.8511L154.88 30.7616C154.791 30.7616 154.737 30.6542 154.755 30.5648L154.844 30.1354C154.844 30.0459 154.809 29.9565 154.719 29.9386L154.289 29.8491C154.2 29.8491 154.146 29.7418 154.164 29.6523L154.254 29.2229C154.254 29.1335 154.218 29.044 154.128 29.0261L153.699 28.9366C153.609 28.9366 153.52 28.9724 153.502 29.0619Z" fill="#A52A2A"/>
<path d="M154.164 34.4473C154.361 40.602 153.144 47.8124 148.382 52.1243C148.954 51.5696 149.474 50.9792 149.939 50.3351C152.248 47.1146 153.161 43.1069 153.43 39.2065C153.537 37.6499 153.537 36.0575 153.394 34.5189L154.182 34.4473H154.164Z" fill="#A52A2A"/>
<path d="M140.666 48.9038C140.29 46.5779 139.144 44.3414 137.229 42.6596C135.474 41.103 133.362 40.2263 131.196 40.0295C127.938 39.7253 124.59 40.9241 122.263 43.5363C121.761 44.0909 121.314 44.8781 120.902 45.8085C119.434 49.1006 118.503 54.2713 117.93 58.44C117.429 62.2152 117.232 65.1494 117.232 65.1494C117.232 65.1494 134.221 61.9826 138.106 57.617C140.308 55.148 141.131 51.9454 140.648 48.9038H140.666ZM134.937 54.7544C132.646 57.3487 128.672 57.5812 126.076 55.2732C123.48 52.9652 123.247 49.0111 125.557 46.4168C127.866 43.8225 131.822 43.5899 134.418 45.898C137.014 48.206 137.247 52.1601 134.937 54.7544Z" fill="#D4A373"/>
<path d="M141.561 59.6209L141.149 59.764C141.06 59.7998 140.97 59.764 140.952 59.6567L140.809 59.2452C140.773 59.1557 140.684 59.1199 140.612 59.1378L140.2 59.281C140.111 59.3167 140.021 59.2809 140.004 59.1736L139.86 58.7621C139.825 58.6726 139.735 58.6368 139.663 58.6547L139.252 58.7979C139.162 58.8337 139.126 58.9231 139.144 58.9947L139.287 59.4062C139.323 59.4956 139.287 59.5851 139.18 59.603L138.768 59.7461C138.679 59.7819 138.643 59.8714 138.661 59.9429L138.804 60.3545C138.84 60.4439 138.804 60.5334 138.697 60.5513L138.285 60.6944C138.195 60.7302 138.16 60.8196 138.178 60.8912L138.321 61.3027C138.357 61.3922 138.446 61.428 138.518 61.4101L138.929 61.2669C139.019 61.2311 139.108 61.2669 139.126 61.3743L139.27 61.7858C139.305 61.8752 139.395 61.911 139.467 61.8931L139.878 61.75C139.968 61.7142 140.057 61.75 140.075 61.8574L140.218 62.2689C140.254 62.3583 140.344 62.3941 140.415 62.3762L140.827 62.2331C140.917 62.1973 140.952 62.1078 140.934 62.0363L140.791 61.6248C140.755 61.5353 140.791 61.4458 140.899 61.428L141.31 61.2848C141.4 61.249 141.436 61.1596 141.418 61.088L141.275 60.6765C141.239 60.587 141.275 60.4976 141.382 60.4797L141.794 60.3366C141.883 60.3008 141.919 60.2113 141.901 60.1397L141.758 59.7282C141.722 59.6388 141.633 59.603 141.561 59.6209Z" fill="#D4A373"/>
<path d="M137.229 62.8951C132.001 66.1514 125.127 68.692 119.004 66.7239C119.774 66.9386 120.544 67.0817 121.332 67.1712C125.288 67.5469 129.209 66.3482 132.717 64.6306C134.114 63.9328 135.51 63.1456 136.763 62.251L137.211 62.8951H137.229Z" fill="#D4A373"/>
<path d="M92.1514 46.2916C92.1514 46.2916 103.394 59.4241 109.123 60.587C114.851 61.7679 120.472 58.0822 121.636 52.339C122.818 46.5957 119.13 40.9956 113.383 39.8327C107.637 38.6518 92.1335 46.2916 92.1335 46.2916H92.1514ZM112.542 44.1088C115.943 44.8066 118.127 48.1165 117.429 51.516C116.731 54.9154 113.419 57.0982 110.018 56.4004C106.616 55.7026 104.432 52.3926 105.13 48.9932C105.829 45.5938 109.158 43.411 112.542 44.1088Z" fill="#00AEEF"/>
<path d="M109.105 64.559L108.782 64.2727C108.711 64.219 108.711 64.1117 108.782 64.0401L109.069 63.7181C109.123 63.6465 109.123 63.557 109.069 63.4855L108.747 63.1992C108.675 63.1455 108.675 63.0382 108.747 62.9666L109.033 62.6446C109.087 62.573 109.087 62.4835 109.033 62.412L108.711 62.1257C108.639 62.072 108.55 62.072 108.478 62.1257L108.192 62.4478C108.138 62.5193 108.031 62.5193 107.959 62.4478L107.637 62.1615C107.565 62.1078 107.476 62.1078 107.404 62.1615L107.118 62.4835C107.064 62.5551 106.956 62.5551 106.885 62.4835L106.563 62.1973C106.491 62.1436 106.401 62.1436 106.33 62.1973L106.043 62.5193C105.99 62.5909 105.99 62.6803 106.043 62.7519L106.366 63.0382C106.437 63.0919 106.437 63.1992 106.366 63.2708L106.079 63.5928C106.026 63.6644 106.026 63.7538 106.079 63.8254L106.401 64.1117C106.473 64.1654 106.473 64.2727 106.401 64.3443L106.115 64.6663C106.061 64.7379 106.061 64.8273 106.115 64.8989L106.437 65.1852C106.509 65.2389 106.598 65.2389 106.67 65.1852L106.956 64.8631C107.01 64.7916 107.118 64.7916 107.189 64.8631L107.511 65.1494C107.583 65.2031 107.673 65.2031 107.744 65.1494L108.031 64.8274C108.084 64.7558 108.192 64.7558 108.263 64.8274L108.586 65.1136C108.657 65.1673 108.747 65.1673 108.818 65.1136L109.105 64.7916C109.158 64.72 109.158 64.6305 109.105 64.559Z" fill="#00AEEF"/>
<path d="M104.11 62.4478C98.6678 59.5493 93.0287 54.8796 91.686 48.5996C91.883 49.369 92.1336 50.1204 92.4558 50.8361C94.1028 54.4502 97.1103 57.2413 100.351 59.4241C101.657 60.3008 103.036 61.088 104.432 61.7321L104.11 62.4478Z" fill="#00AEEF"/>
<path d="M95.9466 15.1243C95.9466 15.1243 90.2001 31.4236 92.044 36.97C93.8879 42.5164 99.885 45.5222 105.453 43.6794C111.02 41.8365 114.01 35.8428 112.166 30.2785C110.322 24.7142 95.9466 15.1243 95.9466 15.1243ZM108.03 31.6741C109.122 34.9661 107.35 38.5087 104.056 39.6001C100.762 40.6915 97.2176 38.9202 96.1256 35.6281C95.0336 32.3361 96.8059 28.7935 100.1 27.7021C103.394 26.6107 106.938 28.382 108.03 31.6741Z" fill="#6B8E23"/>
<path d="M88.5889 38.9381L88.6784 38.5087C88.6784 38.4192 88.7859 38.3655 88.8754 38.3834L89.305 38.4729C89.3945 38.4729 89.484 38.4371 89.5019 38.3477L89.5914 37.9183C89.5914 37.8288 89.6989 37.7751 89.7884 37.793L90.218 37.8825C90.3075 37.8825 90.397 37.8467 90.4149 37.7572L90.5044 37.3278C90.5044 37.2384 90.4686 37.1489 90.3791 37.131L89.9495 37.0416C89.86 37.0416 89.8063 36.9342 89.8242 36.8448L89.9137 36.4154C89.9137 36.3259 89.8779 36.2364 89.7884 36.2185L89.3587 36.1291C89.2692 36.1291 89.2155 36.0217 89.2334 35.9323L89.3229 35.5029C89.3229 35.4134 89.2871 35.324 89.1976 35.3061L88.768 35.2166C88.6784 35.2166 88.5889 35.2524 88.571 35.3419L88.4815 35.7713C88.4815 35.8607 88.3741 35.9144 88.2846 35.8965L87.8549 35.807C87.7654 35.807 87.6759 35.8428 87.658 35.9323L87.5685 36.3617C87.5685 36.4511 87.4611 36.5048 87.3716 36.4869L86.942 36.3975C86.8524 36.3975 86.7629 36.4332 86.745 36.5227L86.6555 36.9521C86.6555 37.0416 86.6913 37.131 86.7808 37.1489L87.2105 37.2384C87.3 37.2384 87.3537 37.3457 87.3358 37.4352L87.2463 37.8646C87.2463 37.954 87.2821 38.0435 87.3716 38.0614L87.8012 38.1508C87.8908 38.1508 87.9445 38.2582 87.9266 38.3477L87.837 38.7771C87.837 38.8665 87.8729 38.956 87.9624 38.9739L88.392 39.0633C88.4815 39.0633 88.571 39.0275 88.5889 38.9381Z" fill="#6B8E23"/>
<path d="M87.9266 33.5527C87.7297 27.398 88.947 20.1876 93.709 15.8757C93.1361 16.4304 92.6169 17.0208 92.1515 17.6649C89.8421 20.8854 88.9291 24.8931 88.6606 28.7935C88.5532 30.3501 88.5532 31.9425 88.6964 33.4811L87.9087 33.5527H87.9266Z" fill="#6B8E23"/>
<path d="M124.858 2.85059C124.858 2.85059 107.869 6.01741 103.985 10.383C100.1 14.7486 100.494 21.4579 104.862 25.3404C109.248 29.2229 115.943 28.8293 119.828 24.4637C123.713 20.0803 124.858 2.85059 124.858 2.85059ZM116.552 21.5832C114.242 24.1775 110.286 24.4101 107.69 22.102C105.095 19.794 104.862 15.8399 107.171 13.2457C109.481 10.6514 113.437 10.4188 116.033 12.7268C118.628 15.0348 118.861 18.9889 116.552 21.5832Z" fill="#076871"/>
<path d="M100.529 8.37912L100.941 8.23598C101.031 8.2002 101.12 8.23598 101.138 8.34333L101.281 8.75484C101.317 8.8443 101.407 8.88008 101.478 8.86219L101.89 8.71906C101.979 8.68327 102.069 8.71906 102.087 8.82641L102.23 9.23792C102.266 9.32737 102.355 9.36316 102.427 9.34527L102.839 9.20213C102.928 9.16635 102.964 9.07689 102.946 9.00532L102.803 8.59382C102.767 8.50436 102.803 8.4149 102.91 8.39701L103.322 8.25387C103.412 8.21809 103.447 8.12863 103.43 8.05707L103.286 7.64556C103.251 7.5561 103.286 7.46664 103.394 7.44875L103.805 7.30561C103.895 7.26983 103.931 7.18037 103.913 7.10881L103.77 6.6973C103.734 6.60784 103.644 6.57206 103.573 6.58995L103.161 6.73308C103.072 6.76886 102.982 6.73308 102.964 6.62573L102.821 6.21422C102.785 6.12476 102.696 6.08898 102.624 6.10687L102.212 6.25001C102.123 6.28579 102.033 6.25001 102.015 6.14266L101.872 5.73115C101.836 5.64169 101.747 5.6059 101.675 5.6238L101.263 5.76693C101.174 5.80271 101.138 5.89217 101.156 5.96374L101.299 6.37525C101.335 6.46471 101.299 6.55416 101.192 6.57206L100.78 6.71519C100.691 6.75097 100.655 6.84043 100.673 6.912L100.816 7.32351C100.852 7.41297 100.816 7.50242 100.708 7.52031L100.297 7.66345C100.207 7.69923 100.171 7.78869 100.189 7.86026L100.333 8.27177C100.368 8.36122 100.458 8.39701 100.529 8.37912Z" fill="#076871"/>
<path d="M104.88 5.12282C110.107 1.86654 116.981 -0.674082 123.104 1.294C122.334 1.0793 121.564 0.936169 120.777 0.846711C116.82 0.470985 112.9 1.66973 109.391 3.38733C107.995 4.08511 106.598 4.87234 105.345 5.76692L104.898 5.12282H104.88Z" fill="#076871"/>
<path d="M132.968 7.41295C129.728 6.75096 126.541 7.62765 124.16 9.55995C122.316 11.045 120.973 13.1562 120.454 15.661C119.989 17.9512 120.293 20.2234 121.188 22.1915C122.549 25.1615 125.252 27.4695 128.689 28.1673C129.423 28.3283 130.336 28.3283 131.339 28.221C132.592 26.4497 134.418 25.0542 136.638 24.3206C139.054 23.5155 141.561 23.6407 143.763 24.4816C147.289 23.0324 149.939 21.7263 149.939 21.7263C149.939 21.7263 138.696 8.5938 132.968 7.43084V7.41295ZM136.978 19.0247C136.28 22.4241 132.95 24.6069 129.566 23.9091C126.165 23.2113 123.981 19.8835 124.679 16.5019C125.377 13.1025 128.689 10.9197 132.091 11.6175C135.492 12.3153 137.676 15.6252 136.978 19.0247Z" fill="#FF8C00"/>
<path d="M150.046 31.03C149.008 27.8989 146.627 25.573 143.763 24.4816C141.561 23.6407 139.054 23.5155 136.638 24.3206C134.418 25.0542 132.61 26.4676 131.339 28.221C129.441 30.8869 128.797 34.3757 129.906 37.7036C130.139 38.4193 130.587 39.2065 131.178 40.0295C133.344 40.2263 135.456 41.103 137.21 42.6596C139.108 44.3593 140.272 46.5779 140.648 48.9038C143.655 51.2297 146.126 52.8757 146.126 52.8757C146.126 52.8757 151.872 36.5764 150.028 31.03H150.046ZM141.99 40.2979C138.696 41.3893 135.152 39.618 134.042 36.3259C132.95 33.0339 134.722 29.4913 138.016 28.382C141.31 27.2906 144.855 29.0619 145.965 32.354C147.057 35.646 145.284 39.1886 141.99 40.2979Z" fill="#A52A2A"/>
<path d="M132.986 3.441L133.308 3.72727C133.38 3.78094 133.38 3.88829 133.308 3.95986L133.022 4.28191C132.968 4.35348 132.968 4.44294 133.022 4.5145L133.344 4.80077C133.415 4.85444 133.415 4.96179 133.344 5.03336L133.057 5.35541C133.004 5.42698 133.004 5.51644 133.057 5.588L133.38 5.87427C133.451 5.92794 133.541 5.92794 133.612 5.87427L133.899 5.55222C133.953 5.48065 134.06 5.48065 134.132 5.55222L134.454 5.83849C134.525 5.89216 134.615 5.89216 134.687 5.83849L134.973 5.51644C135.027 5.44487 135.134 5.44487 135.206 5.51644L135.528 5.8027C135.6 5.85638 135.689 5.85638 135.761 5.8027L136.047 5.48065C136.101 5.40909 136.101 5.31963 136.047 5.24806L135.725 4.96179C135.653 4.90812 135.653 4.80077 135.725 4.7292L136.011 4.40715C136.065 4.33559 136.065 4.24613 136.011 4.17456L135.689 3.88829C135.617 3.83462 135.617 3.72727 135.689 3.6557L135.975 3.33365C136.029 3.26208 136.029 3.17263 135.975 3.10106L135.653 2.81479C135.582 2.76112 135.492 2.76112 135.421 2.81479L135.134 3.13684C135.08 3.20841 134.973 3.20841 134.901 3.13684L134.579 2.85058C134.507 2.7969 134.418 2.7969 134.346 2.85058L134.06 3.17263C134.006 3.24419 133.899 3.24419 133.827 3.17263L133.505 2.88636C133.433 2.83268 133.344 2.83268 133.272 2.88636L132.986 3.20841C132.932 3.27998 132.932 3.36943 132.986 3.441Z" fill="#FF8C00"/>
<path d="M137.998 5.55222C143.44 8.45067 149.08 13.1204 150.422 19.4004C150.225 18.631 149.975 17.8796 149.652 17.1639C148.005 13.5498 144.998 10.7587 141.758 8.57591C140.451 7.69922 139.072 6.91198 137.676 6.26788L137.998 5.55222Z" fill="#FF8C00"/>
</svg>
