<svg width="47" height="46" viewBox="0 0 47 46" fill="none" xmlns="http://www.w3.org/2000/svg">
<path d="M20.2916 25.9497H21.8076C21.8931 25.9497 21.9909 25.9497 22.101 25.9255C22.211 25.9134 22.3088 25.8893 22.4066 25.853C22.5044 25.8167 22.6022 25.7684 22.6878 25.6958C22.7856 25.6354 22.859 25.5508 22.9201 25.442C23.0913 25.6475 23.3113 25.7926 23.5803 25.8772C23.837 25.9618 24.1304 26.0102 24.4605 26.0102C24.7906 26.0102 25.0352 25.9739 25.2797 25.8893C25.5242 25.8167 25.7442 25.6837 25.9154 25.5266C26.0866 25.3694 26.2333 25.1397 26.3311 24.8738C26.4289 24.6078 26.4778 24.2814 26.4778 23.9067C26.4778 23.5319 26.4289 23.1813 26.3311 22.9033C26.2333 22.6252 26.0866 22.4076 25.9032 22.2384C25.7198 22.0691 25.512 21.9483 25.2552 21.8757C24.9985 21.8032 24.7417 21.7548 24.4483 21.7548C24.1549 21.7548 23.8982 21.7911 23.6536 21.8636C23.4091 21.9362 23.2013 22.0571 23.0179 22.2263C22.8345 22.3955 22.7 22.6011 22.59 22.867C22.4922 23.133 22.4311 23.4473 22.4311 23.822V23.9671C22.4311 24.0155 22.4311 24.0638 22.4311 24.1122C22.4311 24.2814 22.4066 24.4144 22.3699 24.5353C22.3333 24.6441 22.2844 24.7408 22.2232 24.8013C22.1621 24.8738 22.101 24.9221 22.0276 24.9463C21.9543 24.9705 21.8809 24.9947 21.8076 24.9947H20.2549V25.9618L20.2916 25.9497ZM25.1819 24.7771C25.0351 24.9584 24.8029 25.0551 24.485 25.0551C24.1671 25.0551 23.9471 24.9705 23.7881 24.7892C23.6414 24.6078 23.5681 24.3177 23.5681 23.9067C23.5681 23.4956 23.6414 23.2418 23.7881 23.0363C23.9348 22.8428 24.1671 22.734 24.485 22.734C25.1085 22.734 25.4141 23.1209 25.4141 23.9067C25.4141 24.6925 25.3408 24.6078 25.1941 24.7892L25.1819 24.7771Z" fill="white"/>
<path d="M22.5289 20.2074C22.37 20.0624 22.1866 19.9778 21.9543 19.9778C21.722 19.9778 21.5387 20.0503 21.3797 20.2074C21.233 20.3646 21.1474 20.5459 21.1474 20.7756C21.1474 21.0053 21.2208 21.1746 21.3553 21.3075C21.4898 21.4284 21.6854 21.501 21.9299 21.501H22.26C22.2233 21.5735 22.1499 21.6702 22.0277 21.7669C21.9054 21.8636 21.6976 21.912 21.4164 21.912H21.1108C21.0374 21.912 21.0007 21.9483 21.0007 22.0208V22.2021C21.0007 22.2747 21.0374 22.3109 21.1108 22.3109H21.4164C21.612 22.3109 21.7832 22.2867 21.9543 22.2384C22.1133 22.19 22.26 22.1175 22.3822 22.0087C22.5045 21.8999 22.6023 21.7669 22.6634 21.5977C22.7368 21.4284 22.7612 21.2108 22.7612 20.957C22.7612 20.7031 22.6879 20.3646 22.5289 20.2195V20.2074ZM22.3578 21.1262H21.991C21.9543 21.1262 21.9054 21.1262 21.8565 21.1141C21.8076 21.1141 21.7587 21.0899 21.7098 21.0658C21.6609 21.0416 21.6242 21.0053 21.5876 20.957C21.5509 20.9086 21.5387 20.8482 21.5387 20.7877C21.5387 20.7273 21.5753 20.5943 21.6365 20.5097C21.7098 20.425 21.8076 20.3767 21.9421 20.3767C22.0766 20.3767 22.1622 20.425 22.2355 20.5218C22.3089 20.6185 22.3456 20.7635 22.3456 20.957V21.1383L22.3578 21.1262Z" fill="white"/>
<path d="M34.4611 28.8511C33.263 27.7993 31.8204 27.207 30.3411 27.074C31.7837 29.0445 34.5345 31.3414 36.8085 33.0701C36.5517 31.4985 35.7693 29.9874 34.4611 28.8511Z" fill="#A52A2A"/>
<path d="M45.5621 19.6634L45.5009 19.9536C45.5009 20.014 45.4276 20.0503 45.3665 20.0382L45.073 19.9778C45.0119 19.9778 44.9508 20.0019 44.9386 20.0624L44.8774 20.3525C44.8774 20.413 44.8041 20.4492 44.7429 20.4371L44.4495 20.3767C44.3884 20.3767 44.3273 20.4009 44.315 20.4613L44.2539 20.7514C44.2539 20.8119 44.2784 20.8723 44.3395 20.8844L44.6329 20.9449C44.694 20.9449 44.7307 21.0174 44.7185 21.0779L44.6574 21.368C44.6574 21.4284 44.6818 21.4889 44.7429 21.501L45.0364 21.5614C45.0975 21.5614 45.1342 21.6339 45.1219 21.6944L45.0608 21.9845C45.0608 22.045 45.0853 22.1054 45.1464 22.1175L45.4398 22.1779C45.5009 22.1779 45.5621 22.1538 45.5743 22.0933L45.6354 21.8032C45.6354 21.7427 45.7088 21.7065 45.7699 21.7186L46.0633 21.779C46.1245 21.779 46.1856 21.7548 46.1978 21.6944L46.2589 21.4043C46.2589 21.3438 46.3323 21.3075 46.3934 21.3196L46.6868 21.3801C46.748 21.3801 46.8091 21.3559 46.8213 21.2955L46.8824 21.0053C46.8824 20.9449 46.858 20.8844 46.7969 20.8723L46.5034 20.8119C46.4423 20.8119 46.4056 20.7394 46.4179 20.6789L46.479 20.3888C46.479 20.3283 46.4545 20.2679 46.3934 20.2558L46.1 20.1954C46.0389 20.1954 46.0022 20.1228 46.0144 20.0624L46.0755 19.7722C46.0755 19.7118 46.0511 19.6514 45.99 19.6393L45.6965 19.5788C45.6354 19.5788 45.5743 19.603 45.5621 19.6634Z" fill="#A52A2A"/>
<path d="M46.0143 23.3022C46.1488 27.4608 45.3175 32.3327 42.0654 35.2461C42.4567 34.8714 42.8112 34.4724 43.1291 34.0372C44.7062 31.8612 45.3297 29.1533 45.5131 26.5179C45.5864 25.4661 45.5864 24.3902 45.4886 23.3506L46.0266 23.3022H46.0143Z" fill="#A52A2A"/>
<path d="M36.7962 33.0701C36.5395 31.4985 35.757 29.9874 34.4489 28.8511C33.2508 27.7993 31.8081 27.207 30.3288 27.074C28.1037 26.8685 25.8175 27.6784 24.2282 29.4434C23.8858 29.8182 23.5802 30.3501 23.299 30.9787C22.2965 33.2031 21.6607 36.6968 21.2695 39.5135C20.9272 42.0643 20.7927 44.0469 20.7927 44.0469C20.7927 44.0469 32.3949 41.9072 35.0479 38.9574C36.5517 37.2892 37.1141 35.1252 36.784 33.0701H36.7962ZM32.884 37.0232C31.3191 38.7761 28.605 38.9333 26.8322 37.3738C25.0595 35.8143 24.9006 33.1426 26.4777 31.3897C28.0548 29.6368 30.7567 29.4797 32.5294 31.0392C34.3022 32.5986 34.4611 35.2703 32.884 37.0232Z" fill="#D4A373"/>
<path d="M37.4075 40.3114L37.1263 40.4081C37.0651 40.4323 37.004 40.4081 36.9918 40.3356L36.894 40.0575C36.8695 39.9971 36.8084 39.9729 36.7595 39.985L36.4783 40.0817C36.4172 40.1059 36.3561 40.0817 36.3438 40.0092L36.246 39.7311C36.2216 39.6707 36.1604 39.6465 36.1115 39.6586L35.8304 39.7553C35.7692 39.7795 35.7448 39.8399 35.757 39.8883L35.8548 40.1663C35.8793 40.2268 35.8548 40.2872 35.7814 40.2993L35.5003 40.396C35.4391 40.4202 35.4147 40.4807 35.4269 40.529L35.5247 40.8071C35.5492 40.8675 35.5247 40.928 35.4513 40.94L35.1702 41.0368C35.109 41.0609 35.0846 41.1214 35.0968 41.1697L35.1946 41.4478C35.2191 41.5082 35.2802 41.5324 35.3291 41.5203L35.6103 41.4236C35.6714 41.3994 35.7325 41.4236 35.7448 41.4961L35.8426 41.7742C35.867 41.8346 35.9282 41.8588 35.9771 41.8467L36.2583 41.75C36.3194 41.7258 36.3805 41.75 36.3927 41.8225L36.4905 42.1006C36.515 42.161 36.5761 42.1852 36.625 42.1731L36.9062 42.0764C36.9673 42.0522 36.9918 41.9918 36.9796 41.9434L36.8818 41.6654C36.8573 41.6049 36.8818 41.5445 36.9551 41.5324L37.2363 41.4357C37.2974 41.4115 37.3219 41.3511 37.3097 41.3027L37.2119 41.0247C37.1874 40.9642 37.2119 40.9038 37.2852 40.8917L37.5664 40.795C37.6275 40.7708 37.652 40.7103 37.6398 40.662L37.542 40.3839C37.5175 40.3235 37.4564 40.2993 37.4075 40.3114Z" fill="#D4A373"/>
<path d="M34.449 42.5237C30.8791 44.7239 26.1844 46.4405 22.0032 45.1107C22.5289 45.2558 23.0546 45.3525 23.5925 45.413C26.2944 45.6668 28.9719 44.8569 31.3681 43.6963C32.3217 43.2249 33.2753 42.6929 34.1311 42.0885L34.4368 42.5237H34.449Z" fill="#D4A373"/>
<path d="M3.66457 31.3051C3.66457 31.3051 11.3423 40.1784 15.2546 40.9642C19.1668 41.7621 23.0057 39.2718 23.8004 35.3912C24.6073 31.5106 22.0888 27.7268 18.1643 26.941C14.2398 26.1431 3.65234 31.3051 3.65234 31.3051H3.66457ZM17.5897 29.8303C19.9126 30.3017 21.4041 32.5382 20.9273 34.8351C20.4505 37.132 18.1888 38.6069 15.8659 38.1354C13.543 37.6639 12.0514 35.4275 12.5282 33.1306C13.005 30.8337 15.279 29.3588 17.5897 29.8303Z" fill="#00AEEF"/>
<path d="M15.2424 43.648L15.0223 43.4545C14.9734 43.4183 14.9734 43.3457 15.0223 43.2974L15.2179 43.0798C15.2546 43.0314 15.2546 42.971 15.2179 42.9226L14.9979 42.7292C14.949 42.6929 14.949 42.6204 14.9979 42.5721L15.1935 42.3544C15.2302 42.3061 15.2302 42.2456 15.1935 42.1973L14.9734 42.0039C14.9245 41.9676 14.8634 41.9676 14.8145 42.0039L14.6189 42.2215C14.5822 42.2698 14.5088 42.2698 14.4599 42.2215L14.2399 42.028C14.191 41.9918 14.1298 41.9918 14.0809 42.028L13.8853 42.2456C13.8486 42.294 13.7753 42.294 13.7264 42.2456L13.5063 42.0522C13.4574 42.016 13.3963 42.016 13.3474 42.0522L13.1518 42.2698C13.1151 42.3182 13.1151 42.3786 13.1518 42.427L13.3718 42.6204C13.4207 42.6567 13.4207 42.7292 13.3718 42.7776L13.1762 42.9952C13.1396 43.0435 13.1396 43.104 13.1762 43.1523L13.3963 43.3457C13.4452 43.382 13.4452 43.4545 13.3963 43.5029L13.2007 43.7205C13.164 43.7689 13.164 43.8293 13.2007 43.8777L13.4207 44.0711C13.4696 44.1074 13.5308 44.1074 13.5797 44.0711L13.7753 43.8535C13.812 43.8051 13.8853 43.8051 13.9342 43.8535L14.1543 44.0469C14.2032 44.0832 14.2643 44.0832 14.3132 44.0469L14.5088 43.8293C14.5455 43.7809 14.6189 43.7809 14.6678 43.8293L14.8878 44.0227C14.9367 44.059 14.9979 44.059 15.0468 44.0227L15.2424 43.8051C15.2791 43.7568 15.2791 43.6963 15.2424 43.648Z" fill="#00AEEF"/>
<path d="M11.8313 42.2215C8.11472 40.2631 4.26361 37.1078 3.34668 32.8646C3.48116 33.3844 3.65232 33.8922 3.87239 34.3757C4.99715 36.8177 7.05108 38.7036 9.26394 40.1784C10.1564 40.7708 11.0978 41.3027 12.0514 41.7379L11.8313 42.2215Z" fill="#00AEEF"/>
<path d="M6.25636 10.2461C6.25636 10.2461 2.3319 21.2592 3.59115 25.0068C4.8504 28.7544 8.94603 30.7853 12.7482 29.5401C16.5504 28.295 18.5921 24.2452 17.3329 20.4855C16.0736 16.7258 6.25636 10.2461 6.25636 10.2461ZM14.5087 21.4284C15.2545 23.6528 14.0442 26.0464 11.7946 26.7838C9.54509 27.5213 7.12439 26.3245 6.37862 24.1001C5.63285 21.8757 6.8432 19.4821 9.09274 18.7447C11.3423 18.0073 13.763 19.2041 14.5087 21.4284Z" fill="#6B8E23"/>
<path d="M1.23152 26.3366L1.29264 26.0464C1.29264 25.986 1.366 25.9497 1.42712 25.9618L1.72054 26.0222C1.78167 26.0222 1.8428 25.9981 1.85502 25.9376L1.91615 25.6475C1.91615 25.587 1.98951 25.5508 2.05064 25.5629L2.34405 25.6233C2.40518 25.6233 2.46632 25.5991 2.47854 25.5387L2.53967 25.2485C2.53967 25.1881 2.51522 25.1277 2.45409 25.1156L2.16067 25.0551C2.09954 25.0551 2.06286 24.9826 2.07509 24.9221L2.13622 24.632C2.13622 24.5716 2.11177 24.5111 2.05064 24.499L1.75722 24.4386C1.69609 24.4386 1.65941 24.3661 1.67164 24.3056L1.73277 24.0155C1.73277 23.955 1.70831 23.8946 1.64719 23.8825L1.35377 23.8221C1.29264 23.8221 1.23151 23.8462 1.21928 23.9067L1.15816 24.1968C1.15816 24.2573 1.0848 24.2935 1.02368 24.2814L0.730255 24.221C0.669126 24.221 0.608001 24.2452 0.595775 24.3056L0.534646 24.5957C0.534646 24.6562 0.461291 24.6925 0.400162 24.6804L0.106745 24.6199C0.0456167 24.6199 -0.0155127 24.6441 -0.0277385 24.7045L-0.0888672 24.9947C-0.0888672 25.0551 -0.0644142 25.1156 -0.00328551 25.1277L0.290132 25.1881C0.35126 25.1881 0.387939 25.2606 0.375713 25.3211L0.314584 25.6112C0.314584 25.6717 0.339034 25.7321 0.400162 25.7442L0.693579 25.8046C0.754708 25.8046 0.791387 25.8772 0.779161 25.9376L0.718032 26.2278C0.718032 26.2882 0.742485 26.3486 0.803614 26.3607L1.09703 26.4212C1.15816 26.4212 1.21929 26.397 1.23152 26.3366Z" fill="#6B8E23"/>
<path d="M0.779213 22.6978C0.64473 18.5392 1.47608 13.6673 4.72813 10.7539C4.3369 11.1286 3.98235 11.5276 3.66448 11.9628C2.08736 14.1388 1.46385 16.8467 1.28047 19.4821C1.20711 20.5338 1.20711 21.6098 1.30492 22.6494L0.76699 22.6978H0.779213Z" fill="#6B8E23"/>
<path d="M26.0007 1.95309C26.0007 1.95309 14.3984 4.09284 11.7455 7.04255C9.09248 9.99226 9.36144 14.5256 12.3445 17.1489C15.3398 19.7722 19.9123 19.5063 22.5652 16.5566C25.2182 13.5948 26.0007 1.95309 26.0007 1.95309ZM20.3279 14.6103C18.7508 16.3632 16.0489 16.5203 14.2762 14.9608C12.5035 13.4014 12.3445 10.7297 13.9216 8.97679C15.4988 7.22389 18.2007 7.06673 19.9734 8.62621C21.7461 10.1857 21.9051 12.8573 20.3279 14.6103Z" fill="white"/>
<path d="M9.38598 5.68859L9.66717 5.59188C9.7283 5.5677 9.78943 5.59188 9.80165 5.66441L9.89946 5.94246C9.92391 6.0029 9.98504 6.02708 10.0339 6.01499L10.3151 5.91828C10.3763 5.8941 10.4374 5.91828 10.4496 5.99082L10.5474 6.26886C10.5719 6.32931 10.633 6.35349 10.6819 6.3414L10.9631 6.24468C11.0242 6.22051 11.0487 6.16006 11.0365 6.11171L10.9386 5.83366C10.9142 5.77322 10.9387 5.71277 11.012 5.70068L11.2932 5.60397C11.3543 5.57979 11.3788 5.51935 11.3665 5.47099L11.2687 5.19294C11.2443 5.1325 11.2687 5.07205 11.3421 5.05997L11.6233 4.96325C11.6844 4.93908 11.7089 4.87863 11.6966 4.83027L11.5988 4.55223C11.5744 4.49178 11.5133 4.46761 11.4644 4.47969L11.1832 4.57641C11.122 4.60058 11.0609 4.57641 11.0487 4.50387L10.9509 4.22583C10.9264 4.16538 10.8653 4.1412 10.8164 4.15329L10.5352 4.25C10.4741 4.27418 10.4129 4.25 10.4007 4.17747L10.3029 3.89942C10.2785 3.83898 10.2173 3.8148 10.1684 3.82689L9.88724 3.9236C9.82611 3.94778 9.80166 4.00822 9.81388 4.05658L9.91169 4.33463C9.93614 4.39507 9.91168 4.45552 9.83833 4.46761L9.55714 4.56432C9.49601 4.5885 9.47156 4.64894 9.48379 4.6973L9.58159 4.97534C9.60604 5.03579 9.5816 5.09623 9.50824 5.10832L9.22704 5.20503C9.16591 5.22921 9.14147 5.28966 9.15369 5.33801L9.2515 5.61606C9.27595 5.6765 9.33708 5.70068 9.38598 5.68859Z" fill="white"/>
<path d="M12.3569 3.4884C15.9268 1.2882 20.6215 -0.428433 24.8027 0.901354C24.277 0.756287 23.7513 0.659575 23.2134 0.59913C20.5115 0.345262 17.8341 1.15522 15.4378 2.31576C14.4842 2.78723 13.5306 3.31915 12.6748 3.9236L12.3692 3.4884H12.3569Z" fill="white"/>
<path d="M31.5392 5.03579C29.3264 4.58849 27.1502 5.18085 25.5242 6.48646C24.2649 7.48985 23.348 8.91635 22.9934 10.6088C22.6756 12.1562 22.8834 13.6915 23.4947 15.0213C24.4238 17.028 26.2699 18.5875 28.6173 19.059C29.1185 19.1678 29.742 19.1678 30.4267 19.0953C31.2825 17.8985 32.5295 16.9555 34.0455 16.4599C35.696 15.9159 37.4076 16.0005 38.9113 16.5687C41.3198 15.5895 43.1292 14.707 43.1292 14.707C43.1292 14.707 35.4514 5.83366 31.5392 5.04788V5.03579ZM34.2778 12.8815C33.801 15.1784 31.527 16.6533 29.2163 16.1818C26.8934 15.7104 25.4019 13.4618 25.8787 11.177C26.3555 8.88008 28.6173 7.40523 30.9402 7.8767C33.263 8.34817 34.7546 10.5846 34.2778 12.8815Z" fill="#FF8C00"/>
<path d="M43.2027 20.9932C42.4936 18.8777 40.8675 17.3061 38.9114 16.5687C37.4077 16.0005 35.696 15.9159 34.0456 16.4599C32.5296 16.9555 31.2948 17.9105 30.4268 19.0953C29.1308 20.8965 28.6907 23.2539 29.4487 25.5024C29.6076 25.986 29.9133 26.5179 30.3167 27.074C31.796 27.207 33.2387 27.7993 34.4368 28.8511C35.7327 29.9995 36.5274 31.4986 36.7841 33.0701C38.8381 34.6417 40.5252 35.7539 40.5252 35.7539C40.5252 35.7539 44.4497 24.7408 43.1904 20.9932H43.2027ZM37.7011 27.2553C35.4515 27.9927 33.0308 26.7959 32.2728 24.5716C31.5271 22.3472 32.7374 19.9536 34.987 19.2041C37.2365 18.4666 39.6572 19.6634 40.4152 21.8878C41.161 24.1122 39.9506 26.5058 37.7011 27.2553Z" fill="#A52A2A"/>
<path d="M31.5514 2.35203L31.7715 2.54546C31.8204 2.58172 31.8204 2.65426 31.7715 2.70261L31.5759 2.92021C31.5392 2.96857 31.5392 3.02902 31.5759 3.07737L31.7959 3.27079C31.8449 3.30706 31.8449 3.3796 31.7959 3.42795L31.6003 3.64555C31.5637 3.69391 31.5637 3.75435 31.6003 3.80271L31.8204 3.99613C31.8693 4.0324 31.9304 4.0324 31.9793 3.99613L32.1749 3.77853C32.2116 3.73018 32.285 3.73018 32.3339 3.77853L32.5539 3.97196C32.6028 4.00822 32.664 4.00822 32.7129 3.97196L32.9085 3.75435C32.9452 3.706 33.0185 3.706 33.0674 3.75435L33.2875 3.94778C33.3364 3.98404 33.3975 3.98404 33.4464 3.94778L33.642 3.73018C33.6787 3.68182 33.6787 3.62137 33.642 3.57302L33.422 3.3796C33.3731 3.34333 33.3731 3.27079 33.422 3.22244L33.6176 3.00484C33.6543 2.95648 33.6543 2.89604 33.6176 2.84768L33.3975 2.65426C33.3486 2.61799 33.3486 2.54546 33.3975 2.4971L33.5931 2.2795C33.6298 2.23114 33.6298 2.1707 33.5931 2.12234L33.3731 1.92892C33.3242 1.89265 33.263 1.89265 33.2141 1.92892L33.0185 2.14652C32.9818 2.19488 32.9085 2.19488 32.8596 2.14652L32.6395 1.9531C32.5906 1.91683 32.5295 1.91683 32.4806 1.9531L32.285 2.1707C32.2483 2.21905 32.1749 2.21905 32.126 2.1707L31.906 1.97727C31.8571 1.94101 31.7959 1.94101 31.747 1.97727L31.5514 2.19488C31.5148 2.24323 31.5148 2.30368 31.5514 2.35203Z" fill="#FF8C00"/>
<path d="M34.9747 3.77853C38.6913 5.73695 42.5424 8.89217 43.4594 13.1354C43.3249 12.6156 43.1537 12.1078 42.9337 11.6243C41.8089 9.1823 39.755 7.29643 37.5421 5.82157C36.6496 5.22921 35.7082 4.6973 34.7546 4.26209L34.9747 3.77853Z" fill="#FF8C00"/>
</svg>
