<svg width="20" height="21" viewBox="0 0 20 21" fill="none" xmlns="http://www.w3.org/2000/svg">
<path d="M6.25 9.08334C6.25 9.81269 6.53973 10.5122 7.05546 11.0279C7.57118 11.5436 8.27065 11.8333 9 11.8333C9.72935 11.8333 10.4288 11.5436 10.9445 11.0279C11.4603 10.5122 11.75 9.81269 11.75 9.08334C11.75 8.354 11.4603 7.65452 10.9445 7.1388C10.4288 6.62307 9.72935 6.33334 9 6.33334C8.27065 6.33334 7.57118 6.62307 7.05546 7.1388C6.53973 7.65452 6.25 8.354 6.25 9.08334Z" stroke="#F2F3F7" stroke-width="2" stroke-linecap="round" stroke-linejoin="round"/>
<path d="M9.72785 18.5452C9.39068 18.6907 9.01757 18.7317 8.65685 18.6627C8.29614 18.5938 7.96445 18.418 7.70477 18.1583L3.81444 14.2689C2.93327 13.3874 2.29132 12.2959 1.94918 11.0974C1.60705 9.89894 1.57603 8.63302 1.85904 7.4192C2.14206 6.20539 2.72978 5.08373 3.56671 4.16015C4.40363 3.23657 5.46215 2.54154 6.6423 2.14069C7.82246 1.73983 9.0853 1.64639 10.3116 1.86917C11.5379 2.09195 12.6872 2.62361 13.6509 3.41395C14.6147 4.20428 15.3611 5.22721 15.8197 6.38615C16.2783 7.54509 16.4339 8.80179 16.2719 10.0376M12.6667 16.4167H18.1667M15.4167 13.6667V19.1667" stroke="#F2F3F7" stroke-width="2" stroke-linecap="round" stroke-linejoin="round"/>
</svg>
