<svg width="12" height="12" viewBox="0 0 12 12" fill="none" xmlns="http://www.w3.org/2000/svg">
<path d="M9.75392 1.89021H8.62225V1.06771C8.62225 0.916048 8.48809 0.770215 8.33059 0.776048C8.17309 0.781882 8.03892 0.904382 8.03892 1.06771V1.89021H3.95559V1.06771C3.95559 0.916048 3.82142 0.770215 3.66392 0.776048C3.50642 0.781882 3.37225 0.904382 3.37225 1.06771V1.89021H2.24642C1.85965 1.89021 1.48871 2.04386 1.21522 2.31735C0.941731 2.59084 0.788086 2.96177 0.788086 3.34855V9.76521C0.788086 10.152 0.941731 10.5229 1.21522 10.7964C1.48871 11.0699 1.85965 11.2235 2.24642 11.2235H9.75392C10.1407 11.2235 10.5116 11.0699 10.7851 10.7964C11.0586 10.5229 11.2123 10.152 11.2123 9.76521V3.34855C11.2123 2.96177 11.0586 2.59084 10.7851 2.31735C10.5116 2.04386 10.1407 1.89021 9.75392 1.89021ZM10.6289 9.76521C10.6289 10.2494 10.2381 10.6402 9.75392 10.6402H2.24642C1.76225 10.6402 1.37142 10.2494 1.37142 9.76521V4.85355H10.6289V9.76521ZM10.6289 4.27021H1.37142V3.34855C1.37142 2.86438 1.76225 2.47355 2.24642 2.47355H3.37225V2.81771C3.37225 2.96938 3.50642 3.11521 3.66392 3.10938C3.82142 3.10355 3.95559 2.98105 3.95559 2.81771V2.47355H8.03892V2.81771C8.03892 2.96938 8.17309 3.11521 8.33059 3.10938C8.48809 3.10355 8.62225 2.98105 8.62225 2.81771V2.47355H9.75392C10.2381 2.47355 10.6289 2.86438 10.6289 3.34855V4.27021Z" fill="#67747C"/>
</svg>
