<svg width="40" height="44" viewBox="0 0 40 44" fill="none" xmlns="http://www.w3.org/2000/svg">
<path d="M35.8125 35.8163H4.18748C3.12893 35.8163 2.27081 36.7863 2.27081 37.9829V40.1496C2.27081 41.3462 3.12893 42.3163 4.18748 42.3163H35.8125C36.871 42.3163 37.7291 41.3462 37.7291 40.1496V37.9829C37.7291 36.7863 36.871 35.8163 35.8125 35.8163Z" stroke="#FF8B00" stroke-width="3" stroke-linecap="round" stroke-linejoin="round"/>
<path d="M7.06248 17.3942V35.8326M32.9375 17.3942V35.8326M24.7916 17.3942V35.8326M15.2083 17.3942V35.8326M18.16 2.82557L3.26748 12.0339C2.96586 12.2205 2.71418 12.4953 2.53883 12.8296C2.36348 13.1639 2.27091 13.5454 2.27081 13.9341V16.0942C2.27081 16.439 2.39197 16.7697 2.60764 17.0135C2.82331 17.2573 3.11581 17.3942 3.42081 17.3942H36.5791C36.8841 17.3942 37.1767 17.2573 37.3923 17.0135C37.608 16.7697 37.7291 16.439 37.7291 16.0942V13.9341C37.7291 13.5454 37.6365 13.1639 37.4611 12.8296C37.2858 12.4953 37.0341 12.2205 36.7325 12.0339L21.84 2.82557C21.2758 2.47662 20.6431 2.29373 20 2.29373C19.3569 2.29373 18.7241 2.47662 18.16 2.82557Z" stroke="#FF8B00" stroke-width="3" stroke-linecap="round" stroke-linejoin="round"/>
</svg>
