<svg width="12" height="12" viewBox="0 0 12 12" fill="none" xmlns="http://www.w3.org/2000/svg">
<path d="M5.82495 11.4549C2.68375 11.4549 0.137451 8.92109 0.137451 5.79531C0.137451 2.66953 2.68375 0.135742 5.82495 0.135742C8.96616 0.135742 11.5125 2.66953 11.5125 5.79531C11.5125 8.92109 8.96616 11.4549 5.82495 11.4549ZM5.82495 10.323C7.03169 10.323 8.189 9.84594 9.04229 8.99684C9.89558 8.14774 10.375 6.99612 10.375 5.79531C10.375 4.5945 9.89558 3.44287 9.04229 2.59377C8.189 1.74467 7.03169 1.26766 5.82495 1.26766C4.61822 1.26766 3.46091 1.74467 2.60762 2.59377C1.75432 3.44287 1.27495 4.5945 1.27495 5.79531C1.27495 6.99612 1.75432 8.14774 2.60762 8.99684C3.46091 9.84594 4.61822 10.323 5.82495 10.323ZM6.3937 5.79531H8.6687V6.92722H5.2562V2.96553H6.3937V5.79531Z" fill="#67747C"/>
</svg>
