<svg width="24" height="24" viewBox="0 0 24 24" fill="none" xmlns="http://www.w3.org/2000/svg">
<path d="M12.0001 4.50059C11.708 4.50035 11.4222 4.58538 11.1778 4.74526C10.9334 4.90513 10.7409 5.13289 10.6241 5.40059C10.5128 5.63545 10.3145 5.81778 10.0711 5.90892C9.82771 6.00006 9.5584 5.99287 9.32022 5.88886C9.08204 5.78485 8.89371 5.5922 8.79514 5.35173C8.69656 5.11125 8.69547 4.84185 8.79211 4.60058C8.90211 4.34992 9.03811 4.11659 9.20011 3.90059C9.51905 3.47576 9.93051 3.12911 10.4033 2.88691C10.8761 2.64471 11.3978 2.5133 11.9289 2.50266C12.4601 2.49201 12.9866 2.6024 13.4688 2.82547C13.9509 3.04853 14.3759 3.37841 14.7116 3.79011C15.0473 4.20181 15.2849 4.68453 15.4064 5.20168C15.5278 5.71883 15.53 6.25684 15.4127 6.77495C15.2953 7.29306 15.0616 7.77766 14.7292 8.19203C14.3968 8.6064 13.9744 8.93967 13.4941 9.16659C13.3382 9.23612 13.1975 9.33568 13.0801 9.45958C13.0001 9.55158 13.0001 9.59658 13.0001 9.60158C13.0001 9.63859 13.0201 9.67358 13.0521 9.69159L20.5951 13.8816C21.1243 14.1752 21.5409 14.6363 21.7796 15.1924C22.0183 15.7484 22.0655 16.3681 21.9139 16.9539C21.7623 17.5398 21.4203 18.0587 20.9418 18.4291C20.4633 18.7996 19.8753 19.0006 19.2701 19.0006H4.74311C4.13894 19.0008 3.55158 18.8016 3.07225 18.4338C2.59291 18.066 2.24841 17.5503 2.09224 16.9666C1.93607 16.383 1.97697 15.7641 2.20858 15.2061C2.44019 14.648 2.84955 14.1821 3.37311 13.8806L9.00011 10.6356C9.22967 10.5051 9.50154 10.4706 9.75638 10.5398C10.0112 10.609 10.2284 10.7762 10.3604 11.0049C10.4924 11.2336 10.5286 11.5052 10.4612 11.7605C10.3937 12.0158 10.2279 12.234 10.0001 12.3676L4.37211 15.6146C4.23073 15.6964 4.12027 15.8226 4.05782 15.9736C3.99537 16.1246 3.98443 16.2919 4.02667 16.4497C4.06891 16.6075 4.16199 16.747 4.29151 16.8466C4.42102 16.9462 4.57974 17.0003 4.74311 17.0006H19.2701C19.4321 17.0006 19.5894 16.9468 19.7175 16.8477C19.8456 16.7486 19.9371 16.6097 19.9777 16.4529C20.0183 16.2962 20.0058 16.1304 19.9419 15.9815C19.8781 15.8327 19.7667 15.7092 19.6251 15.6306L12.0821 11.4396C11.7542 11.2578 11.4809 10.9916 11.2907 10.6686C11.1004 10.3456 11.0001 9.97749 11.0001 9.60259C11.0001 8.39459 11.9841 7.66758 12.6401 7.35858C12.9492 7.2136 13.1995 6.96754 13.3498 6.66104C13.5001 6.35453 13.5414 6.00593 13.4668 5.6728C13.3922 5.33968 13.2062 5.04196 12.9396 4.82883C12.6729 4.6157 12.3415 4.49991 12.0001 4.50059Z" fill="#FF8B00"/>
</svg>
