<svg width="20" height="18" viewBox="0 0 20 18" fill="none" xmlns="http://www.w3.org/2000/svg">
<path d="M18 1.00268e-07C18.5046 -0.000159579 18.9906 0.190406 19.3605 0.533497C19.7305 0.876588 19.9572 1.34684 19.995 1.85L20 2V16C20.0002 16.5046 19.8096 16.9906 19.4665 17.3605C19.1234 17.7305 18.6532 17.9572 18.15 17.995L18 18H2C1.49542 18.0002 1.00943 17.8096 0.639452 17.4665C0.269471 17.1234 0.0428434 16.6532 0.00500021 16.15L1.00268e-07 16V2C-0.000159579 1.49542 0.190406 1.00943 0.533497 0.639452C0.876588 0.269471 1.34684 0.0428434 1.85 0.00500021L2 1.00268e-07H18ZM7.879 9.05L2.222 14.707C2.15618 14.7731 2.08146 14.8296 2 14.875V16H18V14.875C17.9185 14.8296 17.8438 14.7731 17.778 14.707L14.95 11.88L14.243 12.587L14.45 12.794C14.5428 12.8869 14.6165 12.9972 14.6667 13.1186C14.7169 13.2399 14.7427 13.37 14.7427 13.5014C14.7427 13.6327 14.7167 13.7628 14.6664 13.8841C14.6161 14.0054 14.5424 14.1157 14.4495 14.2085C14.3566 14.3013 14.2463 14.375 14.1249 14.4252C14.0036 14.4754 13.8735 14.5012 13.7421 14.5012C13.6108 14.5012 13.4807 14.4752 13.3594 14.4249C13.2381 14.3746 13.1278 14.3009 13.035 14.208L7.88 9.05H7.879ZM18 2H2V12.1L6.995 7.106C7.21274 6.88832 7.50316 6.75865 7.8106 6.74186C8.11803 6.72506 8.42085 6.82233 8.661 7.015L8.762 7.105L12.828 11.172L14.066 9.934C14.2837 9.71632 14.5742 9.58665 14.8816 9.56986C15.189 9.55306 15.4918 9.65033 15.732 9.843L15.834 9.934L18 12.101V2ZM13.5 4C13.8978 4 14.2794 4.15804 14.5607 4.43934C14.842 4.72064 15 5.10218 15 5.5C15 5.89782 14.842 6.27936 14.5607 6.56066C14.2794 6.84196 13.8978 7 13.5 7C13.1022 7 12.7206 6.84196 12.4393 6.56066C12.158 6.27936 12 5.89782 12 5.5C12 5.10218 12.158 4.72064 12.4393 4.43934C12.7206 4.15804 13.1022 4 13.5 4Z" fill="#F8693F"/>
</svg>
