<svg width="20" height="20" viewBox="0 0 20 20" fill="none" xmlns="http://www.w3.org/2000/svg">
<path d="M0.833252 13.6666C0.833252 11.0743 0.833252 9.77721 1.639 8.97238C2.44384 8.16663 3.74092 8.16663 6.33325 8.16663H13.6666C16.2589 8.16663 17.556 8.16663 18.3608 8.97238C19.1666 9.77721 19.1666 11.0743 19.1666 13.6666C19.1666 16.259 19.1666 17.556 18.3608 18.3609C17.556 19.1666 16.2589 19.1666 13.6666 19.1666H6.33325C3.74092 19.1666 2.44384 19.1666 1.639 18.3609C0.833252 17.556 0.833252 16.259 0.833252 13.6666Z" stroke="#C7C7C7" stroke-width="1.5"/>
<path d="M4.5 8.16665V6.33331C4.5 4.87462 5.07946 3.47568 6.11091 2.44423C7.14236 1.41278 8.54131 0.833313 10 0.833313C11.4587 0.833313 12.8576 1.41278 13.8891 2.44423C14.9205 3.47568 15.5 4.87462 15.5 6.33331V8.16665" stroke="#C7C7C7" stroke-width="1.5" stroke-linecap="round"/>
</svg>
