<svg width="16" height="16" viewBox="0 0 16 16" fill="none" xmlns="http://www.w3.org/2000/svg">
<path d="M3.5 14V13.5C3.5 12.4391 3.92143 11.4217 4.67157 10.6716C5.42172 9.92143 6.43913 9.5 7.5 9.5H8.5C9.56087 9.5 10.5783 9.92143 11.3284 10.6716C12.0786 11.4217 12.5 12.4391 12.5 13.5V14M10.5 5C10.5 5.66304 10.2366 6.29893 9.76777 6.76777C9.29893 7.23661 8.66304 7.5 8 7.5C7.33696 7.5 6.70107 7.23661 6.23223 6.76777C5.76339 6.29893 5.5 5.66304 5.5 5C5.5 4.33696 5.76339 3.70107 6.23223 3.23223C6.70107 2.76339 7.33696 2.5 8 2.5C8.66304 2.5 9.29893 2.76339 9.76777 3.23223C10.2366 3.70107 10.5 4.33696 10.5 5Z" stroke="#67747C"/>
</svg>
