<svg xmlns="http://www.w3.org/2000/svg" width="20" height="20" viewBox="0 0 20 20" fill="none">
<path d="M7 4.54081V18.7958M13 1.18081V15.4358M1 6.59281C1 5.06581 1 4.30281 1.393 3.85781C1.532 3.69881 1.701 3.57281 1.89 3.48581C3.306 2.83281 5.162 4.55181 6.66 4.49881C6.858 4.49148 7.05367 4.46414 7.247 4.41681C9.431 3.88181 10.799 1.33681 13.045 1.02681C14.332 0.846811 15.745 1.62481 16.949 2.04081C17.939 2.38281 18.434 2.55381 18.717 2.96081C19 3.36781 19 3.90981 19 4.98981V13.4118C19 14.9378 19 15.7018 18.607 16.1468C18.469 16.3037 18.2997 16.4301 18.11 16.5178C16.694 17.1708 14.838 15.4528 13.34 15.5058C13.1421 15.5134 12.9455 15.5405 12.753 15.5868C10.569 16.1218 9.201 18.6668 6.955 18.9778C5.674 19.1558 2.108 18.2278 1.283 17.0428C1 16.6358 1 16.0958 1 15.0138V6.59281Z" stroke="#E46538" stroke-width="1.5" stroke-linecap="round" stroke-linejoin="round"/>
</svg>