<svg width="46" height="39" viewBox="0 0 46 39" fill="none" xmlns="http://www.w3.org/2000/svg">
<path d="M41 21.5C40.4889 21.4997 39.9815 21.5891 39.5 21.7641V21.5C39.5 13.503 33.6744 9.54477 29.42 6.65453C26.78 4.85914 24.5 3.31641 24.5 1.59375C24.5 1.18764 24.342 0.798158 24.0607 0.510993C23.7794 0.223828 23.3978 0.0625 23 0.0625C22.6022 0.0625 22.2206 0.223828 21.9393 0.510993C21.658 0.798158 21.5 1.18764 21.5 1.59375C21.5 3.31641 19.22 4.85914 16.58 6.65453C12.3256 9.54477 6.5 13.503 6.5 21.5V21.7641C5.82137 21.5192 5.09509 21.444 4.38211 21.5449C3.66913 21.6458 2.99027 21.9198 2.40249 22.344C1.81472 22.7681 1.33519 23.33 1.00415 23.9825C0.673109 24.6349 0.500222 25.359 0.5 26.0938V36.8125C0.5 37.2186 0.658035 37.6081 0.93934 37.8953C1.22064 38.1824 1.60218 38.3438 2 38.3438H14C14.3978 38.3438 14.7794 38.1824 15.0607 37.8953C15.342 37.6081 15.5 37.2186 15.5 36.8125V30.6875C15.5 30.2814 15.658 29.8919 15.9393 29.6047C16.2206 29.3176 16.6022 29.1562 17 29.1562C17.3978 29.1562 17.7794 29.3176 18.0607 29.6047C18.342 29.8919 18.5 30.2814 18.5 30.6875V36.8125C18.5 37.2186 18.658 37.6081 18.9393 37.8953C19.2206 38.1824 19.6022 38.3438 20 38.3438H26C26.3978 38.3438 26.7794 38.1824 27.0607 37.8953C27.342 37.6081 27.5 37.2186 27.5 36.8125V30.6875C27.5 30.2814 27.658 29.8919 27.9393 29.6047C28.2206 29.3176 28.6022 29.1562 29 29.1562C29.3978 29.1562 29.7794 29.3176 30.0607 29.6047C30.342 29.8919 30.5 30.2814 30.5 30.6875V36.8125C30.5 37.2186 30.658 37.6081 30.9393 37.8953C31.2206 38.1824 31.6022 38.3438 32 38.3438H44C44.3978 38.3438 44.7794 38.1824 45.0607 37.8953C45.342 37.6081 45.5 37.2186 45.5 36.8125V26.0938C45.5 24.8754 45.0259 23.707 44.182 22.8455C43.3381 21.984 42.1935 21.5 41 21.5ZM18.2431 9.20406C20.0562 7.97141 21.8056 6.77703 23 5.37594C24.1887 6.78277 25.9437 7.97715 27.7569 9.20406C31.5069 11.7536 35.7219 14.6189 36.4025 19.9688H9.59C10.2781 14.6189 14.4875 11.7536 18.2431 9.20406ZM3.5 26.0938C3.5 25.6876 3.65804 25.2982 3.93934 25.011C4.22064 24.7238 4.60218 24.5625 5 24.5625C5.39782 24.5625 5.77936 24.7238 6.06066 25.011C6.34196 25.2982 6.5 25.6876 6.5 26.0938V35.2812H3.5V26.0938ZM29 26.0938C27.8065 26.0938 26.6619 26.5777 25.818 27.4392C24.9741 28.3007 24.5 29.4692 24.5 30.6875V35.2812H21.5V30.6875C21.5 29.4692 21.0259 28.3007 20.182 27.4392C19.3381 26.5777 18.1935 26.0938 17 26.0938C15.8065 26.0938 14.6619 26.5777 13.818 27.4392C12.9741 28.3007 12.5 29.4692 12.5 30.6875V35.2812H9.5V23.0312H36.5V35.2812H33.5V30.6875C33.5 29.4692 33.0259 28.3007 32.182 27.4392C31.3381 26.5777 30.1935 26.0938 29 26.0938ZM42.5 35.2812H39.5V26.0938C39.5 25.6876 39.658 25.2982 39.9393 25.011C40.2206 24.7238 40.6022 24.5625 41 24.5625C41.3978 24.5625 41.7794 24.7238 42.0607 25.011C42.342 25.2982 42.5 25.6876 42.5 26.0938V35.2812Z" fill="#FF8B00"/>
</svg>
