<svg width="20" height="16" viewBox="0 0 20 16" fill="none" xmlns="http://www.w3.org/2000/svg">
<path d="M17.5 9C17.287 8.99988 17.0756 9.03635 16.875 9.10781V9C16.875 5.73594 14.4477 4.12031 12.675 2.94062C11.575 2.20781 10.625 1.57812 10.625 0.875C10.625 0.70924 10.5592 0.550268 10.4419 0.433058C10.3247 0.315848 10.1658 0.25 10 0.25C9.83424 0.25 9.67527 0.315848 9.55806 0.433058C9.44085 0.550268 9.375 0.70924 9.375 0.875C9.375 1.57812 8.425 2.20781 7.325 2.94062C5.55234 4.12031 3.125 5.73594 3.125 9V9.10781C2.84224 9.00784 2.53962 8.97716 2.24255 9.01834C1.94547 9.05952 1.66261 9.17136 1.4177 9.34448C1.1728 9.5176 0.972994 9.74694 0.835061 10.0133C0.697129 10.2796 0.625093 10.5751 0.625 10.875V15.25C0.625 15.4158 0.690848 15.5747 0.808058 15.6919C0.925268 15.8092 1.08424 15.875 1.25 15.875H6.25C6.41576 15.875 6.57473 15.8092 6.69194 15.6919C6.80915 15.5747 6.875 15.4158 6.875 15.25V12.75C6.875 12.5842 6.94085 12.4253 7.05806 12.3081C7.17527 12.1908 7.33424 12.125 7.5 12.125C7.66576 12.125 7.82473 12.1908 7.94194 12.3081C8.05915 12.4253 8.125 12.5842 8.125 12.75V15.25C8.125 15.4158 8.19085 15.5747 8.30806 15.6919C8.42527 15.8092 8.58424 15.875 8.75 15.875H11.25C11.4158 15.875 11.5747 15.8092 11.6919 15.6919C11.8092 15.5747 11.875 15.4158 11.875 15.25V12.75C11.875 12.5842 11.9408 12.4253 12.0581 12.3081C12.1753 12.1908 12.3342 12.125 12.5 12.125C12.6658 12.125 12.8247 12.1908 12.9419 12.3081C13.0592 12.4253 13.125 12.5842 13.125 12.75V15.25C13.125 15.4158 13.1908 15.5747 13.3081 15.6919C13.4253 15.8092 13.5842 15.875 13.75 15.875H18.75C18.9158 15.875 19.0747 15.8092 19.1919 15.6919C19.3092 15.5747 19.375 15.4158 19.375 15.25V10.875C19.375 10.3777 19.1775 9.90081 18.8258 9.54917C18.4742 9.19754 17.9973 9 17.5 9ZM8.01797 3.98125C8.77344 3.47812 9.50234 2.99062 10 2.41875C10.4953 2.99297 11.2266 3.48047 11.982 3.98125C13.5445 5.02187 15.3008 6.19141 15.5844 8.375H4.4125C4.69922 6.19141 6.45312 5.02187 8.01797 3.98125ZM1.875 10.875C1.875 10.7092 1.94085 10.5503 2.05806 10.4331C2.17527 10.3158 2.33424 10.25 2.5 10.25C2.66576 10.25 2.82473 10.3158 2.94194 10.4331C3.05915 10.5503 3.125 10.7092 3.125 10.875V14.625H1.875V10.875ZM12.5 10.875C12.0027 10.875 11.5258 11.0725 11.1742 11.4242C10.8225 11.7758 10.625 12.2527 10.625 12.75V14.625H9.375V12.75C9.375 12.2527 9.17746 11.7758 8.82583 11.4242C8.47419 11.0725 7.99728 10.875 7.5 10.875C7.00272 10.875 6.52581 11.0725 6.17417 11.4242C5.82254 11.7758 5.625 12.2527 5.625 12.75V14.625H4.375V9.625H15.625V14.625H14.375V12.75C14.375 12.2527 14.1775 11.7758 13.8258 11.4242C13.4742 11.0725 12.9973 10.875 12.5 10.875ZM18.125 14.625H16.875V10.875C16.875 10.7092 16.9408 10.5503 17.0581 10.4331C17.1753 10.3158 17.3342 10.25 17.5 10.25C17.6658 10.25 17.8247 10.3158 17.9419 10.4331C18.0592 10.5503 18.125 10.7092 18.125 10.875V14.625Z" fill="#464E5F"/>
</svg>
