<svg width="20" height="22" viewBox="0 0 20 22" fill="none" xmlns="http://www.w3.org/2000/svg">
<path d="M18.5922 11C18.5922 5.477 14.7921 1 10.1042 1C5.4162 1 1.61609 5.477 1.61609 11C1.61609 16.523 5.4162 21 10.1042 21" stroke="#C7C7C7" stroke-width="1.5" stroke-linecap="round" stroke-linejoin="round"/>
<path d="M16.8946 4.699C16.101 4.766 15.0849 5.129 14.3804 6.203C13.1072 8.143 11.8349 8.306 10.9861 7.659C9.71285 6.689 10.7832 5.116 9.2893 4.262C8.31572 3.705 8.17991 2.19 8.7223 1M1.61609 10C2.26373 10.662 3.1694 11.268 4.23805 11.268C6.44495 11.268 6.88633 11.765 6.88633 13.752C6.88633 15.739 6.88633 15.739 7.32771 17.229C7.6146 18.199 7.71476 19.167 7.14267 20M16.8089 18.929L18.5922 21M17.8351 16.046C17.8346 16.5779 17.7453 17.1044 17.5721 17.5956C17.3989 18.0867 17.1453 18.5329 16.8258 18.9086C16.5063 19.2843 16.1271 19.5822 15.7098 19.7852C15.2926 19.9883 14.8455 20.0925 14.394 20.092C13.9426 20.0925 13.4955 19.9883 13.0782 19.7852C12.661 19.5822 12.2818 19.2843 11.9622 18.9086C11.6427 18.5329 11.3891 18.0867 11.2159 17.5956C11.0428 17.1044 10.9534 16.5779 10.953 16.046C10.9534 15.5141 11.0428 14.9876 11.2159 14.4964C11.3891 14.0053 11.6427 13.5591 11.9622 13.1834C12.2818 12.8077 12.661 12.5098 13.0782 12.3068C13.4955 12.1037 13.9426 11.9995 14.394 12C14.8455 11.9995 15.2926 12.1037 15.7098 12.3068C16.1271 12.5098 16.5063 12.8077 16.8258 13.1834C17.1453 13.5591 17.3989 14.0053 17.5721 14.4964C17.7453 14.9876 17.8346 15.5141 17.8351 16.046Z" stroke="#C7C7C7" stroke-width="1.5" stroke-linecap="round" stroke-linejoin="round"/>
</svg>
