<svg width="17" height="20" viewBox="0 0 17 20" fill="none" xmlns="http://www.w3.org/2000/svg">
<path d="M4.53162 0.479113L3.55305 0.738313C2.68173 0.969347 1.9036 1.41442 1.31025 2.02116C0.716907 2.62789 0.333034 3.37103 0.203818 4.16311C-0.20153 6.64471 0.704702 9.54631 2.88976 12.8739C5.06935 16.1931 7.46868 18.3315 10.1096 19.2675C10.9581 19.5682 11.887 19.6483 12.7858 19.4984C13.6847 19.3484 14.5156 18.9746 15.1798 18.4215L15.9196 17.8047C16.3999 17.405 16.6989 16.8655 16.7609 16.2866C16.8229 15.7077 16.6437 15.1286 16.2567 14.6571L14.406 12.4011C14.1558 12.0965 13.8035 11.8685 13.3984 11.7488C12.9933 11.6292 12.5558 11.6239 12.1472 11.7339L9.34802 12.4863L9.27569 12.4983C8.96724 12.5379 8.25481 11.9511 7.36769 10.5999C6.43962 9.18631 6.24855 8.35951 6.50377 8.14591L7.92726 6.97831C8.44781 6.55167 8.8034 5.99244 8.94414 5.37909C9.08489 4.76574 9.00372 4.12904 8.71202 3.55831L7.80852 1.79311C7.53684 1.26192 7.05473 0.835726 6.45208 0.593968C5.84942 0.352209 5.16598 0.311387 4.53162 0.479113ZM6.56655 2.28511L7.46732 4.05031C7.64275 4.39259 7.6918 4.77459 7.60759 5.14264C7.52338 5.5107 7.31014 5.8463 6.99783 6.10231L5.57024 7.27111C4.65582 8.03191 4.9588 9.33031 6.18713 11.1999C7.34176 12.9591 8.39539 13.8279 9.52818 13.6767L9.69741 13.6455L12.5471 12.8811C12.6833 12.8443 12.8292 12.8459 12.9644 12.8858C13.0995 12.9256 13.217 13.0016 13.3005 13.1031L15.1512 15.3591C15.345 15.5949 15.4348 15.8845 15.4039 16.1741C15.373 16.4637 15.2236 16.7335 14.9833 16.9335L14.2422 17.5503C13.7677 17.9451 13.1743 18.2119 12.5325 18.3189C11.8906 18.4259 11.2273 18.3686 10.6214 18.1539C8.30395 17.3331 6.11343 15.3807 4.07305 12.2739C2.0272 9.15991 1.19876 6.51151 1.55498 4.33351C1.64719 3.76763 1.92136 3.23669 2.34523 2.80321C2.76909 2.36972 3.32499 2.05175 3.94748 1.88671L4.92605 1.62751C5.24331 1.54369 5.58441 1.56419 5.88575 1.68518C6.18709 1.80618 6.42809 2.01941 6.56382 2.28511" fill="#C7C7C7"/>
</svg>
