<svg width="17" height="18" viewBox="0 0 17 18" fill="none" xmlns="http://www.w3.org/2000/svg">
<path d="M12.75 12.3644H11.3333C11.1924 12.3644 11.0573 12.3084 10.9577 12.2088C10.858 12.1092 10.8021 11.9741 10.8021 11.8332C10.8021 11.6923 10.858 11.5571 10.9577 11.4575C11.0573 11.3579 11.1924 11.3019 11.3333 11.3019H12.75C12.9848 11.3019 13.21 11.2086 13.3761 11.0426C13.5421 10.8765 13.6354 10.6513 13.6354 10.4165V7.58317C13.6354 7.34834 13.5421 7.12313 13.3761 6.95709C13.21 6.79104 12.9848 6.69775 12.75 6.69775H4.24999C4.01517 6.69775 3.78996 6.79104 3.62391 6.95709C3.45786 7.12313 3.36458 7.34834 3.36458 7.58317V10.4165C3.36458 10.6513 3.45786 10.8765 3.62391 11.0426C3.78996 11.2086 4.01517 11.3019 4.24999 11.3019H5.66666C5.80756 11.3019 5.94268 11.3579 6.04231 11.4575C6.14194 11.5571 6.19791 11.6923 6.19791 11.8332C6.19791 11.9741 6.14194 12.1092 6.04231 12.2088C5.94268 12.3084 5.80756 12.3644 5.66666 12.3644H4.24999C3.73338 12.3644 3.23791 12.1592 2.87261 11.7939C2.5073 11.4286 2.30208 10.9331 2.30208 10.4165V7.58317C2.30208 7.06655 2.5073 6.57109 2.87261 6.20579C3.23791 5.84048 3.73338 5.63525 4.24999 5.63525H12.75C13.2666 5.63525 13.7621 5.84048 14.1274 6.20579C14.4927 6.57109 14.6979 7.06655 14.6979 7.58317V10.4165C14.6979 10.9331 14.4927 11.4286 14.1274 11.7939C13.7621 12.1592 13.2666 12.3644 12.75 12.3644Z" fill="white"/>
<path d="M11.3333 6.69808C11.193 6.69624 11.059 6.63968 10.9597 6.54045C10.8605 6.44122 10.8039 6.30716 10.8021 6.16683V3.86475H6.19792V6.16683C6.19792 6.30773 6.14195 6.44285 6.04232 6.54248C5.94269 6.64211 5.80757 6.69808 5.66667 6.69808C5.52578 6.69808 5.39065 6.64211 5.29102 6.54248C5.19139 6.44285 5.13542 6.30773 5.13542 6.16683V3.68766C5.13542 3.45284 5.22871 3.22763 5.39475 3.06158C5.5608 2.89553 5.78601 2.80225 6.02084 2.80225H10.9792C11.214 2.80225 11.4392 2.89553 11.6053 3.06158C11.7713 3.22763 11.8646 3.45284 11.8646 3.68766V6.16683C11.8628 6.30716 11.8062 6.44122 11.707 6.54045C11.6077 6.63968 11.4737 6.69624 11.3333 6.69808ZM10.9792 15.1981H6.02084C5.78601 15.1981 5.5608 15.1048 5.39475 14.9387C5.22871 14.7727 5.13542 14.5475 5.13542 14.3127V9.35433C5.13542 9.1195 5.22871 8.89429 5.39475 8.72825C5.5608 8.5622 5.78601 8.46891 6.02084 8.46891H10.9792C11.214 8.46891 11.4392 8.5622 11.6053 8.72825C11.7713 8.89429 11.8646 9.1195 11.8646 9.35433V14.3127C11.8646 14.5475 11.7713 14.7727 11.6053 14.9387C11.4392 15.1048 11.214 15.1981 10.9792 15.1981ZM6.19792 14.1356H10.8021V9.53141H6.19792V14.1356Z" fill="white"/>
</svg>
