<svg xmlns="http://www.w3.org/2000/svg" width="22" height="22" viewBox="0 0 22 22" fill="none">
<path d="M20.1668 11C20.1668 12.2039 19.9297 13.3959 19.469 14.5081C19.0083 15.6203 18.333 16.6309 17.4818 17.4821C16.6305 18.3334 15.62 19.0086 14.5078 19.4693C13.3955 19.93 12.2035 20.1671 10.9996 20.1671C9.7958 20.1671 8.60374 19.93 7.49154 19.4693C6.37933 19.0086 5.36875 18.3334 4.51751 17.4821C3.66626 16.6309 2.99102 15.6203 2.53033 14.5081C2.06963 13.3959 1.83252 12.2039 1.83252 11C1.83252 8.56874 2.79834 6.23704 4.51751 4.51787C6.23668 2.79871 8.56837 1.83289 10.9996 1.83289C13.4309 1.83289 15.7626 2.79871 17.4818 4.51787C19.2009 6.23704 20.1668 8.56874 20.1668 11Z" stroke="#E46538" stroke-width="1.5"/>
<path d="M14.6669 11C14.6669 12.2036 14.5715 13.3962 14.3873 14.5081C14.204 15.62 13.9335 16.6302 13.5925 17.4818C13.2525 18.3333 12.8482 19.008 12.4036 19.4691C11.9581 19.9293 11.4815 20.1667 11.0002 20.1667C10.519 20.1667 10.0423 19.9293 9.59771 19.4691C9.15221 19.008 8.74796 18.3324 8.40788 17.4818C8.06688 16.6302 7.79646 15.6209 7.61221 14.5081C7.42421 13.3482 7.33101 12.175 7.33355 11C7.33355 9.79643 7.42796 8.60384 7.61221 7.49193C7.79646 6.38001 8.06688 5.36984 8.40788 4.51826C8.74796 3.66668 9.15221 2.99201 9.5968 2.53093C10.0423 2.07168 10.519 1.83334 11.0002 1.83334C11.4815 1.83334 11.9581 2.07076 12.4027 2.53093C12.8482 2.99201 13.2525 3.66759 13.5925 4.51826C13.9335 5.36984 14.204 6.37909 14.3873 7.49193C14.5725 8.60384 14.6669 9.79643 14.6669 11Z" stroke="#E46538" stroke-width="1.5"/>
<path d="M1.8335 11H20.1668" stroke="#E46538" stroke-width="1.5" stroke-linecap="round"/>
</svg>