<svg width="24" height="24" viewBox="0 0 24 24" fill="none" xmlns="http://www.w3.org/2000/svg">
<g clip-path="url(#clip0_258_6505)">
<path d="M5.25 5H18.75C19.5801 4.99995 20.3788 5.31755 20.9822 5.88767C21.5856 6.45779 21.948 7.23719 21.995 8.066L22 8.25V17.75C22.0001 18.5801 21.6824 19.3788 21.1123 19.9822C20.5422 20.5856 19.7628 20.948 18.934 20.995L18.75 21H5.25C4.41986 21.0001 3.62117 20.6824 3.01777 20.1123C2.41437 19.5422 2.052 18.7628 2.005 17.934L2 17.75V8.25C1.99995 7.41986 2.31755 6.62117 2.88767 6.01777C3.45779 5.41437 4.23719 5.052 5.066 5.005L5.25 5ZM20.5 10.373L12.35 14.663C12.258 14.7116 12.1568 14.7405 12.053 14.7479C11.9492 14.7553 11.845 14.7411 11.747 14.706L11.651 14.664L3.5 10.374V17.75C3.50002 18.1892 3.66517 18.6123 3.96268 18.9354C4.26019 19.2585 4.6683 19.4579 5.106 19.494L5.25 19.5H18.75C19.1893 19.5 19.6126 19.3347 19.9357 19.037C20.2588 18.7392 20.4581 18.3309 20.494 17.893L20.5 17.75V10.373ZM18.75 6.5H5.25C4.81081 6.50002 4.38768 6.66517 4.06461 6.96268C3.74154 7.26019 3.54214 7.6683 3.506 8.106L3.5 8.25V8.679L12 13.153L20.5 8.678V8.25C20.5 7.81065 20.3347 7.38739 20.037 7.06429C19.7392 6.74119 19.3309 6.5419 18.893 6.506L18.75 6.5Z" fill="#C7C7C7"/>
</g>
<defs>
<clipPath id="clip0_258_6505">
<rect width="24" height="24" fill="white"/>
</clipPath>
</defs>
</svg>
