<svg width="120" height="180" viewBox="0 0 120 180" fill="none" xmlns="http://www.w3.org/2000/svg">
<path d="M113.07 23.1875C113.07 33.1978 106.166 41.3125 97.65 41.3125C89.1339 41.3125 82.2303 33.1978 82.2303 23.1875" stroke="#FFB017" stroke-width="13" stroke-linecap="round" stroke-linejoin="round"/>
<path d="M35.6254 93.6429C29.9011 118.585 42.2845 144.129 63.2833 150.699C84.2822 157.266 105.948 142.372 111.673 117.43C117.397 92.4876 105.014 66.9447 84.0147 60.375" stroke="#44AB96" stroke-width="13" stroke-linecap="round" stroke-linejoin="round"/>
<path d="M76.0593 -17.125C76.0593 -6.59722 83.2655 1.9375 92.1527 1.9375C101.04 1.9375 108.243 -6.59722 108.243 -17.125C108.243 -27.6528 101.04 -36.1875 92.1527 -36.1875H38.2507" stroke="#44AB96" stroke-width="13" stroke-linecap="round" stroke-linejoin="round"/>
<path d="M72.7104 88.1376C81.2266 88.1376 88.1301 96.125 88.1301 105.975C88.1301 115.825 81.2266 123.812 72.7104 123.812C64.1942 123.812 57.2907 115.825 57.2907 105.975V-10.25" stroke="#E53855" stroke-width="13" stroke-linecap="round" stroke-linejoin="round"/>
<path d="M-42.7362 99.75C-42.7362 81.456 -30.1734 66.625 -14.6765 66.625H34.7645" stroke="#44AB96" stroke-width="13" stroke-linecap="round" stroke-linejoin="round"/>
<path d="M38.2507 -9.625V7.17348C38.2507 24.1293 26.4509 37.875 11.8931 37.875H-8.67877" stroke="#4484AB" stroke-width="13" stroke-linecap="round" stroke-linejoin="round"/>
<path d="M21.152 -105.562C21.152 -109.152 18.2418 -112.062 14.652 -112.062C11.0621 -112.062 8.15199 -109.152 8.15199 -105.562H21.152ZM-16.0322 4.22037C-19.622 4.22037 -22.5322 7.13052 -22.5322 10.7204C-22.5322 14.3102 -19.622 17.2204 -16.0322 17.2204V4.22037ZM-60.1671 45.7501C-63.757 45.7501 -66.6671 48.6602 -66.6671 52.2501C-66.6671 55.84 -63.757 58.7501 -60.1671 58.7501V45.7501ZM-19.6203 20.9808C-19.6203 17.3909 -22.5304 14.4808 -26.1203 14.4808C-29.7101 14.4808 -32.6203 17.3909 -32.6203 20.9808H-19.6203ZM8.15199 -105.562V-61.0842H21.152V-105.562H8.15199ZM8.15199 -61.0842C8.15199 -56.7603 5.30441 -54.9168 3.69336 -54.9168V-41.9168C14.1871 -41.9168 21.152 -51.4111 21.152 -61.0842H8.15199ZM3.69336 -54.9168C-6.80328 -54.9168 -13.7653 -45.4147 -13.7653 -35.7446H-0.76527C-0.76527 -40.0721 2.08517 -41.9168 3.69336 -41.9168V-54.9168ZM-13.7653 -35.7446V-33.1162H-0.76527V-35.7446H-13.7653ZM-13.7653 -33.1162C-13.7653 -23.4466 -6.80339 -13.944 3.69336 -13.944V-26.944C2.08528 -26.944 -0.76527 -28.7889 -0.76527 -33.1162H-13.7653ZM3.69336 -13.944C5.30154 -13.944 8.15199 -12.0993 8.15199 -7.77174H21.152C21.152 -17.4418 14.19 -26.944 3.69336 -26.944V-13.944ZM8.15199 -7.77174V-4.86181H21.152V-7.77174H8.15199ZM8.15199 -4.86181C8.15199 1.07278 4.17484 4.22037 1.17693 4.22037V17.2204C13.0633 17.2204 21.152 6.41534 21.152 -4.86181H8.15199ZM1.17693 4.22037H-5.80412V17.2204H1.17693V4.22037ZM-5.80412 4.22037H-16.0322V17.2204H-5.80412V4.22037ZM-60.1671 58.7501H-52.9866V45.7501H-60.1671V58.7501ZM-52.9866 58.7501C-33.6682 58.7501 -19.6203 40.8797 -19.6203 20.9808H-32.6203C-32.6203 35.6212 -42.6291 45.7501 -52.9866 45.7501V58.7501Z" fill="#E53855"/>
<path fill-rule="evenodd" clip-rule="evenodd" d="M-23.9644 112.865C-23.9644 100.273 -15.1997 90.0625 -4.38805 90.0625V90.0625C6.4226 90.0625 15.1883 100.273 15.1883 112.865V129.448C15.1883 142.04 6.4226 152.25 -4.38805 152.25V152.25C-15.1997 152.25 -23.9644 142.04 -23.9644 129.448V112.865Z" stroke="#4484AB" stroke-width="13" stroke-linecap="round" stroke-linejoin="round"/>
</svg>
