<svg width="24" height="24" viewBox="0 0 24 24" fill="none" xmlns="http://www.w3.org/2000/svg">
<path d="M23.2 10.3948H24V10.1724L23.8864 9.98201L23.2 10.3948ZM0.8 10.3948L0.1136 9.98201L0 10.1756V10.3964L0.8 10.3948ZM5.6 18.3996V17.5996H4.8V18.3996H5.6ZM18.4 18.3996H19.2V17.5996H18.4V18.3996ZM22.4 10.3948V19.9996H24V10.3948H22.4ZM1.4864 10.806L4.888 5.14201L3.5152 4.31641L0.1136 9.98201L1.4864 10.806ZM8.3168 3.19961H15.6832V1.59961H8.3168V3.19961ZM19.112 5.14041L22.5136 10.806L23.8864 9.98201L20.4848 4.31641L19.112 5.14041ZM4 20.7996H2.4V22.3996H4V20.7996ZM4.8 18.3996V19.9996H6.4V18.3996H4.8ZM21.6 20.7996H20V22.3996H21.6V20.7996ZM19.2 19.9996V18.3996H17.6V19.9996H19.2ZM18.4 17.5996H5.6V19.1996H18.4V17.5996ZM1.6 19.9996V10.3948L0 10.3964V19.9996H1.6ZM20 20.7996C19.7878 20.7996 19.5843 20.7153 19.4343 20.5653C19.2843 20.4153 19.2 20.2118 19.2 19.9996H17.6C17.6 20.6361 17.8529 21.2466 18.3029 21.6967C18.753 22.1468 19.3635 22.3996 20 22.3996V20.7996ZM4 22.3996C4.63652 22.3996 5.24697 22.1468 5.69706 21.6967C6.14714 21.2466 6.4 20.6361 6.4 19.9996H4.8C4.8 20.2118 4.71571 20.4153 4.56569 20.5653C4.41566 20.7153 4.21217 20.7996 4 20.7996V22.3996ZM2.4 20.7996C2.18783 20.7996 1.98434 20.7153 1.83431 20.5653C1.68429 20.4153 1.6 20.2118 1.6 19.9996H0C0 20.6361 0.252856 21.2466 0.702944 21.6967C1.15303 22.1468 1.76348 22.3996 2.4 22.3996V20.7996ZM15.6832 3.19961C16.3736 3.19969 17.0523 3.37847 17.6531 3.71857C18.254 4.05867 18.7566 4.5485 19.112 5.14041L20.4848 4.31641C19.987 3.48761 19.2832 2.80179 18.4418 2.3257C17.6003 1.84961 16.65 1.59946 15.6832 1.59961V3.19961ZM4.888 5.14201C5.24343 4.5501 5.74602 4.05867 6.34687 3.71857C6.94772 3.37847 7.62637 3.19969 8.3168 3.19961V1.59961C7.35029 1.59974 6.40026 1.85001 5.55913 2.32609C4.71801 2.80217 4.01282 3.48784 3.5152 4.31641L4.888 5.14201ZM22.4 19.9996C22.4 20.2118 22.3157 20.4153 22.1657 20.5653C22.0157 20.7153 21.8122 20.7996 21.6 20.7996V22.3996C22.2365 22.3996 22.847 22.1468 23.2971 21.6967C23.7471 21.2466 24 20.6361 24 19.9996H22.4ZM3.2 15.9996H8V14.3996H3.2V15.9996ZM20.8 14.3996H16V15.9996H20.8V14.3996ZM4.8 11.1996H19.2V9.59961H4.8V11.1996Z" fill="#FF8B00"/>
</svg>
