<svg width="30" height="26" viewBox="0 0 30 26" fill="none" xmlns="http://www.w3.org/2000/svg">
<path d="M15 7.37501C15.9375 3.67423 19.4783 1.78458 27.1875 1.75001C27.3108 1.74954 27.4329 1.77347 27.5468 1.82042C27.6608 1.86737 27.7643 1.93641 27.8515 2.02356C27.9386 2.11071 28.0076 2.21424 28.0546 2.32819C28.1015 2.44214 28.1255 2.56426 28.125 2.68751V19.5625C28.125 19.8111 28.0262 20.0496 27.8504 20.2254C27.6746 20.4012 27.4361 20.5 27.1875 20.5C19.6875 20.5 16.79 22.0123 15 24.25M15 7.37501C14.0625 3.67423 10.5217 1.78458 2.81251 1.75001C2.68926 1.74954 2.56714 1.77347 2.45319 1.82042C2.33924 1.86737 2.23571 1.93641 2.14856 2.02356C2.06141 2.11071 1.99237 2.21424 1.94542 2.32819C1.89847 2.44214 1.87454 2.56426 1.87501 2.68751V19.4494C1.87501 20.0283 2.2336 20.5 2.81251 20.5C10.3125 20.5 13.2205 22.0234 15 24.25M15 7.37501V24.25" stroke="#979797" stroke-width="2" stroke-linecap="round" stroke-linejoin="round"/>
</svg>
