<svg width="23" height="19" viewBox="0 0 23 19" fill="none" xmlns="http://www.w3.org/2000/svg">
<path d="M11.5 0.875011C9.18059 0.875011 7.16809 2.49795 6.62616 4.71601C5.72352 5.06736 4.99663 5.76169 4.60431 6.64729C2.09156 6.46185 0 8.46142 0 10.9375C0 13.3159 1.93416 15.25 4.3125 15.25H5.75L6.46875 13.8125H4.3125C2.72622 13.8125 1.4375 12.5238 1.4375 10.9375C1.43759 10.5065 1.53453 10.081 1.72113 9.69248C1.90774 9.30395 2.17926 8.96231 2.51563 8.6928C2.85199 8.4233 3.24461 8.2328 3.66448 8.1354C4.08435 8.038 4.52074 8.03618 4.94141 8.13007L5.66016 8.28748L5.79528 7.59029C5.97209 6.79607 6.61753 6.16429 7.41247 5.9731L7.88397 5.8617L7.95153 5.38948C8.20884 3.64076 9.73403 2.31251 11.5 2.31251C12.1661 2.31117 12.8195 2.49538 13.3868 2.84449C13.9542 3.1936 14.4131 3.69382 14.7121 4.28907L14.9816 4.85042L15.5875 4.64845C15.9253 4.53057 16.2308 4.46876 16.5312 4.46876C18.1175 4.46876 19.4062 5.75748 19.4062 7.34376C19.4062 7.37251 19.4091 7.40845 19.4062 7.4336C19.4005 7.48104 19.3897 7.5177 19.384 7.56873L19.3387 8.08479L19.8109 8.28676C20.4217 8.54592 20.9241 9.00821 21.2331 9.59535C21.5422 10.1825 21.6387 10.8584 21.5066 11.5086C21.3744 12.1588 21.0215 12.7433 20.5078 13.1631C19.9941 13.583 19.351 13.8124 18.6875 13.8125H17.25L17.9688 15.25H18.6875C21.0658 15.25 23 13.3159 23 10.9375C23.0004 10.1812 22.8013 9.43819 22.4227 8.78347C22.0441 8.12875 21.4995 7.58552 20.8438 7.20864C20.7683 4.89642 18.8614 3.03126 16.5312 3.03126C16.2509 3.03126 15.9613 3.06001 15.6774 3.1211C15.2222 2.42942 14.602 1.86192 13.8727 1.46979C13.1434 1.07767 12.328 0.873266 11.5 0.875011ZM12.9375 8.06251C12.9375 8.06251 11.5 10.1433 11.5 10.9375C11.5 11.7317 12.1433 12.375 12.9375 12.375C13.7317 12.375 14.375 11.7317 14.375 10.9375C14.375 10.1433 12.9375 8.06251 12.9375 8.06251ZM9.34375 11.6563C9.34375 11.6563 7.90625 13.737 7.90625 14.5313C7.90625 15.3255 8.54953 15.9688 9.34375 15.9688C10.138 15.9688 10.7812 15.3255 10.7812 14.5313C10.7812 13.737 9.34375 11.6563 9.34375 11.6563ZM15.0938 13.8125C15.0938 13.8125 13.6562 15.8933 13.6562 16.6875C13.6562 17.4817 14.2995 18.125 15.0938 18.125C15.888 18.125 16.5312 17.4817 16.5312 16.6875C16.5312 15.8933 15.0938 13.8125 15.0938 13.8125Z" fill="#FF8B00"/>
</svg>
