<svg width="25" height="25" viewBox="0 0 25 25" fill="none" xmlns="http://www.w3.org/2000/svg">
<path fill-rule="evenodd" clip-rule="evenodd" d="M13.2084 16.0418C12.6461 15.4697 12.3301 14.7002 12.3282 13.8981C12.3262 13.0959 12.6384 12.3249 13.1979 11.7501C13.2126 10.9425 13.54 10.172 14.1112 9.60086C14.6824 9.02968 15.4528 8.70231 16.2604 8.68761C16.8319 8.12687 17.6005 7.81273 18.4011 7.81273C19.2017 7.81273 19.9703 8.12687 20.5417 8.68761C20.5643 8.71322 20.5942 8.73129 20.6273 8.73935C20.6605 8.74742 20.6954 8.74511 20.7272 8.73272C20.759 8.72034 20.7862 8.69848 20.8052 8.6701C20.8242 8.64173 20.834 8.6082 20.8334 8.57407V6.25011C20.8939 5.82562 20.8548 5.39287 20.7192 4.9861C20.5836 4.57934 20.3551 4.20973 20.0519 3.90653C19.7487 3.60333 19.3791 3.37488 18.9724 3.23925C18.5656 3.10362 18.1328 3.06454 17.7084 3.12511H5.20836C4.78388 3.06454 4.35112 3.10362 3.94435 3.23925C3.53759 3.37488 3.16798 3.60333 2.86478 3.90653C2.56159 4.20973 2.33313 4.57934 2.1975 4.9861C2.06187 5.39287 2.0228 5.82562 2.08336 6.25011V14.5834C2.0228 15.0079 2.06187 15.4407 2.1975 15.8474C2.33313 16.2542 2.56159 16.6238 2.86478 16.927C3.16798 17.2302 3.53759 17.4587 3.94435 17.5943C4.35112 17.7299 4.78388 17.769 5.20836 17.7084H13.2C13.2513 17.7094 13.302 17.6974 13.3474 17.6737C13.3928 17.6499 13.4316 17.6152 13.4601 17.5725C13.4886 17.5299 13.5059 17.4809 13.5106 17.4298C13.5152 17.3787 13.5069 17.3273 13.4865 17.2803C13.3044 16.8928 13.2095 16.47 13.2084 16.0418ZM6.25003 7.55219H12.5C12.7072 7.55219 12.9059 7.6345 13.0525 7.78101C13.199 7.92753 13.2813 8.12624 13.2813 8.33344C13.2813 8.54064 13.199 8.73936 13.0525 8.88587C12.9059 9.03238 12.7072 9.11469 12.5 9.11469H6.25003C6.04283 9.11469 5.84411 9.03238 5.6976 8.88587C5.55109 8.73936 5.46878 8.54064 5.46878 8.33344C5.46878 8.12624 5.55109 7.92753 5.6976 7.78101C5.84411 7.6345 6.04283 7.55219 6.25003 7.55219ZM9.37503 13.2814H6.25003C6.04283 13.2814 5.84411 13.199 5.6976 13.0525C5.55109 12.906 5.46878 12.7073 5.46878 12.5001C5.46878 12.2929 5.55109 12.0942 5.6976 11.9477C5.84411 11.8012 6.04283 11.7189 6.25003 11.7189H9.37503C9.58223 11.7189 9.78094 11.8012 9.92745 11.9477C10.074 12.0942 10.1563 12.2929 10.1563 12.5001C10.1563 12.7073 10.074 12.906 9.92745 13.0525C9.78094 13.199 9.58223 13.2814 9.37503 13.2814ZM22.475 12.8262C22.3066 12.7099 22.1753 12.5475 22.097 12.3585C22.0186 12.1695 21.9965 11.9618 22.0334 11.7605C22.0278 11.5373 21.9745 11.3179 21.877 11.117C21.7795 10.9161 21.64 10.7385 21.4681 10.5961C21.2961 10.4536 21.0957 10.3497 20.8802 10.2913C20.6646 10.2329 20.4391 10.2213 20.2188 10.2574C20.0688 10.2427 19.9237 10.1955 19.7937 10.1193C19.6637 10.043 19.5518 9.93946 19.4657 9.81573C19.1836 9.53369 18.801 9.37524 18.4021 9.37524C18.0032 9.37524 17.6206 9.53369 17.3386 9.81573C17.2528 9.93981 17.141 10.0436 17.0109 10.1199C16.8808 10.1962 16.7356 10.2431 16.5854 10.2574C16.3382 10.2182 16.0851 10.238 15.847 10.3153C15.6089 10.3926 15.3924 10.5252 15.2153 10.7021C15.0383 10.8791 14.9056 11.0955 14.8281 11.3336C14.7507 11.5717 14.7307 11.8247 14.7698 12.072C14.7552 12.2222 14.7082 12.3674 14.6319 12.4976C14.5556 12.6278 14.452 12.7399 14.3282 12.8262C14.0464 13.1082 13.8882 13.4905 13.8882 13.8892C13.8882 14.2878 14.0464 14.6702 14.3282 14.9522C14.4969 15.0679 14.6284 15.23 14.7068 15.419C14.7852 15.608 14.8071 15.8156 14.7698 16.0168C14.7706 16.3975 14.9161 16.7636 15.1769 17.041C15.4376 17.3183 15.7941 17.4862 16.174 17.5105L14.9302 21.8751L16.8542 21.1043C17.8485 20.7084 18.9567 20.7084 19.9511 21.1043L21.875 21.8751L20.6313 17.5105C21.0109 17.4859 21.367 17.3179 21.6273 17.0406C21.8877 16.7632 22.0328 16.3972 22.0334 16.0168C22.0066 15.8687 22.0125 15.7166 22.0506 15.571C22.0888 15.4255 22.1582 15.29 22.2542 15.1741C22.4359 15.0438 22.5875 14.8761 22.6988 14.6823C22.8102 14.4885 22.8786 14.273 22.8995 14.0504C22.9205 13.8279 22.8934 13.6034 22.8202 13.3922C22.7469 13.181 22.6292 12.988 22.475 12.8262ZM18.4032 15.6251C18.0597 15.6253 17.7238 15.5236 17.4381 15.333C17.1524 15.1423 16.9297 14.8712 16.7981 14.5539C16.6665 14.2366 16.632 13.8874 16.6989 13.5505C16.7658 13.2136 16.9311 12.9041 17.1739 12.6612C17.4167 12.4182 17.7261 12.2527 18.063 12.1856C18.3998 12.1185 18.749 12.1529 19.0664 12.2843C19.3837 12.4157 19.655 12.6382 19.8458 12.9238C20.0367 13.2094 20.1386 13.5452 20.1386 13.8887C20.1386 14.349 19.9558 14.7905 19.6303 15.1161C19.3049 15.4418 18.8635 15.6248 18.4032 15.6251Z" fill="#076871"/>
</svg>
