<svg width="30" height="30" viewBox="0 0 30 30" fill="none" xmlns="http://www.w3.org/2000/svg">
<path fill-rule="evenodd" clip-rule="evenodd" d="M15.85 19.25C15.1752 18.5635 14.7961 17.6401 14.7937 16.6775C14.7914 15.7149 15.1661 14.7897 15.8375 14.1C15.8551 13.1308 16.248 12.2063 16.9334 11.5209C17.6188 10.8355 18.5433 10.4426 19.5125 10.425C20.1982 9.75209 21.1205 9.37512 22.0812 9.37512C23.0419 9.37512 23.9643 9.75209 24.65 10.425C24.6771 10.4557 24.7129 10.4774 24.7528 10.4871C24.7926 10.4967 24.8344 10.494 24.8726 10.4791C24.9107 10.4642 24.9434 10.438 24.9662 10.404C24.989 10.3699 25.0008 10.3297 25 10.2887V7.49997C25.0726 6.99059 25.0258 6.47129 24.863 5.98317C24.7002 5.49504 24.4261 5.05151 24.0623 4.68768C23.6984 4.32384 23.2549 4.0497 22.7668 3.88694C22.2787 3.72419 21.7594 3.67729 21.25 3.74997H6.24997C5.74059 3.67729 5.22129 3.72419 4.73316 3.88694C4.24504 4.0497 3.80151 4.32384 3.43768 4.68768C3.07384 5.05151 2.7997 5.49504 2.63694 5.98317C2.47419 6.47129 2.42729 6.99059 2.49997 7.49997V17.5C2.42729 18.0094 2.47419 18.5287 2.63694 19.0168C2.7997 19.5049 3.07384 19.9484 3.43768 20.3123C3.80151 20.6761 4.24504 20.9502 4.73316 21.113C5.22129 21.2758 5.74059 21.3227 6.24997 21.25H15.84C15.9015 21.2511 15.9623 21.2367 16.0168 21.2082C16.0713 21.1798 16.1178 21.138 16.152 21.0869C16.1862 21.0358 16.2071 20.9769 16.2126 20.9156C16.2181 20.8543 16.2082 20.7927 16.1837 20.7362C15.9652 20.2711 15.8513 19.7638 15.85 19.25ZM7.49997 9.06247H15C15.2486 9.06247 15.4871 9.16124 15.6629 9.33706C15.8387 9.51287 15.9375 9.75133 15.9375 9.99997C15.9375 10.2486 15.8387 10.4871 15.6629 10.6629C15.4871 10.8387 15.2486 10.9375 15 10.9375H7.49997C7.25133 10.9375 7.01287 10.8387 6.83706 10.6629C6.66124 10.4871 6.56247 10.2486 6.56247 9.99997C6.56247 9.75133 6.66124 9.51287 6.83706 9.33706C7.01287 9.16124 7.25133 9.06247 7.49997 9.06247ZM11.25 15.9375H7.49997C7.25133 15.9375 7.01287 15.8387 6.83706 15.6629C6.66124 15.4871 6.56247 15.2486 6.56247 15C6.56247 14.7513 6.66124 14.5129 6.83706 14.3371C7.01287 14.1612 7.25133 14.0625 7.49997 14.0625H11.25C11.4986 14.0625 11.7371 14.1612 11.9129 14.3371C12.0887 14.5129 12.1875 14.7513 12.1875 15C12.1875 15.2486 12.0887 15.4871 11.9129 15.6629C11.7371 15.8387 11.4986 15.9375 11.25 15.9375ZM26.97 15.3912C26.7679 15.2517 26.6103 15.0569 26.5163 14.83C26.4223 14.6032 26.3958 14.354 26.44 14.1125C26.4333 13.8446 26.3693 13.5813 26.2523 13.3403C26.1353 13.0992 25.968 12.886 25.7617 12.7151C25.5553 12.5442 25.3147 12.4195 25.0561 12.3494C24.7975 12.2793 24.5269 12.2654 24.2625 12.3087C24.0825 12.291 23.9084 12.2345 23.7524 12.143C23.5964 12.0515 23.462 11.9272 23.3587 11.7787C23.0202 11.4403 22.5611 11.2501 22.0825 11.2501C21.6038 11.2501 21.1447 11.4403 20.8062 11.7787C20.7033 11.9276 20.5691 12.0522 20.413 12.1437C20.2569 12.2353 20.0826 12.2916 19.9025 12.3087C19.6058 12.2616 19.3021 12.2854 19.0163 12.3782C18.7306 12.471 18.4708 12.63 18.2584 12.8424C18.0459 13.0548 17.8866 13.3144 17.7937 13.6001C17.7008 13.8858 17.6768 14.1895 17.7237 14.4862C17.7062 14.6665 17.6497 14.8407 17.5582 14.997C17.4667 15.1533 17.3423 15.2878 17.1937 15.3912C16.8556 15.7297 16.6658 16.1885 16.6658 16.6668C16.6658 17.1452 16.8556 17.604 17.1937 17.9425C17.3962 18.0813 17.554 18.2759 17.6481 18.5027C17.7422 18.7294 17.7684 18.9786 17.7237 19.22C17.7247 19.6768 17.8993 20.1162 18.2122 20.449C18.5251 20.7819 18.9528 20.9833 19.4087 21.0125L17.9162 26.25L20.225 25.325C21.4182 24.85 22.748 24.85 23.9412 25.325L26.25 26.25L24.7575 21.0125C25.213 20.983 25.6403 20.7814 25.9527 20.4485C26.2652 20.1157 26.4393 19.6765 26.44 19.22C26.4079 19.0423 26.4149 18.8597 26.4607 18.6851C26.5065 18.5104 26.5898 18.3478 26.705 18.2087C26.923 18.0524 27.1049 17.8512 27.2385 17.6186C27.3721 17.386 27.4543 17.1274 27.4794 16.8603C27.5045 16.5933 27.472 16.3239 27.3842 16.0705C27.2963 15.817 27.155 15.5854 26.97 15.3912ZM22.0837 18.75C21.6715 18.7502 21.2685 18.6282 20.9257 18.3994C20.5829 18.1706 20.3156 17.8452 20.1577 17.4645C19.9998 17.0838 19.9583 16.6648 20.0386 16.2605C20.1189 15.8562 20.3172 15.4848 20.6086 15.1932C20.9 14.9017 21.2712 14.7031 21.6755 14.6226C22.0797 14.5421 22.4988 14.5833 22.8796 14.741C23.2604 14.8986 23.5859 15.1657 23.815 15.5084C24.044 15.8511 24.1662 16.254 24.1662 16.6662C24.1662 17.2187 23.9469 17.7485 23.5563 18.1392C23.1658 18.53 22.6362 18.7496 22.0837 18.75Z" fill="white"/>
</svg>
