<svg width="30" height="30" viewBox="0 0 30 30" fill="none" xmlns="http://www.w3.org/2000/svg">
<g clip-path="url(#clip0_13_3327)">
<path d="M10.8108 0H2.70268C1.65944 0 0.810791 0.822128 0.810791 1.83277V6.54561C0.810791 7.55625 1.65944 8.37838 2.70268 8.37838H10.8108C11.854 8.37838 12.7027 7.55625 12.7027 6.54561V1.83277C12.7027 0.822128 11.854 0 10.8108 0Z" fill="white"/>
<path d="M10.8108 10.473H2.70268C1.65944 10.473 0.810791 11.2952 0.810791 12.3058V23.3024C0.810791 24.3131 1.65944 25.1352 2.70268 25.1352H10.8108C11.854 25.1352 12.7027 24.3131 12.7027 23.3024V12.3058C12.7027 11.2952 11.854 10.473 10.8108 10.473Z" fill="white"/>
<path d="M24.8649 16.7567H16.7568C15.7135 16.7567 14.8649 17.5788 14.8649 18.5895V23.3023C14.8649 24.313 15.7135 25.1351 16.7568 25.1351H24.8649C25.9081 25.1351 26.7568 24.313 26.7568 23.3023V18.5895C26.7568 17.5788 25.9081 16.7567 24.8649 16.7567Z" fill="white"/>
<path d="M24.8649 0H16.7568C15.7135 0 14.8649 0.822128 14.8649 1.83277V12.8294C14.8649 13.84 15.7135 14.6622 16.7568 14.6622H24.8649C25.9081 14.6622 26.7568 13.84 26.7568 12.8294V1.83277C26.7568 0.822128 25.9081 0 24.8649 0Z" fill="white"/>
</g>
<defs>
<clipPath id="clip0_13_3327">
<rect width="25.9459" height="25.1351" fill="white" transform="translate(0.810791)"/>
</clipPath>
</defs>
</svg>
