<svg width="30" height="30" viewBox="0 0 30 30" fill="none" xmlns="http://www.w3.org/2000/svg">
<path d="M6.29532 10.5739C5.82189 10.6137 5.38654 10.7901 5.0297 11.0637V8.93088C5.0297 8.1885 5.58107 7.57034 6.29532 7.4678V10.5739ZM23.4908 7.45139H22.3565V8.00452C23.117 8.29514 23.7035 8.9678 23.7035 9.84143V13.9453C24.177 13.9869 24.6123 14.1627 24.9709 14.4352V8.93088C24.9703 8.11702 24.3047 7.45139 23.4908 7.45139ZM10.9606 10.5639H7.26329V1.5053C7.26329 0.677954 7.984 0.000610352 8.86466 0.000610352H19.7854C20.6672 0.000610352 21.3879 0.67854 21.3879 1.5053V7.84807H13.1549C12.0287 7.84807 10.9606 8.6637 10.9606 9.84143V10.5639ZM9.52208 3.25725C9.52208 3.52444 9.73829 3.74241 10.0055 3.74241H18.644C18.9111 3.74241 19.1291 3.52502 19.1291 3.25725C19.1291 2.98948 18.9117 2.77385 18.644 2.77385H10.0055C9.73829 2.77385 9.52208 2.99006 9.52208 3.25725ZM10.0055 7.21526H18.644C18.9111 7.21526 19.1291 6.99788 19.1291 6.73186C19.1291 6.46467 18.9117 6.2467 18.644 6.2467H10.0055C9.73829 6.2467 9.52208 6.46409 9.52208 6.73186C9.52208 6.99788 9.73829 7.21526 10.0055 7.21526ZM11.9291 9.84143V10.5639H13.0354C13.9588 10.5639 14.7709 11.0555 15.201 11.8729L16.1426 13.6617C16.2375 13.8428 16.3916 13.936 16.5961 13.936H22.7367V9.84202C22.7367 9.27717 22.1854 8.81721 21.5109 8.81721H13.1549C12.4805 8.81663 11.9291 9.27659 11.9291 9.84143ZM23.4908 14.9039H16.5961C16.0313 14.9039 15.5479 14.6115 15.2854 14.1135L14.3438 12.3229C14.0813 11.8231 13.5979 11.5324 13.0348 11.5324H6.50743C5.69357 11.5324 5.02911 12.1969 5.02911 13.0108V25.009C5.02911 25.8246 5.69357 26.4891 6.50743 26.4891H9.20802L9.27599 26.3543C9.12013 26.0485 8.98888 25.7297 8.88224 25.4028L8.35724 25.2317C7.81759 25.0571 7.45724 24.5608 7.45724 23.9942V22.8598C7.45724 22.2932 7.81759 21.7969 8.35724 21.6205L8.88224 21.4512C8.98712 21.1242 9.11954 20.8049 9.27599 20.4996L9.02521 20.0063C8.76915 19.503 8.86583 18.8953 9.26603 18.4946L10.0664 17.6924C10.4666 17.2922 11.0748 17.1955 11.5793 17.4533L12.0709 17.7041C12.3768 17.5483 12.6955 17.4153 13.0225 17.3104L13.1936 16.7854C13.3682 16.2457 13.8645 15.8854 14.4311 15.8854H15.5654C16.132 15.8854 16.6283 16.2457 16.8047 16.7854L16.974 17.3104C17.301 17.4153 17.6203 17.5477 17.9256 17.7041L18.419 17.4533C18.9223 17.1973 19.5299 17.2922 19.9307 17.6924L20.7328 18.4946C21.133 18.8948 21.2279 19.503 20.9719 20.0063L20.7211 20.4996C20.877 20.8055 21.01 21.1242 21.1149 21.4512L21.6399 21.6205C22.1795 21.7963 22.5399 22.2932 22.5399 22.8598V23.9942C22.5399 24.5608 22.1795 25.0571 21.6399 25.2317L21.1149 25.4028C21.01 25.7297 20.8775 26.049 20.7211 26.3543L20.7891 26.4891H23.4897C24.3035 26.4891 24.9697 25.8246 24.9697 25.009V16.384C24.9703 15.5678 24.3047 14.9039 23.4908 14.9039ZM15 21.2701C14.4035 21.2701 13.8639 21.511 13.4736 21.9012C13.0834 22.2914 12.8426 22.8311 12.8426 23.4258C12.8426 24.0223 13.0834 24.5619 13.4736 24.9522C13.8639 25.3424 14.4035 25.5832 15 25.5832C15.5947 25.5832 16.1344 25.3424 16.5246 24.9522C16.9149 24.5619 17.1557 24.0223 17.1557 23.4258C17.1557 22.8311 16.9149 22.2914 16.5246 21.9012C16.1344 21.511 15.5947 21.2701 15 21.2701ZM21.3416 24.3112L20.4996 24.5854C20.3883 24.6217 20.3086 24.7049 20.2787 24.818C20.1527 25.2996 19.9617 25.7549 19.7174 26.175C19.6576 26.2764 19.6541 26.3912 19.7074 26.4955L20.1111 27.286C20.1774 27.4172 20.1527 27.5701 20.0496 27.6744L19.2475 28.4748C19.1426 28.5797 18.9902 28.6043 18.859 28.5364L18.0686 28.1344C17.9654 28.0811 17.8494 28.0846 17.7498 28.1444C17.3297 28.3887 16.8727 28.5797 16.3928 28.7057C16.2779 28.7356 16.1953 28.8153 16.1584 28.9266L15.8842 29.7686C15.8391 29.9098 15.7149 29.9994 15.5672 29.9994H14.4328C14.2869 29.9994 14.1604 29.9098 14.1158 29.7686L13.8416 28.9266C13.8053 28.8153 13.7221 28.7356 13.609 28.7057C13.1274 28.5797 12.6703 28.3887 12.252 28.1444C12.1506 28.0846 12.0358 28.0811 11.9315 28.1344L11.141 28.5364C11.0098 28.6043 10.8568 28.5797 10.7526 28.4748L9.95216 27.6744C9.84728 27.5696 9.82267 27.4172 9.89064 27.286L10.2926 26.4955C10.3459 26.3906 10.3424 26.2764 10.2826 26.175C10.0383 25.7549 9.84728 25.2996 9.7213 24.818C9.69142 24.7049 9.61173 24.6223 9.5004 24.5854L8.65841 24.3112C8.5172 24.266 8.42755 24.1401 8.42755 23.9942V22.8598C8.42755 22.7121 8.5172 22.5873 8.65841 22.5428L9.5004 22.2686C9.61173 22.2323 9.69142 22.149 9.7213 22.0342C9.84728 21.5543 10.0383 21.0973 10.2826 20.6789C10.3424 20.5776 10.3459 20.4615 10.2926 20.3584L9.89064 19.568C9.82267 19.4367 9.84728 19.2838 9.95216 19.1795L10.7526 18.3774C10.8574 18.2742 11.0098 18.2496 11.141 18.3158L11.9315 18.7196C12.0363 18.7729 12.1506 18.7694 12.252 18.7096C12.6703 18.4653 13.1274 18.2742 13.609 18.1465C13.7221 18.1184 13.8047 18.0387 13.8416 17.9274L14.1158 17.0854C14.1609 16.9442 14.2869 16.8528 14.4328 16.8528H15.5672C15.7149 16.8528 15.8397 16.9442 15.8842 17.0854L16.1584 17.9274C16.1947 18.0387 16.2779 18.1184 16.3928 18.1465C16.8727 18.2742 17.3297 18.4653 17.7498 18.7096C17.8512 18.7694 17.966 18.7729 18.0703 18.7196L18.859 18.3158C18.9902 18.2496 19.1432 18.2742 19.2475 18.3774L20.0496 19.1795C20.1527 19.2844 20.1774 19.4367 20.1111 19.568L19.7074 20.3584C19.6541 20.4615 19.6576 20.5776 19.7174 20.6789C19.9617 21.0973 20.1527 21.5543 20.2805 22.0342C20.3086 22.149 20.3883 22.2317 20.4996 22.2686L21.3416 22.5428C21.4828 22.5879 21.5725 22.7121 21.5725 22.8598V23.9942C21.5725 24.1401 21.4828 24.266 21.3416 24.3112ZM18.1242 23.4258C18.1242 22.5639 17.7738 21.7834 17.209 21.2168C16.6424 20.652 15.8619 20.3016 15 20.3016C14.1363 20.3016 13.3559 20.652 12.7893 21.2168C12.2244 21.7834 11.874 22.5639 11.874 23.4258C11.874 24.2895 12.2244 25.0699 12.7893 25.6365C13.3559 26.2014 14.1363 26.55 15 26.55C15.8619 26.55 16.6424 26.2014 17.209 25.6365C17.7738 25.0699 18.1242 24.2895 18.1242 23.4258Z" fill="white"/>
</svg>
