<svg width="28" height="28" viewBox="0 0 28 28" fill="none" xmlns="http://www.w3.org/2000/svg">
<path d="M5.87564 9.86885C5.43377 9.90604 5.02744 10.0706 4.69439 10.326V8.33541C4.69439 7.64252 5.209 7.06557 5.87564 6.96986V9.86885ZM21.9248 6.95455H20.866V7.4708C21.5759 7.74205 22.1233 8.36986 22.1233 9.18526V13.0156C22.5652 13.0544 22.9715 13.2185 23.3062 13.4728V8.33541C23.3056 7.5758 22.6844 6.95455 21.9248 6.95455ZM10.2299 9.85955H6.77908V1.40486C6.77908 0.632676 7.45174 0.000488281 8.27369 0.000488281H18.4663C19.2894 0.000488281 19.962 0.633223 19.962 1.40486V7.32479H12.2779C11.2268 7.32479 10.2299 8.08604 10.2299 9.18526V9.85955ZM8.88728 3.04002C8.88728 3.28939 9.08908 3.49283 9.33846 3.49283H17.401C17.6504 3.49283 17.8538 3.28994 17.8538 3.04002C17.8538 2.7901 17.651 2.58885 17.401 2.58885H9.33846C9.08908 2.58885 8.88728 2.79064 8.88728 3.04002ZM9.33846 6.73416H17.401C17.6504 6.73416 17.8538 6.53127 17.8538 6.28299C17.8538 6.03361 17.651 5.83018 17.401 5.83018H9.33846C9.08908 5.83018 8.88728 6.03307 8.88728 6.28299C8.88728 6.53127 9.08908 6.73416 9.33846 6.73416ZM11.1338 9.18526V9.85955H12.1663C13.0282 9.85955 13.7862 10.3184 14.1876 11.0813L15.0664 12.7509C15.155 12.9199 15.2988 13.0068 15.4897 13.0068H21.221V9.1858C21.221 8.65861 20.7063 8.22932 20.0769 8.22932H12.2779C11.6485 8.22877 11.1338 8.65807 11.1338 9.18526ZM21.9248 13.9103H15.4897C14.9625 13.9103 14.5113 13.6374 14.2663 13.1725L13.3875 11.5013C13.1425 11.0348 12.6913 10.7635 12.1658 10.7635H6.07361C5.314 10.7635 4.69385 11.3837 4.69385 12.1433V23.3417C4.69385 24.1029 5.314 24.7231 6.07361 24.7231H8.59416L8.6576 24.5973C8.51213 24.3118 8.38963 24.0143 8.2901 23.7092L7.8001 23.5495C7.29643 23.3865 6.9601 22.9233 6.9601 22.3945V21.3357C6.9601 20.8069 7.29643 20.3437 7.8001 20.1791L8.2901 20.021C8.38799 19.7159 8.51158 19.4178 8.6576 19.1329L8.42353 18.6724C8.18455 18.2027 8.27478 17.6356 8.6483 17.2615L9.39533 16.5128C9.76885 16.1393 10.3365 16.0491 10.8074 16.2897L11.2662 16.5238C11.5517 16.3783 11.8492 16.2542 12.1543 16.1563L12.314 15.6663C12.477 15.1626 12.9402 14.8263 13.469 14.8263H14.5278C15.0566 14.8263 15.5198 15.1626 15.6844 15.6663L15.8424 16.1563C16.1476 16.2542 16.4456 16.3778 16.7306 16.5238L17.191 16.2897C17.6608 16.0507 18.2279 16.1393 18.602 16.5128L19.3506 17.2615C19.7242 17.635 19.8128 18.2027 19.5738 18.6724L19.3397 19.1329C19.4852 19.4184 19.6093 19.7159 19.7072 20.021L20.1972 20.1791C20.7009 20.3431 21.0372 20.8069 21.0372 21.3357V22.3945C21.0372 22.9233 20.7009 23.3865 20.1972 23.5495L19.7072 23.7092C19.6093 24.0143 19.4857 24.3124 19.3397 24.5973L19.4031 24.7231H21.9237C22.6833 24.7231 23.3051 24.1029 23.3051 23.3417V15.2917C23.3056 14.5299 22.6844 13.9103 21.9248 13.9103ZM14 19.8521C13.4433 19.8521 12.9396 20.0768 12.5754 20.441C12.2112 20.8053 11.9864 21.3089 11.9864 21.864C11.9864 22.4207 12.2112 22.9244 12.5754 23.2886C12.9396 23.6528 13.4433 23.8776 14 23.8776C14.5551 23.8776 15.0588 23.6528 15.423 23.2886C15.7872 22.9244 16.012 22.4207 16.012 21.864C16.012 21.3089 15.7872 20.8053 15.423 20.441C15.0588 20.0768 14.5551 19.8521 14 19.8521ZM19.9188 22.6903L19.133 22.9463C19.0291 22.9802 18.9547 23.0578 18.9268 23.1634C18.8092 23.6129 18.631 24.0378 18.4029 24.4299C18.3471 24.5246 18.3438 24.6317 18.3936 24.7291L18.7704 25.4668C18.8322 25.5893 18.8092 25.7321 18.713 25.8294L17.9643 26.5764C17.8664 26.6743 17.7242 26.6973 17.6017 26.6338L16.864 26.2587C16.7678 26.2089 16.6595 26.2122 16.5665 26.268C16.1744 26.496 15.7478 26.6743 15.2999 26.7919C15.1928 26.8198 15.1156 26.8942 15.0812 26.9981L14.8253 27.7839C14.7831 27.9157 14.6672 27.9994 14.5294 27.9994H13.4706C13.3345 27.9994 13.2163 27.9157 13.1748 27.7839L12.9188 26.9981C12.8849 26.8942 12.8073 26.8198 12.7017 26.7919C12.2522 26.6743 11.8256 26.496 11.4352 26.268C11.3406 26.2122 11.2334 26.2089 11.136 26.2587L10.3983 26.6338C10.2758 26.6973 10.1331 26.6743 10.0357 26.5764L9.28869 25.8294C9.1908 25.7315 9.16783 25.5893 9.23127 25.4668L9.60643 24.7291C9.65619 24.6312 9.65291 24.5246 9.59713 24.4299C9.36908 24.0378 9.1908 23.6129 9.07322 23.1634C9.04533 23.0578 8.97096 22.9807 8.86705 22.9463L8.08119 22.6903C7.94939 22.6482 7.86572 22.5306 7.86572 22.3945V21.3357C7.86572 21.1979 7.94939 21.0814 8.08119 21.0399L8.86705 20.7839C8.97096 20.75 9.04533 20.6724 9.07322 20.5652C9.1908 20.1173 9.36908 19.6907 9.59713 19.3003C9.65291 19.2056 9.65619 19.0974 9.60643 19.0011L9.23127 18.2634C9.16783 18.1409 9.1908 17.9981 9.28869 17.9008L10.0357 17.1521C10.1336 17.0559 10.2758 17.0329 10.3983 17.0947L11.136 17.4715C11.2339 17.5213 11.3406 17.518 11.4352 17.4622C11.8256 17.2342 12.2522 17.0559 12.7017 16.9367C12.8073 16.9104 12.8844 16.836 12.9188 16.7321L13.1748 15.9463C13.2169 15.8145 13.3345 15.7292 13.4706 15.7292H14.5294C14.6672 15.7292 14.7837 15.8145 14.8253 15.9463L15.0812 16.7321C15.1151 16.836 15.1928 16.9104 15.2999 16.9367C15.7478 17.0559 16.1744 17.2342 16.5665 17.4622C16.6611 17.518 16.7683 17.5213 16.8656 17.4715L17.6017 17.0947C17.7242 17.0329 17.867 17.0559 17.9643 17.1521L18.713 17.9008C18.8092 17.9987 18.8322 18.1409 18.7704 18.2634L18.3936 19.0011C18.3438 19.0974 18.3471 19.2056 18.4029 19.3003C18.631 19.6907 18.8092 20.1173 18.9285 20.5652C18.9547 20.6724 19.0291 20.7495 19.133 20.7839L19.9188 21.0399C20.0506 21.082 20.1343 21.1979 20.1343 21.3357V22.3945C20.1343 22.5306 20.0506 22.6482 19.9188 22.6903ZM16.916 21.864C16.916 21.0596 16.5889 20.3311 16.0617 19.8023C15.5329 19.2751 14.8045 18.9481 14 18.9481C13.1939 18.9481 12.4655 19.2751 11.9367 19.8023C11.4095 20.3311 11.0824 21.0596 11.0824 21.864C11.0824 22.6701 11.4095 23.3985 11.9367 23.9274C12.4655 24.4546 13.1939 24.7799 14 24.7799C14.8045 24.7799 15.5329 24.4546 16.0617 23.9274C16.5889 23.3985 16.916 22.6701 16.916 21.864Z" fill="#076871"/>
</svg>
