<svg width="25" height="25" viewBox="0 0 25 25" fill="none" xmlns="http://www.w3.org/2000/svg">
<g clip-path="url(#clip0_13_1394)">
<path d="M9.37508 10.4167C6.50321 10.4167 4.16675 8.08021 4.16675 5.20833C4.16675 2.33646 6.50321 0 9.37508 0C12.247 0 14.5834 2.33646 14.5834 5.20833C14.5834 8.08021 12.247 10.4167 9.37508 10.4167Z" fill="#076871"/>
<path d="M4.94792 12.5C2.21875 12.5 0 14.7188 0 17.4479V21.0938C0 21.5209 0.354167 21.875 0.78125 21.875H10.4167V18.4896C10.4167 16.5313 11.875 14.9167 13.7604 14.6354C14.0312 13.8438 14.5417 13.1771 15.1979 12.6979C14.1562 12.4 14.1 12.5 4.94792 12.5Z" fill="#076871"/>
<path d="M23.1772 16.6667H21.8751V15.8854C21.8751 14.8802 21.0574 14.0625 20.0522 14.0625H17.448C16.4428 14.0625 15.6251 14.8802 15.6251 15.8854V16.6667H14.323C13.8105 16.6667 13.3491 16.8802 13.0178 17.2219L18.7501 20.2125L24.4824 17.2219C24.1512 16.8802 23.6897 16.6667 23.1772 16.6667ZM17.1876 16.6667V15.8854C17.1876 15.7417 17.3043 15.625 17.448 15.625H20.0522C20.1959 15.625 20.3126 15.7417 20.3126 15.8854V16.6667H17.1876Z" fill="#076871"/>
<path d="M19.1115 21.7865C18.8854 21.9042 18.6146 21.9042 18.3896 21.7865L12.5 18.7136V23.1772C12.5 24.1824 13.3177 25.0001 14.3229 25.0001H23.1771C24.1823 25.0001 25 24.1824 25 23.1772V18.7136L19.1115 21.7865Z" fill="#076871"/>
</g>
<defs>
<clipPath id="clip0_13_1394">
<rect width="25" height="25" fill="white"/>
</clipPath>
</defs>
</svg>
