<svg width="30" height="30" viewBox="0 0 30 30" fill="none" xmlns="http://www.w3.org/2000/svg">
<g clip-path="url(#clip0_13_3362)">
<path d="M11.25 12.5C7.80375 12.5 5 9.69625 5 6.25C5 2.80375 7.80375 0 11.25 0C14.6962 0 17.5 2.80375 17.5 6.25C17.5 9.69625 14.6962 12.5 11.25 12.5Z" fill="white"/>
<path d="M5.9375 15C2.6625 15 0 17.6625 0 20.9375V25.3125C0 25.825 0.425 26.25 0.9375 26.25H12.5V22.1875C12.5 19.8375 14.25 17.9 16.5125 17.5625C16.8375 16.6125 17.45 15.8125 18.2375 15.2375C16.9875 14.88 16.92 15 5.9375 15Z" fill="white"/>
<path d="M27.8125 20H26.25V19.0625C26.25 17.8563 25.2688 16.875 24.0625 16.875H20.9375C19.7313 16.875 18.75 17.8563 18.75 19.0625V20H17.1875C16.5725 20 16.0188 20.2563 15.6213 20.6663L22.5 24.255L29.3788 20.6663C28.9813 20.2563 28.4275 20 27.8125 20ZM20.625 20V19.0625C20.625 18.89 20.765 18.75 20.9375 18.75H24.0625C24.235 18.75 24.375 18.89 24.375 19.0625V20H20.625Z" fill="white"/>
<path d="M22.9338 26.1438C22.6625 26.2851 22.3375 26.2851 22.0675 26.1438L15 22.4563V27.8125C15 29.0188 15.9813 30 17.1875 30H27.8125C29.0188 30 30 29.0188 30 27.8125V22.4563L22.9338 26.1438Z" fill="white"/>
</g>
<defs>
<clipPath id="clip0_13_3362">
<rect width="30" height="30" fill="white"/>
</clipPath>
</defs>
</svg>
