<svg width="26" height="25" viewBox="0 0 26 25" fill="none" xmlns="http://www.w3.org/2000/svg">
<path d="M5.67578 25H20.3242C21.5358 25 22.5215 24.0144 22.5215 22.8027V7.32422H17.3945C16.1829 7.32422 15.1973 6.33857 15.1973 5.12695V0H5.67578C4.46416 0 3.47852 0.985645 3.47852 2.19727V22.8027C3.47852 24.0144 4.46416 25 5.67578 25ZM8.60547 10.3027H17.3945C17.7994 10.3027 18.127 10.6303 18.127 11.0352C18.127 11.44 17.7994 11.7676 17.3945 11.7676H8.60547C8.20063 11.7676 7.87305 11.44 7.87305 11.0352C7.87305 10.6303 8.20063 10.3027 8.60547 10.3027ZM8.60547 13.2324H17.3945C17.7994 13.2324 18.127 13.56 18.127 13.9648C18.127 14.3697 17.7994 14.6973 17.3945 14.6973H8.60547C8.20063 14.6973 7.87305 14.3697 7.87305 13.9648C7.87305 13.56 8.20063 13.2324 8.60547 13.2324ZM8.60547 16.1621H17.3945C17.7994 16.1621 18.127 16.4897 18.127 16.8945C18.127 17.2994 17.7994 17.627 17.3945 17.627H8.60547C8.20063 17.627 7.87305 17.2994 7.87305 16.8945C7.87305 16.4897 8.20063 16.1621 8.60547 16.1621ZM8.60547 19.0918H14.4648C14.8697 19.0918 15.1973 19.4194 15.1973 19.8242C15.1973 20.2291 14.8697 20.5566 14.4648 20.5566H8.60547C8.20063 20.5566 7.87305 20.2291 7.87305 19.8242C7.87305 19.4194 8.20063 19.0918 8.60547 19.0918Z" fill="white"/>
<path d="M17.3945 5.85942H22.0923L16.6621 0.429199V5.127C16.6621 5.5311 16.9904 5.85942 17.3945 5.85942Z" fill="white"/>
</svg>
