<svg width="25" height="25" viewBox="0 0 25 25" fill="none" xmlns="http://www.w3.org/2000/svg">
<path d="M23.0937 15.4859H21.538V14.4792C21.538 12.8963 20.2955 11.6075 18.7681 11.6075H13.6955V9.51414H15.552C16.6041 9.51414 17.4688 8.6288 17.4688 7.53781V1.97633C17.4688 0.885343 16.6041 0 15.552 0H9.74986C8.69776 0 7.84365 0.885343 7.84365 1.97633V7.53781C7.84365 8.6288 8.69776 9.51414 9.74986 9.51414H11.6122V11.6075H6.53915C5.01226 11.6075 3.76968 12.8963 3.76968 14.4792V15.4859H1.9062C0.854111 15.4859 0 16.3717 0 17.4622V23.0237C0 24.1147 0.854111 25 1.9062 25H7.70823C8.76032 25 9.62499 24.1147 9.62499 23.0237V17.4622C9.62499 16.3717 8.76032 15.4859 7.70823 15.4859H5.85302V14.4792C5.85302 14.0869 6.16074 13.7674 6.53915 13.7674H12.6539H18.7681C19.1465 13.7674 19.4547 14.0869 19.4547 14.4792V15.4859H17.2915C16.2394 15.4859 15.3854 16.3717 15.3854 17.4622V23.0237C15.3854 24.1147 16.2394 25 17.2915 25H23.0937C24.1458 25 25 24.1147 25 23.0237V17.4622C25 16.3717 24.1458 15.4859 23.0937 15.4859Z" fill="#076871"/>
</svg>
