<svg width="34" height="33" viewBox="0 0 34 33" fill="none" xmlns="http://www.w3.org/2000/svg">
<path d="M19.0625 2.57812H5.65625C4.97249 2.57812 4.31673 2.84975 3.83324 3.33324C3.34975 3.81673 3.07813 4.47249 3.07812 5.15625V27.8438C3.07812 28.5275 3.34975 29.1833 3.83324 29.6668C4.31673 30.1503 4.97249 30.4219 5.65625 30.4219H19.0625C19.4011 30.4219 19.7363 30.3552 20.0491 30.2256C20.3619 30.0961 20.6461 29.9062 20.8855 29.6668C21.1249 29.4274 21.3148 29.1431 21.4444 28.8304C21.5739 28.5176 21.6406 28.1823 21.6406 27.8438V5.15625C21.6406 4.81769 21.5739 4.48244 21.4444 4.16964C21.3148 3.85685 21.1249 3.57264 20.8855 3.33324C20.6461 3.09384 20.3619 2.90394 20.0491 2.77437C19.7363 2.64481 19.4011 2.57812 19.0625 2.57812ZM10.8125 24.2344C10.8125 24.3711 10.7582 24.5023 10.6615 24.599C10.5648 24.6957 10.4336 24.75 10.2969 24.75H7.20312C7.06637 24.75 6.93522 24.6957 6.83852 24.599C6.74182 24.5023 6.6875 24.3711 6.6875 24.2344V21.1406C6.6875 21.0039 6.74182 20.8727 6.83852 20.776C6.93522 20.6793 7.06637 20.625 7.20312 20.625H10.2969C10.4336 20.625 10.5648 20.6793 10.6615 20.776C10.7582 20.8727 10.8125 21.0039 10.8125 21.1406V24.2344ZM10.8125 18.0469C10.8125 18.1836 10.7582 18.3148 10.6615 18.4115C10.5648 18.5082 10.4336 18.5625 10.2969 18.5625H7.20312C7.06637 18.5625 6.93522 18.5082 6.83852 18.4115C6.74182 18.3148 6.6875 18.1836 6.6875 18.0469V14.9531C6.6875 14.8164 6.74182 14.6852 6.83852 14.5885C6.93522 14.4918 7.06637 14.4375 7.20312 14.4375H10.2969C10.4336 14.4375 10.5648 14.4918 10.6615 14.5885C10.7582 14.6852 10.8125 14.8164 10.8125 14.9531V18.0469ZM10.8125 11.8594C10.8125 11.9961 10.7582 12.1273 10.6615 12.224C10.5648 12.3207 10.4336 12.375 10.2969 12.375H7.20312C7.06637 12.375 6.93522 12.3207 6.83852 12.224C6.74182 12.1273 6.6875 11.9961 6.6875 11.8594V8.76562C6.6875 8.62887 6.74182 8.49772 6.83852 8.40102C6.93522 8.30432 7.06637 8.25 7.20312 8.25H10.2969C10.4336 8.25 10.5648 8.30432 10.6615 8.40102C10.7582 8.49772 10.8125 8.62887 10.8125 8.76562V11.8594ZM17.5156 24.2344H13.3906C13.2539 24.2344 13.1227 24.18 13.026 24.0834C12.9293 23.9867 12.875 23.8555 12.875 23.7188C12.875 23.582 12.9293 23.4508 13.026 23.3541C13.1227 23.2575 13.2539 23.2031 13.3906 23.2031H17.5156C17.6524 23.2031 17.7835 23.2575 17.8802 23.3541C17.9769 23.4508 18.0312 23.582 18.0312 23.7188C18.0312 23.8555 17.9769 23.9867 17.8802 24.0834C17.7835 24.18 17.6524 24.2344 17.5156 24.2344ZM17.5156 22.1719H13.3906C13.2539 22.1719 13.1227 22.1175 13.026 22.0209C12.9293 21.9242 12.875 21.793 12.875 21.6562C12.875 21.5195 12.9293 21.3883 13.026 21.2916C13.1227 21.195 13.2539 21.1406 13.3906 21.1406H17.5156C17.6524 21.1406 17.7835 21.195 17.8802 21.2916C17.9769 21.3883 18.0312 21.5195 18.0312 21.6562C18.0312 21.793 17.9769 21.9242 17.8802 22.0209C17.7835 22.1175 17.6524 22.1719 17.5156 22.1719ZM17.5156 18.0469H13.3906C13.2539 18.0469 13.1227 17.9926 13.026 17.8959C12.9293 17.7992 12.875 17.668 12.875 17.5312C12.875 17.3945 12.9293 17.2633 13.026 17.1666C13.1227 17.0699 13.2539 17.0156 13.3906 17.0156H17.5156C17.6524 17.0156 17.7835 17.0699 17.8802 17.1666C17.9769 17.2633 18.0312 17.3945 18.0312 17.5312C18.0312 17.668 17.9769 17.7992 17.8802 17.8959C17.7835 17.9926 17.6524 18.0469 17.5156 18.0469ZM17.5156 15.9844H13.3906C13.2539 15.9844 13.1227 15.9301 13.026 15.8334C12.9293 15.7367 12.875 15.6055 12.875 15.4688C12.875 15.332 12.9293 15.2008 13.026 15.1041C13.1227 15.0074 13.2539 14.9531 13.3906 14.9531H17.5156C17.6524 14.9531 17.7835 15.0074 17.8802 15.1041C17.9769 15.2008 18.0312 15.332 18.0312 15.4688C18.0312 15.6055 17.9769 15.7367 17.8802 15.8334C17.7835 15.9301 17.6524 15.9844 17.5156 15.9844ZM17.5156 11.8594H13.3906C13.2539 11.8594 13.1227 11.8051 13.026 11.7084C12.9293 11.6117 12.875 11.4805 12.875 11.3438C12.875 11.207 12.9293 11.0758 13.026 10.9791C13.1227 10.8824 13.2539 10.8281 13.3906 10.8281H17.5156C17.6524 10.8281 17.7835 10.8824 17.8802 10.9791C17.9769 11.0758 18.0312 11.207 18.0312 11.3438C18.0312 11.4805 17.9769 11.6117 17.8802 11.7084C17.7835 11.8051 17.6524 11.8594 17.5156 11.8594ZM17.5156 9.79688H13.3906C13.2539 9.79688 13.1227 9.74255 13.026 9.64585C12.9293 9.54915 12.875 9.418 12.875 9.28125C12.875 9.1445 12.9293 9.01335 13.026 8.91665C13.1227 8.81995 13.2539 8.76562 13.3906 8.76562H17.5156C17.6524 8.76562 17.7835 8.81995 17.8802 8.91665C17.9769 9.01335 18.0312 9.1445 18.0312 9.28125C18.0312 9.418 17.9769 9.54915 17.8802 9.64585C17.7835 9.74255 17.6524 9.79688 17.5156 9.79688Z" fill="white"/>
<path d="M29.375 5.67188H28.8594V5.15625C28.8594 4.60924 28.6421 4.08464 28.2553 3.69784C27.8685 3.31105 27.3439 3.09375 26.7969 3.09375C26.2499 3.09375 25.7253 3.31105 25.3385 3.69784C24.9517 4.08464 24.7344 4.60924 24.7344 5.15625V25.7812C24.7359 26.2374 24.8885 26.6801 25.1684 27.0402C25.4483 27.4003 25.8396 27.6575 26.2812 27.7716V29.3906C26.2812 29.5274 26.3356 29.6585 26.4323 29.7552C26.529 29.8519 26.6601 29.9062 26.7969 29.9062C26.9336 29.9062 27.0648 29.8519 27.1615 29.7552C27.2582 29.6585 27.3125 29.5274 27.3125 29.3906V27.7716C27.7541 27.6575 28.1455 27.4003 28.4254 27.0402C28.7053 26.6801 28.8579 26.2374 28.8594 25.7812V6.70312H29.375C29.5118 6.70312 29.6429 6.75745 29.7396 6.85415C29.8363 6.95085 29.8906 7.082 29.8906 7.21875V11.3438C29.8906 11.4805 29.9449 11.6117 30.0416 11.7084C30.1383 11.8051 30.2695 11.8594 30.4062 11.8594C30.543 11.8594 30.6742 11.8051 30.7709 11.7084C30.8676 11.6117 30.9219 11.4805 30.9219 11.3438V7.21875C30.9219 6.80849 30.7589 6.41504 30.4688 6.12494C30.1787 5.83485 29.7853 5.67188 29.375 5.67188ZM27.8281 25.7812C27.8281 26.0548 27.7195 26.3171 27.5261 26.5105C27.3327 26.7039 27.0704 26.8125 26.7969 26.8125C26.5234 26.8125 26.2611 26.7039 26.0677 26.5105C25.8743 26.3171 25.7656 26.0548 25.7656 25.7812V24.75H27.8281V25.7812ZM25.7656 5.15625C25.7656 4.88275 25.8743 4.62044 26.0677 4.42705C26.2611 4.23365 26.5234 4.125 26.7969 4.125C27.0704 4.125 27.3327 4.23365 27.5261 4.42705C27.7195 4.62044 27.8281 4.88275 27.8281 5.15625H25.7656Z" fill="white"/>
</svg>
