<svg width="25" height="25" viewBox="0 0 25 25" fill="none" xmlns="http://www.w3.org/2000/svg">
<path d="M14.0625 1.95312H3.90625C3.38825 1.95312 2.89146 2.1589 2.52518 2.52518C2.1589 2.89146 1.95313 3.38825 1.95312 3.90625V21.0938C1.95312 21.6118 2.1589 22.1085 2.52518 22.4748C2.89146 22.8411 3.38825 23.0469 3.90625 23.0469H14.0625C14.319 23.0469 14.573 22.9964 14.8099 22.8982C15.0469 22.8 15.2622 22.6562 15.4436 22.4748C15.6249 22.2935 15.7688 22.0781 15.867 21.8412C15.9651 21.6042 16.0156 21.3502 16.0156 21.0938V3.90625C16.0156 3.64976 15.9651 3.39579 15.867 3.15882C15.7688 2.92186 15.6249 2.70655 15.4436 2.52518C15.2622 2.34382 15.0469 2.19995 14.8099 2.1018C14.573 2.00364 14.319 1.95312 14.0625 1.95312ZM7.8125 18.3594C7.8125 18.463 7.77135 18.5623 7.69809 18.6356C7.62483 18.7088 7.52548 18.75 7.42188 18.75H5.07812C4.97452 18.75 4.87517 18.7088 4.80191 18.6356C4.72866 18.5623 4.6875 18.463 4.6875 18.3594V16.0156C4.6875 15.912 4.72866 15.8127 4.80191 15.7394C4.87517 15.6662 4.97452 15.625 5.07812 15.625H7.42188C7.52548 15.625 7.62483 15.6662 7.69809 15.7394C7.77135 15.8127 7.8125 15.912 7.8125 16.0156V18.3594ZM7.8125 13.6719C7.8125 13.7755 7.77135 13.8748 7.69809 13.9481C7.62483 14.0213 7.52548 14.0625 7.42188 14.0625H5.07812C4.97452 14.0625 4.87517 14.0213 4.80191 13.9481C4.72866 13.8748 4.6875 13.7755 4.6875 13.6719V11.3281C4.6875 11.2245 4.72866 11.1252 4.80191 11.0519C4.87517 10.9787 4.97452 10.9375 5.07812 10.9375H7.42188C7.52548 10.9375 7.62483 10.9787 7.69809 11.0519C7.77135 11.1252 7.8125 11.2245 7.8125 11.3281V13.6719ZM7.8125 8.98438C7.8125 9.08798 7.77135 9.18733 7.69809 9.26059C7.62483 9.33385 7.52548 9.375 7.42188 9.375H5.07812C4.97452 9.375 4.87517 9.33385 4.80191 9.26059C4.72866 9.18733 4.6875 9.08798 4.6875 8.98438V6.64062C4.6875 6.53702 4.72866 6.43767 4.80191 6.36441C4.87517 6.29115 4.97452 6.25 5.07812 6.25H7.42188C7.52548 6.25 7.62483 6.29115 7.69809 6.36441C7.77135 6.43767 7.8125 6.53702 7.8125 6.64062V8.98438ZM12.8906 18.3594H9.76562C9.66202 18.3594 9.56267 18.3182 9.48941 18.245C9.41615 18.1717 9.375 18.0723 9.375 17.9688C9.375 17.8651 9.41615 17.7658 9.48941 17.6925C9.56267 17.6193 9.66202 17.5781 9.76562 17.5781H12.8906C12.9942 17.5781 13.0936 17.6193 13.1668 17.6925C13.2401 17.7658 13.2812 17.8651 13.2812 17.9688C13.2812 18.0723 13.2401 18.1717 13.1668 18.245C13.0936 18.3182 12.9942 18.3594 12.8906 18.3594ZM12.8906 16.7969H9.76562C9.66202 16.7969 9.56267 16.7557 9.48941 16.6825C9.41615 16.6092 9.375 16.5099 9.375 16.4062C9.375 16.3026 9.41615 16.2033 9.48941 16.13C9.56267 16.0568 9.66202 16.0156 9.76562 16.0156H12.8906C12.9942 16.0156 13.0936 16.0568 13.1668 16.13C13.2401 16.2033 13.2812 16.3026 13.2812 16.4062C13.2812 16.5099 13.2401 16.6092 13.1668 16.6825C13.0936 16.7557 12.9942 16.7969 12.8906 16.7969ZM12.8906 13.6719H9.76562C9.66202 13.6719 9.56267 13.6307 9.48941 13.5575C9.41615 13.4842 9.375 13.3849 9.375 13.2812C9.375 13.1776 9.41615 13.0783 9.48941 13.005C9.56267 12.9318 9.66202 12.8906 9.76562 12.8906H12.8906C12.9942 12.8906 13.0936 12.9318 13.1668 13.005C13.2401 13.0783 13.2812 13.1776 13.2812 13.2812C13.2812 13.3849 13.2401 13.4842 13.1668 13.5575C13.0936 13.6307 12.9942 13.6719 12.8906 13.6719ZM12.8906 12.1094H9.76562C9.66202 12.1094 9.56267 12.0682 9.48941 11.995C9.41615 11.9217 9.375 11.8224 9.375 11.7188C9.375 11.6151 9.41615 11.5158 9.48941 11.4425C9.56267 11.3693 9.66202 11.3281 9.76562 11.3281H12.8906C12.9942 11.3281 13.0936 11.3693 13.1668 11.4425C13.2401 11.5158 13.2812 11.6151 13.2812 11.7188C13.2812 11.8224 13.2401 11.9217 13.1668 11.995C13.0936 12.0682 12.9942 12.1094 12.8906 12.1094ZM12.8906 8.98438H9.76562C9.66202 8.98438 9.56267 8.94322 9.48941 8.86996C9.41615 8.79671 9.375 8.69735 9.375 8.59375C9.375 8.49015 9.41615 8.39079 9.48941 8.31754C9.56267 8.24428 9.66202 8.20312 9.76562 8.20312H12.8906C12.9942 8.20312 13.0936 8.24428 13.1668 8.31754C13.2401 8.39079 13.2812 8.49015 13.2812 8.59375C13.2812 8.69735 13.2401 8.79671 13.1668 8.86996C13.0936 8.94322 12.9942 8.98438 12.8906 8.98438ZM12.8906 7.42188H9.76562C9.66202 7.42188 9.56267 7.38072 9.48941 7.30746C9.41615 7.23421 9.375 7.13485 9.375 7.03125C9.375 6.92765 9.41615 6.82829 9.48941 6.75504C9.56267 6.68178 9.66202 6.64062 9.76562 6.64062H12.8906C12.9942 6.64062 13.0936 6.68178 13.1668 6.75504C13.2401 6.82829 13.2812 6.92765 13.2812 7.03125C13.2812 7.13485 13.2401 7.23421 13.1668 7.30746C13.0936 7.38072 12.9942 7.42188 12.8906 7.42188Z" fill="#076871"/>
<path d="M21.875 4.29688H21.4844V3.90625C21.4844 3.49185 21.3198 3.09442 21.0267 2.8014C20.7337 2.50837 20.3363 2.34375 19.9219 2.34375C19.5075 2.34375 19.11 2.50837 18.817 2.8014C18.524 3.09442 18.3594 3.49185 18.3594 3.90625V19.5312C18.3605 19.8768 18.4761 20.2122 18.6882 20.485C18.9002 20.7578 19.1967 20.9527 19.5312 21.0391V22.2656C19.5312 22.3692 19.5724 22.4686 19.6457 22.5418C19.7189 22.6151 19.8183 22.6562 19.9219 22.6562C20.0255 22.6562 20.1248 22.6151 20.1981 22.5418C20.2713 22.4686 20.3125 22.3692 20.3125 22.2656V21.0391C20.6471 20.9527 20.9436 20.7578 21.1556 20.485C21.3676 20.2122 21.4833 19.8768 21.4844 19.5312V5.07812H21.875C21.9786 5.07812 22.078 5.11928 22.1512 5.19254C22.2245 5.26579 22.2656 5.36515 22.2656 5.46875V8.59375C22.2656 8.69735 22.3068 8.79671 22.38 8.86996C22.4533 8.94322 22.5526 8.98438 22.6562 8.98438C22.7599 8.98438 22.8592 8.94322 22.9325 8.86996C23.0057 8.79671 23.0469 8.69735 23.0469 8.59375V5.46875C23.0469 5.15795 22.9234 4.85988 22.7036 4.64011C22.4839 4.42034 22.1858 4.29688 21.875 4.29688ZM20.7031 19.5312C20.7031 19.7385 20.6208 19.9372 20.4743 20.0837C20.3278 20.2302 20.1291 20.3125 19.9219 20.3125C19.7147 20.3125 19.516 20.2302 19.3694 20.0837C19.2229 19.9372 19.1406 19.7385 19.1406 19.5312V18.75H20.7031V19.5312ZM19.1406 3.90625C19.1406 3.69905 19.2229 3.50034 19.3694 3.35382C19.516 3.20731 19.7147 3.125 19.9219 3.125C20.1291 3.125 20.3278 3.20731 20.4743 3.35382C20.6208 3.50034 20.7031 3.69905 20.7031 3.90625H19.1406Z" fill="#076871"/>
</svg>
