<svg width="28" height="28" viewBox="0 0 28 28" fill="none" xmlns="http://www.w3.org/2000/svg">
<path fill-rule="evenodd" clip-rule="evenodd" d="M24.0625 21H6.125C4.91689 21 3.9375 21.9794 3.9375 23.1875C3.9375 24.3956 4.91689 25.375 6.125 25.375H24.5C24.7416 25.375 24.9375 25.5709 24.9375 25.8125C24.9375 26.0541 24.7416 26.25 24.5 26.25H6.125C4.43362 26.25 3.0625 24.8789 3.0625 23.1875V4.8125C3.0625 3.12113 4.43362 1.75 6.125 1.75H23.625C24.3499 1.75 24.9375 2.33763 24.9375 3.0625V22.3125C24.9375 22.5541 24.7416 22.75 24.5 22.75H6.125C5.88337 22.75 5.6875 22.5541 5.6875 22.3125C5.6875 22.0709 5.88337 21.875 6.125 21.875H24.0625V21ZM12.25 7.4375C12.25 7.19587 12.4459 7 12.6875 7H15.3125C15.4285 7 15.5398 7.04611 15.6219 7.12814C15.7039 7.21018 15.75 7.32148 15.75 7.4375V10.0625H18.375C18.6166 10.0625 18.8125 10.2584 18.8125 10.5V13.125C18.8125 13.3666 18.6166 13.5625 18.375 13.5625H15.75V16.1875C15.75 16.4291 15.5541 16.625 15.3125 16.625H12.6875C12.5715 16.625 12.4602 16.5789 12.3781 16.4969C12.2961 16.4148 12.25 16.3035 12.25 16.1875V13.5625H9.625C9.38337 13.5625 9.1875 13.3666 9.1875 13.125V10.5C9.1875 10.384 9.23361 10.2727 9.31564 10.1906C9.39768 10.1086 9.50898 10.0625 9.625 10.0625H12.25V7.4375Z" fill="white"/>
<path d="M5.6875 24.0625C5.6875 23.8209 5.88337 23.625 6.125 23.625H24.5C24.7416 23.625 24.9375 23.8209 24.9375 24.0625C24.9375 24.3041 24.7416 24.5 24.5 24.5H6.125C5.88337 24.5 5.6875 24.3041 5.6875 24.0625Z" fill="white"/>
</svg>
