<svg width="25" height="25" viewBox="0 0 25 25" fill="none" xmlns="http://www.w3.org/2000/svg">
<path fill-rule="evenodd" clip-rule="evenodd" d="M21.4844 18.75H5.46875C4.39008 18.75 3.51562 19.6245 3.51562 20.7031C3.51562 21.7818 4.39008 22.6562 5.46875 22.6562H21.875C22.0907 22.6562 22.2656 22.8311 22.2656 23.0469C22.2656 23.2626 22.0907 23.4375 21.875 23.4375H5.46875C3.95859 23.4375 2.73438 22.2133 2.73438 20.7031V4.29688C2.73438 2.78672 3.95859 1.5625 5.46875 1.5625H21.0938C21.741 1.5625 22.2656 2.08717 22.2656 2.73438V19.9219C22.2656 20.1376 22.0907 20.3125 21.875 20.3125H5.46875C5.25301 20.3125 5.07812 20.1376 5.07812 19.9219C5.07812 19.7061 5.25301 19.5312 5.46875 19.5312H21.4844V18.75ZM10.9375 6.64062C10.9375 6.42488 11.1124 6.25 11.3281 6.25H13.6719C13.7755 6.25 13.8748 6.29117 13.9481 6.36441C14.0213 6.43766 14.0625 6.53703 14.0625 6.64062V8.98438H16.4062C16.622 8.98438 16.7969 9.15926 16.7969 9.375V11.7188C16.7969 11.9345 16.622 12.1094 16.4062 12.1094H14.0625V14.4531C14.0625 14.6689 13.8876 14.8438 13.6719 14.8438H11.3281C11.2245 14.8438 11.1252 14.8026 11.0519 14.7293C10.9787 14.6561 10.9375 14.5567 10.9375 14.4531V12.1094H8.59375C8.37801 12.1094 8.20312 11.9345 8.20312 11.7188V9.375C8.20312 9.27141 8.2443 9.17203 8.31754 9.09879C8.39078 9.02555 8.49016 8.98438 8.59375 8.98438H10.9375V6.64062Z" fill="#076871"/>
<path d="M5.07812 21.4844C5.07812 21.2686 5.25301 21.0938 5.46875 21.0938H21.875C22.0907 21.0938 22.2656 21.2686 22.2656 21.4844C22.2656 21.7001 22.0907 21.875 21.875 21.875H5.46875C5.25301 21.875 5.07812 21.7001 5.07812 21.4844Z" fill="#076871"/>
</svg>
