<svg width="26" height="25" viewBox="0 0 26 25" fill="none" xmlns="http://www.w3.org/2000/svg">
<g clip-path="url(#clip0_13_146)">
<path d="M10.0208 0H1.89577C0.850356 0 -6.10352e-05 0.817708 -6.10352e-05 1.82292V6.51042C-6.10352e-05 7.51562 0.850356 8.33333 1.89577 8.33333H10.0208C11.0662 8.33333 11.9166 7.51562 11.9166 6.51042V1.82292C11.9166 0.817708 11.0662 0 10.0208 0Z" fill="#076871"/>
<path d="M10.0208 10.4165H1.89577C0.850356 10.4165 -6.10352e-05 11.2342 -6.10352e-05 12.2394V23.1769C-6.10352e-05 24.1821 0.850356 24.9998 1.89577 24.9998H10.0208C11.0662 24.9998 11.9166 24.1821 11.9166 23.1769V12.2394C11.9166 11.2342 11.0662 10.4165 10.0208 10.4165Z" fill="#076871"/>
<path d="M24.1041 16.6665H15.9791C14.9337 16.6665 14.0833 17.4842 14.0833 18.4894V23.1769C14.0833 24.1821 14.9337 24.9998 15.9791 24.9998H24.1041C25.1495 24.9998 25.9999 24.1821 25.9999 23.1769V18.4894C25.9999 17.4842 25.1495 16.6665 24.1041 16.6665Z" fill="#076871"/>
<path d="M24.1041 0H15.9791C14.9337 0 14.0833 0.817708 14.0833 1.82292V12.7604C14.0833 13.7656 14.9337 14.5833 15.9791 14.5833H24.1041C25.1495 14.5833 25.9999 13.7656 25.9999 12.7604V1.82292C25.9999 0.817708 25.1495 0 24.1041 0Z" fill="#076871"/>
</g>
<defs>
<clipPath id="clip0_13_146">
<rect width="26" height="25" fill="white"/>
</clipPath>
</defs>
</svg>
