<svg width="25" height="25" viewBox="0 0 25 25" fill="none" xmlns="http://www.w3.org/2000/svg">
<g clip-path="url(#clip0_13_2360)">
<path d="M24.1668 2.08325C24.1668 1.75173 24.0351 1.43379 23.8007 1.19937C23.5663 0.964948 23.2484 0.833252 22.9168 0.833252H2.0835C1.75198 0.833252 1.43403 0.964948 1.19961 1.19937C0.965192 1.43379 0.833496 1.75173 0.833496 2.08325V8.33325C0.833496 8.66477 0.965192 8.98272 1.19961 9.21714C1.43403 9.45156 1.75198 9.58325 2.0835 9.58325H17.9168C18.0273 9.58325 18.1333 9.62715 18.2115 9.70529C18.2896 9.78343 18.3335 9.88941 18.3335 9.99992V12.8003C18.332 12.8238 18.3382 12.847 18.3514 12.8665C18.3645 12.886 18.3837 12.9005 18.406 12.9078C18.4271 12.9176 18.4509 12.92 18.4736 12.9146C18.4963 12.9092 18.5165 12.8964 18.531 12.8783L21.3585 9.722C21.3973 9.67861 21.4449 9.64385 21.498 9.61995C21.5511 9.59605 21.6086 9.58355 21.6668 9.58325H22.9168C23.2484 9.58325 23.5663 9.45156 23.8007 9.21714C24.0351 8.98272 24.1668 8.66477 24.1668 8.33325V2.08325ZM15.4168 7.08325H3.75016C3.63966 7.08325 3.53368 7.03935 3.45554 6.96121C3.3774 6.88307 3.3335 6.77709 3.3335 6.66659C3.3335 6.55608 3.3774 6.4501 3.45554 6.37196C3.53368 6.29382 3.63966 6.24992 3.75016 6.24992H15.4168C15.5273 6.24992 15.6333 6.29382 15.7115 6.37196C15.7896 6.4501 15.8335 6.55608 15.8335 6.66659C15.8335 6.77709 15.7896 6.88307 15.7115 6.96121C15.6333 7.03935 15.5273 7.08325 15.4168 7.08325ZM21.2502 4.16659H3.75016C3.63966 4.16659 3.53368 4.12269 3.45554 4.04455C3.3774 3.96641 3.3335 3.86043 3.3335 3.74992C3.3335 3.63941 3.3774 3.53343 3.45554 3.45529C3.53368 3.37715 3.63966 3.33325 3.75016 3.33325H21.2502C21.3607 3.33325 21.4667 3.37715 21.5448 3.45529C21.6229 3.53343 21.6668 3.63941 21.6668 3.74992C21.6668 3.86043 21.6229 3.96641 21.5448 4.04455C21.4667 4.12269 21.3607 4.16659 21.2502 4.16659Z" fill="#076871"/>
<path d="M24.1668 13.3333C24.1668 13.0017 24.0351 12.6838 23.8007 12.4494C23.5663 12.2149 23.2484 12.0833 22.9168 12.0833H20.3597L19.1481 13.4362C19.0199 13.5782 18.8516 13.678 18.6654 13.7224C18.4793 13.7668 18.2841 13.7537 18.1055 13.6848C17.927 13.6159 17.7735 13.4945 17.6655 13.3366C17.5574 13.1787 17.4998 12.9917 17.5002 12.8003V12.0833H2.0835C1.75198 12.0833 1.43403 12.2149 1.19961 12.4494C0.965192 12.6838 0.833496 13.0017 0.833496 13.3333V19.5833C0.833496 19.9148 0.965192 20.2327 1.19961 20.4671C1.43403 20.7016 1.75198 20.8333 2.0835 20.8333H17.9168C18.0273 20.8333 18.1333 20.8772 18.2115 20.9553C18.2896 21.0334 18.3335 21.1394 18.3335 21.2499V24.0499C18.3332 24.0728 18.3398 24.0952 18.3524 24.1142C18.3651 24.1332 18.3832 24.148 18.4045 24.1565C18.4257 24.1649 18.449 24.1668 18.4713 24.1618C18.4936 24.1567 18.5138 24.145 18.5293 24.1283L21.3564 20.972C21.3955 20.9284 21.4433 20.8934 21.4968 20.8695C21.5503 20.8456 21.6082 20.8333 21.6668 20.8333H22.9168C23.2484 20.8333 23.5663 20.7016 23.8007 20.4671C24.0351 20.2327 24.1668 19.9148 24.1668 19.5833V13.3333ZM15.4168 18.3333H3.75016C3.63966 18.3333 3.53368 18.2894 3.45554 18.2112C3.3774 18.1331 3.3335 18.0271 3.3335 17.9166C3.3335 17.8061 3.3774 17.7001 3.45554 17.622C3.53368 17.5438 3.63966 17.4999 3.75016 17.4999H15.4168C15.5273 17.4999 15.6333 17.5438 15.7115 17.622C15.7896 17.7001 15.8335 17.8061 15.8335 17.9166C15.8335 18.0271 15.7896 18.1331 15.7115 18.2112C15.6333 18.2894 15.5273 18.3333 15.4168 18.3333ZM21.2502 15.4166H3.75016C3.63966 15.4166 3.53368 15.3727 3.45554 15.2945C3.3774 15.2164 3.3335 15.1104 3.3335 14.9999C3.3335 14.8894 3.3774 14.7834 3.45554 14.7053C3.53368 14.6272 3.63966 14.5833 3.75016 14.5833H21.2502C21.3607 14.5833 21.4667 14.6272 21.5448 14.7053C21.6229 14.7834 21.6668 14.8894 21.6668 14.9999C21.6668 15.1104 21.6229 15.2164 21.5448 15.2945C21.4667 15.3727 21.3607 15.4166 21.2502 15.4166Z" fill="#076871"/>
</g>
<defs>
<clipPath id="clip0_13_2360">
<rect width="25" height="25" fill="white"/>
</clipPath>
</defs>
</svg>
