<svg width="26" height="25" viewBox="0 0 26 25" fill="none" xmlns="http://www.w3.org/2000/svg">
<path d="M24.6666 2.08337C24.6666 1.75185 24.535 1.43391 24.3005 1.19949C24.0661 0.96507 23.7482 0.833374 23.4166 0.833374H2.58331C2.25179 0.833374 1.93385 0.96507 1.69943 1.19949C1.46501 1.43391 1.33331 1.75185 1.33331 2.08337V8.33337C1.33331 8.6649 1.46501 8.98284 1.69943 9.21726C1.93385 9.45168 2.25179 9.58337 2.58331 9.58337H18.4166C18.5272 9.58337 18.6331 9.62727 18.7113 9.70541C18.7894 9.78355 18.8333 9.88953 18.8333 10V12.8005C18.8318 12.8239 18.838 12.8472 18.8512 12.8666C18.8643 12.8861 18.8835 12.9006 18.9058 12.908C18.927 12.9177 18.9508 12.9201 18.9734 12.9147C18.9961 12.9094 19.0163 12.8966 19.0308 12.8784L21.8583 9.72213C21.8972 9.67873 21.9447 9.64397 21.9978 9.62007C22.0509 9.59617 22.1084 9.58367 22.1666 9.58337H23.4166C23.7482 9.58337 24.0661 9.45168 24.3005 9.21726C24.535 8.98284 24.6666 8.6649 24.6666 8.33337V2.08337ZM15.9166 7.08337H4.24998C4.13947 7.08337 4.03349 7.03948 3.95535 6.96134C3.87721 6.8832 3.83331 6.77722 3.83331 6.66671C3.83331 6.5562 3.87721 6.45022 3.95535 6.37208C4.03349 6.29394 4.13947 6.25004 4.24998 6.25004H15.9166C16.0272 6.25004 16.1331 6.29394 16.2113 6.37208C16.2894 6.45022 16.3333 6.5562 16.3333 6.66671C16.3333 6.77722 16.2894 6.8832 16.2113 6.96134C16.1331 7.03948 16.0272 7.08337 15.9166 7.08337ZM21.75 4.16671H4.24998C4.13947 4.16671 4.03349 4.12281 3.95535 4.04467C3.87721 3.96653 3.83331 3.86055 3.83331 3.75004C3.83331 3.63953 3.87721 3.53355 3.95535 3.45541C4.03349 3.37727 4.13947 3.33337 4.24998 3.33337H21.75C21.8605 3.33337 21.9665 3.37727 22.0446 3.45541C22.1228 3.53355 22.1666 3.63953 22.1666 3.75004C22.1666 3.86055 22.1228 3.96653 22.0446 4.04467C21.9665 4.12281 21.8605 4.16671 21.75 4.16671Z" fill="white"/>
<path d="M24.6666 13.3334C24.6666 13.0019 24.535 12.6839 24.3005 12.4495C24.0661 12.2151 23.7482 12.0834 23.4166 12.0834H20.8596L19.6479 13.4363C19.5197 13.5783 19.3514 13.6781 19.1652 13.7225C18.9791 13.7669 18.7839 13.7538 18.6053 13.6849C18.4268 13.6161 18.2734 13.4946 18.1653 13.3367C18.0572 13.1788 17.9996 12.9918 18 12.8005V12.0834H2.58331C2.25179 12.0834 1.93385 12.2151 1.69943 12.4495C1.46501 12.6839 1.33331 13.0019 1.33331 13.3334V19.5834C1.33331 19.9149 1.46501 20.2328 1.69943 20.4673C1.93385 20.7017 2.25179 20.8334 2.58331 20.8334H18.4166C18.5272 20.8334 18.6331 20.8773 18.7113 20.9554C18.7894 21.0336 18.8333 21.1395 18.8333 21.25V24.05C18.833 24.0729 18.8396 24.0953 18.8522 24.1143C18.8649 24.1334 18.8831 24.1481 18.9043 24.1566C18.9255 24.1651 18.9488 24.1669 18.9711 24.1619C18.9934 24.1568 19.0136 24.1452 19.0291 24.1284L21.8562 20.9721C21.8953 20.9285 21.9432 20.8936 21.9966 20.8696C22.0501 20.8457 22.1081 20.8334 22.1666 20.8334H23.4166C23.7482 20.8334 24.0661 20.7017 24.3005 20.4673C24.535 20.2328 24.6666 19.9149 24.6666 19.5834V13.3334ZM15.9166 18.3334H4.24998C4.13947 18.3334 4.03349 18.2895 3.95535 18.2113C3.87721 18.1332 3.83331 18.0272 3.83331 17.9167C3.83331 17.8062 3.87721 17.7002 3.95535 17.6221C4.03349 17.5439 4.13947 17.5 4.24998 17.5H15.9166C16.0272 17.5 16.1331 17.5439 16.2113 17.6221C16.2894 17.7002 16.3333 17.8062 16.3333 17.9167C16.3333 18.0272 16.2894 18.1332 16.2113 18.2113C16.1331 18.2895 16.0272 18.3334 15.9166 18.3334ZM21.75 15.4167H4.24998C4.13947 15.4167 4.03349 15.3728 3.95535 15.2947C3.87721 15.2165 3.83331 15.1105 3.83331 15C3.83331 14.8895 3.87721 14.7836 3.95535 14.7054C4.03349 14.6273 4.13947 14.5834 4.24998 14.5834H21.75C21.8605 14.5834 21.9665 14.6273 22.0446 14.7054C22.1228 14.7836 22.1666 14.8895 22.1666 15C22.1666 15.1105 22.1228 15.2165 22.0446 15.2947C21.9665 15.3728 21.8605 15.4167 21.75 15.4167Z" fill="white"/>
</svg>
