<svg width="31" height="30" viewBox="0 0 31 30" fill="none" xmlns="http://www.w3.org/2000/svg">
<path d="M6.05467 18.7969C6.05467 19.6781 5.87061 20.5312 5.51217 21.3375L4.09778 24.4781C3.9622 24.7875 3.99123 25.1438 4.18499 25.425C4.37875 25.7062 4.6984 25.875 5.04719 25.875H10.2978C10.7822 28.2281 12.9231 30 15.4903 30H15.5097C18.0768 30 20.2178 28.2281 20.7022 25.875H25.9528C26.3016 25.875 26.6212 25.7062 26.815 25.425C27.0087 25.1438 27.0378 24.7875 26.9022 24.4781L25.4878 21.3375C25.1294 20.5312 24.9453 19.6781 24.9453 18.7969V12.1406C24.9453 7.09688 20.7022 3 15.5 3C10.2978 3 6.05467 7.09688 6.05467 12.1406V18.7969ZM18.5709 25.875C18.1447 27.1125 16.9337 28.0031 15.5097 28.0031H15.4903C14.0663 28.0031 12.8553 27.1125 12.4291 25.875H18.5709Z" fill="white"/>
<path d="M12.6321 0C12.061 0 11.5988 0.44775 11.5988 0.999984C11.5988 1.55222 12.061 1.99997 12.6321 1.99997H18.3679C18.9391 1.99997 19.4013 1.55222 19.4013 0.999984C19.4013 0.44775 18.9391 0 18.3679 0H12.6321Z" fill="white"/>
</svg>
