<svg width="25" height="26" viewBox="0 0 25 26" fill="none" xmlns="http://www.w3.org/2000/svg">
<path d="M4.88286 16.2907C4.88286 17.0545 4.73442 17.7938 4.44536 18.4926L3.30471 21.2145C3.19538 21.4826 3.21879 21.7913 3.37505 22.0351C3.53131 22.2788 3.78909 22.4251 4.07037 22.4251H8.30473C8.69536 24.4645 10.4219 26.0001 12.4922 26.0001H12.5079C14.5781 26.0001 16.3047 24.4645 16.6954 22.4251H20.9297C21.211 22.4251 21.4688 22.2788 21.625 22.0351C21.7813 21.7913 21.8047 21.4826 21.6954 21.2145L20.5547 18.4926C20.2657 17.7938 20.1172 17.0545 20.1172 16.2907V10.522C20.1172 6.15072 16.6954 2.6001 12.5 2.6001C8.30473 2.6001 4.88286 6.15072 4.88286 10.522V16.2907ZM14.9766 22.4251C14.6328 23.4976 13.6563 24.2695 12.5079 24.2695H12.4922C11.3438 24.2695 10.3672 23.4976 10.0235 22.4251H14.9766Z" fill="#076871"/>
<path d="M10.1872 0C9.72662 0 9.35388 0.38805 9.35388 0.866653C9.35388 1.34526 9.72662 1.73331 10.1872 1.73331H14.8129C15.2735 1.73331 15.6462 1.34526 15.6462 0.866653C15.6462 0.38805 15.2735 0 14.8129 0H10.1872Z" fill="#076871"/>
</svg>
