<svg width="26" height="25" viewBox="0 0 26 25" fill="none" xmlns="http://www.w3.org/2000/svg">
<path d="M22.375 9.6355H17.1667C16.684 9.63823 16.222 9.83117 15.8807 10.1724C15.5394 10.5137 15.3465 10.9758 15.3438 11.4584V22.9167C15.3464 23.1231 15.4296 23.3203 15.5756 23.4662C15.7215 23.6121 15.9186 23.6953 16.125 23.698H22.375C22.8576 23.6953 23.3197 23.5023 23.661 23.1611C24.0022 22.8198 24.1952 22.3577 24.1979 21.8751V11.4584C24.1952 10.9758 24.0022 10.5137 23.661 10.1724C23.3197 9.83117 22.8576 9.63823 22.375 9.6355ZM20.8125 20.573H18.7292C18.522 20.573 18.3233 20.4907 18.1767 20.3442C18.0302 20.1977 17.9479 19.9989 17.9479 19.7917C17.9479 19.5845 18.0302 19.3858 18.1767 19.2393C18.3233 19.0928 18.522 19.0105 18.7292 19.0105H20.8125C21.0197 19.0105 21.2184 19.0928 21.3649 19.2393C21.5114 19.3858 21.5938 19.5845 21.5938 19.7917C21.5938 19.9989 21.5114 20.1977 21.3649 20.3442C21.2184 20.4907 21.0197 20.573 20.8125 20.573ZM20.8125 17.448H18.7292C18.522 17.448 18.3233 17.3657 18.1767 17.2192C18.0302 17.0727 17.9479 16.8739 17.9479 16.6667C17.9479 16.4595 18.0302 16.2608 18.1767 16.1143C18.3233 15.9678 18.522 15.8855 18.7292 15.8855H20.8125C21.0197 15.8855 21.2184 15.9678 21.3649 16.1143C21.5114 16.2608 21.5938 16.4595 21.5938 16.6667C21.5938 16.8739 21.5114 17.0727 21.3649 17.2192C21.2184 17.3657 21.0197 17.448 20.8125 17.448ZM20.8125 14.323H18.7292C18.522 14.323 18.3233 14.2407 18.1767 14.0942C18.0302 13.9477 17.9479 13.7489 17.9479 13.5417C17.9479 13.3345 18.0302 13.1358 18.1767 12.9893C18.3233 12.8428 18.522 12.7605 18.7292 12.7605H20.8125C21.0197 12.7605 21.2184 12.8428 21.3649 12.9893C21.5114 13.1358 21.5938 13.3345 21.5938 13.5417C21.5938 13.7489 21.5114 13.9477 21.3649 14.0942C21.2184 14.2407 21.0197 14.323 20.8125 14.323Z" fill="white"/>
<path d="M7.53125 19.5312H11.1771V23.6979H7.53125V19.5312Z" fill="white"/>
<path d="M14.6667 5.27087L4.59375 1.6042C4.39601 1.53326 4.18423 1.51043 3.97592 1.5376C3.7676 1.56477 3.56876 1.64116 3.39583 1.76045C3.22895 1.879 3.09212 2.03494 2.99625 2.21581C2.90039 2.39668 2.84817 2.59746 2.84375 2.80212V21.875C2.84648 22.3577 3.03942 22.8197 3.38069 23.161C3.72196 23.5023 4.18404 23.6952 4.66667 23.698H5.96875V19.2709C5.96875 18.9255 6.10593 18.5943 6.35012 18.3502C6.59431 18.106 6.9255 17.9688 7.27083 17.9688H11.4375C11.7828 17.9688 12.114 18.106 12.3582 18.3502C12.6024 18.5943 12.7396 18.9255 12.7396 19.2709V23.698H15.0833C15.2897 23.6953 15.4868 23.6121 15.6328 23.4661C15.7787 23.3202 15.8619 23.1231 15.8646 22.9167V6.9792C15.8637 6.60608 15.7484 6.2422 15.5342 5.9367C15.32 5.6312 15.0172 5.39879 14.6667 5.27087ZM7.27083 7.55212H9.875C10.0822 7.55212 10.2809 7.63443 10.4274 7.78094C10.5739 7.92745 10.6563 8.12617 10.6563 8.33337C10.6563 8.54057 10.5739 8.73928 10.4274 8.88579C10.2809 9.03231 10.0822 9.11462 9.875 9.11462H7.27083C7.06363 9.11462 6.86492 9.03231 6.71841 8.88579C6.57189 8.73928 6.48958 8.54057 6.48958 8.33337C6.48958 8.12617 6.57189 7.92745 6.71841 7.78094C6.86492 7.63443 7.06363 7.55212 7.27083 7.55212ZM11.4375 15.3646H7.27083C7.06363 15.3646 6.86492 15.2823 6.71841 15.1358C6.57189 14.9893 6.48958 14.7906 6.48958 14.5834C6.48958 14.3762 6.57189 14.1775 6.71841 14.0309C6.86492 13.8844 7.06363 13.8021 7.27083 13.8021H11.4375C11.6447 13.8021 11.8434 13.8844 11.9899 14.0309C12.1364 14.1775 12.2188 14.3762 12.2188 14.5834C12.2188 14.7906 12.1364 14.9893 11.9899 15.1358C11.8434 15.2823 11.6447 15.3646 11.4375 15.3646ZM11.4375 12.2396H7.27083C7.06363 12.2396 6.86492 12.1573 6.71841 12.0108C6.57189 11.8643 6.48958 11.6656 6.48958 11.4584C6.48958 11.2512 6.57189 11.0525 6.71841 10.9059C6.86492 10.7594 7.06363 10.6771 7.27083 10.6771H11.4375C11.6447 10.6771 11.8434 10.7594 11.9899 10.9059C12.1364 11.0525 12.2188 11.2512 12.2188 11.4584C12.2188 11.6656 12.1364 11.8643 11.9899 12.0108C11.8434 12.1573 11.6447 12.2396 11.4375 12.2396Z" fill="white"/>
</svg>
