<svg width="25" height="25" viewBox="0 0 25 25" fill="none" xmlns="http://www.w3.org/2000/svg">
<path d="M21.875 9.63525H16.6667C16.184 9.63799 15.722 9.83092 15.3807 10.1722C15.0394 10.5135 14.8465 10.9755 14.8438 11.4582V22.9165C14.8464 23.1229 14.9296 23.32 15.0756 23.4659C15.2215 23.6119 15.4186 23.6951 15.625 23.6978H21.875C22.3576 23.695 22.8197 23.5021 23.161 23.1608C23.5022 22.8195 23.6952 22.3575 23.6979 21.8748V11.4582C23.6952 10.9755 23.5022 10.5135 23.161 10.1722C22.8197 9.83092 22.3576 9.63799 21.875 9.63525ZM20.3125 20.5728H18.2292C18.022 20.5728 17.8233 20.4904 17.6767 20.3439C17.5302 20.1974 17.4479 19.9987 17.4479 19.7915C17.4479 19.5843 17.5302 19.3856 17.6767 19.2391C17.8233 19.0926 18.022 19.0103 18.2292 19.0103H20.3125C20.5197 19.0103 20.7184 19.0926 20.8649 19.2391C21.0114 19.3856 21.0938 19.5843 21.0938 19.7915C21.0938 19.9987 21.0114 20.1974 20.8649 20.3439C20.7184 20.4904 20.5197 20.5728 20.3125 20.5728ZM20.3125 17.4478H18.2292C18.022 17.4478 17.8233 17.3654 17.6767 17.2189C17.5302 17.0724 17.4479 16.8737 17.4479 16.6665C17.4479 16.4593 17.5302 16.2606 17.6767 16.1141C17.8233 15.9676 18.022 15.8853 18.2292 15.8853H20.3125C20.5197 15.8853 20.7184 15.9676 20.8649 16.1141C21.0114 16.2606 21.0938 16.4593 21.0938 16.6665C21.0938 16.8737 21.0114 17.0724 20.8649 17.2189C20.7184 17.3654 20.5197 17.4478 20.3125 17.4478ZM20.3125 14.3228H18.2292C18.022 14.3228 17.8233 14.2404 17.6767 14.0939C17.5302 13.9474 17.4479 13.7487 17.4479 13.5415C17.4479 13.3343 17.5302 13.1356 17.6767 12.9891C17.8233 12.8426 18.022 12.7603 18.2292 12.7603H20.3125C20.5197 12.7603 20.7184 12.8426 20.8649 12.9891C21.0114 13.1356 21.0938 13.3343 21.0938 13.5415C21.0938 13.7487 21.0114 13.9474 20.8649 14.0939C20.7184 14.2404 20.5197 14.3228 20.3125 14.3228Z" fill="#076871"/>
<path d="M7.03125 19.5312H10.6771V23.6979H7.03125V19.5312Z" fill="#076871"/>
<path d="M14.1667 5.27074L4.09375 1.60408C3.89601 1.53314 3.68423 1.51031 3.47592 1.53748C3.2676 1.56465 3.06876 1.64104 2.89583 1.76033C2.72895 1.87888 2.59212 2.03482 2.49625 2.21569C2.40039 2.39656 2.34817 2.59734 2.34375 2.80199V21.8749C2.34648 22.3575 2.53942 22.8196 2.88069 23.1609C3.22196 23.5022 3.68404 23.6951 4.16667 23.6978H5.46875V19.2707C5.46875 18.9254 5.60593 18.5942 5.85012 18.35C6.09431 18.1058 6.4255 17.9687 6.77083 17.9687H10.9375C11.2828 17.9687 11.614 18.1058 11.8582 18.35C12.1024 18.5942 12.2396 18.9254 12.2396 19.2707V23.6978H14.5833C14.7897 23.6951 14.9868 23.612 15.1328 23.466C15.2787 23.3201 15.3619 23.1229 15.3646 22.9166V6.97908C15.3637 6.60595 15.2484 6.24208 15.0342 5.93658C14.82 5.63108 14.5172 5.39867 14.1667 5.27074ZM6.77083 7.55199H9.375C9.5822 7.55199 9.78092 7.6343 9.92743 7.78082C10.0739 7.92733 10.1563 8.12604 10.1563 8.33324C10.1563 8.54044 10.0739 8.73916 9.92743 8.88567C9.78092 9.03218 9.5822 9.11449 9.375 9.11449H6.77083C6.56363 9.11449 6.36492 9.03218 6.21841 8.88567C6.07189 8.73916 5.98958 8.54044 5.98958 8.33324C5.98958 8.12604 6.07189 7.92733 6.21841 7.78082C6.36492 7.6343 6.56363 7.55199 6.77083 7.55199ZM10.9375 15.3645H6.77083C6.56363 15.3645 6.36492 15.2822 6.21841 15.1357C6.07189 14.9892 5.98958 14.7904 5.98958 14.5832C5.98958 14.376 6.07189 14.1773 6.21841 14.0308C6.36492 13.8843 6.56363 13.802 6.77083 13.802H10.9375C11.1447 13.802 11.3434 13.8843 11.4899 14.0308C11.6364 14.1773 11.7188 14.376 11.7188 14.5832C11.7188 14.7904 11.6364 14.9892 11.4899 15.1357C11.3434 15.2822 11.1447 15.3645 10.9375 15.3645ZM10.9375 12.2395H6.77083C6.56363 12.2395 6.36492 12.1572 6.21841 12.0107C6.07189 11.8642 5.98958 11.6654 5.98958 11.4582C5.98958 11.251 6.07189 11.0523 6.21841 10.9058C6.36492 10.7593 6.56363 10.677 6.77083 10.677H10.9375C11.1447 10.677 11.3434 10.7593 11.4899 10.9058C11.6364 11.0523 11.7188 11.251 11.7188 11.4582C11.7188 11.6654 11.6364 11.8642 11.4899 12.0107C11.3434 12.1572 11.1447 12.2395 10.9375 12.2395Z" fill="#076871"/>
</svg>
