<svg width="29" height="29" viewBox="0 0 29 29" fill="none" xmlns="http://www.w3.org/2000/svg">
<path d="M7.24365 13.0838V15.9168L8.68821 16.1356C8.81871 16.6064 9.00495 17.0582 9.24284 17.4773L8.37601 18.6514L10.3797 20.6551L11.5538 19.7883C11.9729 20.0257 12.4206 20.2124 12.8955 20.3429L13.1143 21.7874H15.9473L16.1661 20.3429C16.6369 20.2124 17.0887 20.0262 17.5078 19.7883L18.6819 20.6551L20.6856 18.6514L19.8188 17.4773C20.0562 17.0582 20.2429 16.606 20.3734 16.1356L21.818 15.9168V13.0838L20.3734 12.865C20.2429 12.3942 20.0567 11.9424 19.8188 11.5233L20.6856 10.3492L18.6819 8.34549L17.5078 9.21232C17.0887 8.97488 16.6365 8.7882 16.1661 8.6577L15.9473 7.21313H13.1143L12.8955 8.6577C12.4202 8.7882 11.9729 8.97443 11.5538 9.21232L10.3797 8.34549L8.37601 10.3492L9.24284 11.5233C9.0054 11.9424 8.81871 12.3946 8.68821 12.865L7.24365 13.0838ZM14.5308 10.5119C16.7348 10.5119 18.5192 12.2963 18.5192 14.5003C18.5192 16.7043 16.7348 18.4887 14.5308 18.4887C12.3268 18.4887 10.5424 16.7038 10.5424 14.4998C10.5424 12.2963 12.3273 10.5119 14.5308 10.5119Z" fill="#076871"/>
<path d="M24.9125 15.2151C24.6647 15.1883 24.4399 15.3664 24.4123 15.6152C23.8133 20.9806 19.1298 24.8535 13.7385 24.4167C10.0786 24.1244 6.87 21.8098 5.41502 18.4685L6.7898 18.2089C6.96199 18.1767 7.09974 18.048 7.14414 17.8785C7.18855 17.7091 7.131 17.5292 6.99688 17.4163L4.50197 15.3247C4.39821 15.2377 4.26046 15.2019 4.12679 15.2268C3.99357 15.2522 3.87802 15.3356 3.81322 15.4548L2.25357 18.3126C2.16974 18.4667 2.18197 18.6547 2.28483 18.7961C2.37093 18.9148 2.50777 18.9828 2.65141 18.9828C2.6795 18.9828 2.7076 18.9801 2.73569 18.9746L4.5065 18.6402C6.05438 22.3871 9.60552 24.9958 13.6673 25.3202C13.9664 25.3442 14.2632 25.3555 14.5582 25.3555C20.0532 25.3555 24.6932 21.2724 25.3135 15.7162C25.3403 15.467 25.1613 15.2427 24.9125 15.2151Z" fill="#076871"/>
<path d="M26.2579 10.0756L24.5795 10.4236C23.0462 6.64139 19.481 4.00738 15.3942 3.68067C9.51675 3.20942 4.40187 7.42983 3.74801 13.2847C3.71992 13.5334 3.89936 13.7577 4.14812 13.7854C4.16534 13.7872 4.18211 13.7881 4.19887 13.7881C4.42634 13.7881 4.62255 13.6168 4.64837 13.3853C5.2474 8.0198 9.93815 4.14739 15.3222 4.5842C19.012 4.87919 22.2387 7.22683 23.6769 10.6108L22.2169 10.9135C22.0457 10.9493 21.9097 11.0802 21.8685 11.2506C21.8273 11.4205 21.8875 11.5995 22.0239 11.7096L24.5555 13.7573C24.6371 13.8234 24.7377 13.8583 24.8405 13.8583C24.8709 13.8583 24.9022 13.8551 24.9325 13.8488C25.0653 13.8207 25.179 13.7355 25.242 13.615L26.7509 10.7299C26.832 10.5745 26.8166 10.3865 26.711 10.2469C26.6059 10.1069 26.4292 10.0412 26.2579 10.0756Z" fill="#076871"/>
<path d="M13.9737 16.0369C14.0539 16.0953 14.1477 16.1243 14.2415 16.1243C14.3485 16.1243 14.4554 16.0863 14.5406 16.0115L16.605 14.1981C16.7931 14.0332 16.8117 13.7468 16.6463 13.5587C16.4813 13.3711 16.195 13.3521 16.0065 13.5175L14.2157 15.0908L13.2718 14.3993C13.0698 14.2511 12.7861 14.2955 12.6384 14.4972C12.4907 14.6988 12.5342 14.9825 12.7358 15.1302L13.9737 16.0369Z" fill="#076871"/>
</svg>
