<svg width="30" height="30" viewBox="0 0 30 30" fill="none" xmlns="http://www.w3.org/2000/svg">
<path d="M7.49347 13.5352V16.4658L8.98784 16.6922C9.12284 17.1792 9.3155 17.6466 9.56159 18.0802L8.66488 19.2947L10.7377 21.3675L11.9522 20.4708C12.3858 20.7164 12.8489 20.9095 13.3402 21.0445L13.5666 22.5389H16.4972L16.7236 21.0445C17.2107 20.9095 17.678 20.7169 18.1116 20.4708L19.3261 21.3675L21.3989 19.2947L20.5022 18.0802C20.7478 17.6466 20.941 17.1788 21.076 16.6922L22.5703 16.4658V13.5352L21.076 13.3088C20.941 12.8217 20.7483 12.3544 20.5022 11.9208L21.3989 10.7063L19.3261 8.63344L18.1116 9.53016C17.678 9.28454 17.2102 9.09141 16.7236 8.95641L16.4972 7.46204H13.5666L13.3402 8.95641C12.8485 9.09141 12.3858 9.28407 11.9522 9.53016L10.7377 8.63344L8.66488 10.7063L9.56159 11.9208C9.31597 12.3544 9.12284 12.8222 8.98784 13.3088L7.49347 13.5352ZM15.0319 10.8745C17.3119 10.8745 19.1578 12.7205 19.1578 15.0005C19.1578 17.2805 17.3119 19.1264 15.0319 19.1264C12.7519 19.1264 10.906 17.28 10.906 15C10.906 12.7205 12.7524 10.8745 15.0319 10.8745Z" fill="white"/>
<path d="M25.7714 15.7397C25.515 15.712 25.2825 15.8962 25.2539 16.1536C24.6342 21.7041 19.7892 25.7105 14.212 25.2586C10.4259 24.9562 7.10672 22.5619 5.60157 19.1053L7.02375 18.8367C7.20188 18.8034 7.34438 18.6703 7.39032 18.495C7.43625 18.3197 7.37672 18.1336 7.23797 18.0169L4.65703 15.8531C4.54969 15.7631 4.40719 15.7261 4.26891 15.7519C4.1311 15.7781 4.01157 15.8644 3.94453 15.9877L2.3311 18.9441C2.24438 19.1034 2.25703 19.298 2.36344 19.4442C2.4525 19.567 2.59407 19.6373 2.74266 19.6373C2.77172 19.6373 2.80078 19.6345 2.82985 19.6289L4.66172 19.283C6.26297 23.1591 9.93657 25.8577 14.1384 26.1933C14.4478 26.2181 14.7548 26.2298 15.06 26.2298C20.7445 26.2298 25.5445 22.0059 26.1863 16.2581C26.2139 16.0003 26.0288 15.7683 25.7714 15.7397Z" fill="white"/>
<path d="M27.1631 10.4231L25.4269 10.7831C23.8406 6.87046 20.1525 4.14561 15.9248 3.80764C9.84468 3.32014 4.55343 7.68608 3.87702 13.7428C3.84796 14.0001 4.03358 14.2322 4.29093 14.2608C4.30874 14.2626 4.32608 14.2636 4.34343 14.2636C4.57874 14.2636 4.78171 14.0864 4.80843 13.8469C5.42811 8.29639 10.2806 4.29046 15.8503 4.74233C19.6673 5.04749 23.0053 7.47608 24.4931 10.9767L22.9828 11.2898C22.8056 11.3269 22.665 11.4623 22.6223 11.6386C22.5797 11.8144 22.642 11.9995 22.7831 12.1134L25.402 14.2317C25.4864 14.3001 25.5905 14.3362 25.6969 14.3362C25.7283 14.3362 25.7606 14.333 25.792 14.3264C25.9294 14.2973 26.047 14.2092 26.1122 14.0845L27.6731 11.1C27.757 10.9392 27.7411 10.7447 27.6319 10.6003C27.5231 10.4555 27.3403 10.3875 27.1631 10.4231Z" fill="white"/>
<path d="M14.4553 16.59C14.5383 16.6505 14.6353 16.6805 14.7323 16.6805C14.843 16.6805 14.9536 16.6411 15.0417 16.5638L17.1773 14.6879C17.3719 14.5172 17.3911 14.221 17.22 14.0264C17.0494 13.8324 16.7531 13.8127 16.5581 13.9838L14.7056 15.6113L13.7292 14.896C13.5201 14.7427 13.2267 14.7886 13.0739 14.9972C12.9211 15.2058 12.9661 15.4993 13.1747 15.6521L14.4553 16.59Z" fill="white"/>
</svg>
