<svg width="25" height="25" viewBox="0 0 25 25" fill="none" xmlns="http://www.w3.org/2000/svg">
<g clip-path="url(#clip0_230_5559)">
<path d="M0 17.2794C0 14.2338 2.46902 11.7647 5.51471 11.7647H5.88235C6.28844 11.7647 6.61765 12.0939 6.61765 12.5C6.61765 12.9061 6.28844 13.2353 5.88235 13.2353H5.51471C3.2812 13.2353 1.47059 15.0459 1.47059 17.2794C1.47059 19.1654 2.7615 20.7498 4.50789 21.1972L4.1489 20.5989C3.93997 20.2507 4.05289 19.799 4.40111 19.5901C4.74933 19.3812 5.20099 19.4941 5.40992 19.8423L6.51286 21.6806C6.70221 21.9962 6.62908 22.4031 6.34169 22.633L4.50345 24.1036C4.18635 24.3573 3.72363 24.3059 3.46995 23.9888C3.21627 23.6717 3.26768 23.2089 3.58478 22.9553L4.0366 22.5938C1.70868 21.9477 0 19.8131 0 17.2794ZM21.4152 13.3964C21.7323 13.6501 21.7837 14.1128 21.5301 14.43C21.2764 14.7471 20.8137 14.7985 20.4965 14.5448L18.6583 13.0742C18.3709 12.8443 18.2978 12.4373 18.4871 12.1217L19.5901 10.2835C19.799 9.93529 20.2507 9.82236 20.5989 10.0313C20.9471 10.2402 21.06 10.6919 20.8511 11.0401L20.4921 11.6384C22.2385 11.1909 23.5294 9.60653 23.5294 7.72062C23.5294 5.48711 21.7188 3.6765 19.4853 3.6765H19.1176C18.7116 3.6765 18.3824 3.3473 18.3824 2.94121C18.3824 2.53511 18.7116 2.20591 19.1176 2.20591H19.4853C22.531 2.20591 25 4.67493 25 7.72062C25 10.2543 23.2913 12.3889 20.9634 13.035L21.4152 13.3964ZM9.19118 0.367676H15.8088C16.621 0.367676 17.2794 1.02608 17.2794 1.83826V4.04415C17.2794 4.85633 16.621 5.51473 15.8088 5.51473H9.19118C8.37899 5.51473 7.72059 4.85633 7.72059 4.04415V1.83826C7.72059 1.02608 8.37899 0.367676 9.19118 0.367676ZM9.19118 19.4853H15.8088C16.621 19.4853 17.2794 20.1437 17.2794 20.9559V23.1618C17.2794 23.974 16.621 24.6324 15.8088 24.6324H9.19118C8.37899 24.6324 7.72059 23.974 7.72059 23.1618V20.9559C7.72059 20.1437 8.37899 19.4853 9.19118 19.4853ZM9.19118 9.9265H15.8088C16.621 9.9265 17.2794 10.5849 17.2794 11.3971V13.603C17.2794 14.4152 16.621 15.0736 15.8088 15.0736H9.19118C8.37899 15.0736 7.72059 14.4152 7.72059 13.603V11.3971C7.72059 10.5849 8.37899 9.9265 9.19118 9.9265Z" fill="#076871"/>
</g>
<defs>
<clipPath id="clip0_230_5559">
<rect width="25" height="25" fill="white"/>
</clipPath>
</defs>
</svg>
