<svg width="30" height="30" viewBox="0 0 30 30" fill="none" xmlns="http://www.w3.org/2000/svg">
<g clip-path="url(#clip0_13_3367)">
<path d="M0 20.7353C0 17.0805 2.96282 14.1176 6.61765 14.1176H7.05882C7.54613 14.1176 7.94118 14.5127 7.94118 15C7.94118 15.4873 7.54613 15.8823 7.05882 15.8823H6.61765C3.93744 15.8823 1.76471 18.0551 1.76471 20.7353C1.76471 22.9984 3.3138 24.8997 5.40947 25.4366L4.97868 24.7186C4.72797 24.3008 4.86346 23.7588 5.28133 23.5081C5.69919 23.2574 6.24118 23.3929 6.4919 23.8108L7.81543 26.0166C8.04266 26.3953 7.95489 26.8837 7.61002 27.1596L5.40414 28.9243C5.02362 29.2287 4.46836 29.167 4.16394 28.7865C3.85952 28.406 3.92121 27.8507 4.30174 27.5463L4.84392 27.1125C2.05042 26.3372 0 23.7757 0 20.7353ZM25.6983 16.0757C26.0788 16.3801 26.1405 16.9354 25.8361 17.3159C25.5316 17.6964 24.9764 17.7581 24.5959 17.4537L22.39 15.689C22.0451 15.4131 21.9573 14.9248 22.1846 14.546L23.5081 12.3402C23.7588 11.9223 24.3008 11.7868 24.7187 12.0375C25.1365 12.2882 25.272 12.8302 25.0213 13.248L24.5905 13.966C26.6862 13.4291 28.2353 11.5278 28.2353 9.26469C28.2353 6.58449 26.0626 4.41175 23.3824 4.41175H22.9412C22.4539 4.41175 22.0588 4.01671 22.0588 3.5294C22.0588 3.04209 22.4539 2.64704 22.9412 2.64704H23.3824C27.0372 2.64704 30 5.60987 30 9.26469C30 12.3051 27.9496 14.8666 25.1561 15.6419L25.6983 16.0757ZM11.0294 0.441162H18.9706C19.9452 0.441162 20.7353 1.23125 20.7353 2.20587V4.85293C20.7353 5.82755 19.9452 6.61763 18.9706 6.61763H11.0294C10.0548 6.61763 9.26471 5.82755 9.26471 4.85293V2.20587C9.26471 1.23125 10.0548 0.441162 11.0294 0.441162ZM11.0294 23.3823H18.9706C19.9452 23.3823 20.7353 24.1724 20.7353 25.147V27.7941C20.7353 28.7687 19.9452 29.5588 18.9706 29.5588H11.0294C10.0548 29.5588 9.26471 28.7687 9.26471 27.7941V25.147C9.26471 24.1724 10.0548 23.3823 11.0294 23.3823ZM11.0294 11.9118H18.9706C19.9452 11.9118 20.7353 12.7018 20.7353 13.6765V16.3235C20.7353 17.2981 19.9452 18.0882 18.9706 18.0882H11.0294C10.0548 18.0882 9.26471 17.2981 9.26471 16.3235V13.6765C9.26471 12.7018 10.0548 11.9118 11.0294 11.9118Z" fill="white"/>
</g>
<defs>
<clipPath id="clip0_13_3367">
<rect width="30" height="30" fill="white"/>
</clipPath>
</defs>
</svg>
