<svg width="30" height="30" viewBox="0 0 30 30" fill="none" xmlns="http://www.w3.org/2000/svg">
<g clip-path="url(#clip0_13_3371)">
<path d="M28.3664 20.1411V2.82397H5.16724V9.3686C6.98224 10.036 8.28044 11.782 8.28044 13.8257C8.28044 15.0125 7.84163 16.098 7.11911 16.9312H12.7422L17.8106 14.4377L18.5866 16.015L13.8239 18.3581V19.6852C13.8239 20.5042 13.5745 21.2661 13.1479 21.8989H30V20.1411H28.3664ZM21.5955 6.26987V8.02769H11.9381V6.26987H21.5955ZM10.4216 11.7524V9.99462H23.112V11.7524H10.4216Z" fill="white"/>
<path d="M3.53348 16.8148C5.18428 16.8148 6.52252 15.4765 6.52252 13.8257C6.52252 12.1749 5.18428 10.8367 3.53348 10.8367C1.88267 10.8367 0.544434 12.1749 0.544434 13.8257C0.544434 15.4765 1.88267 16.8148 3.53348 16.8148Z" fill="white"/>
<path d="M12.066 19.6852V18.689H3.5335C1.58203 18.689 0 20.271 0 22.2225V27.1762H7.06705C7.06705 27.1762 7.06582 21.9201 7.06541 21.8982H9.85295C11.0752 21.8982 12.066 20.9074 12.066 19.6852Z" fill="white"/>
</g>
<defs>
<clipPath id="clip0_13_3371">
<rect width="30" height="30" fill="white"/>
</clipPath>
</defs>
</svg>
