<svg width="25" height="25" viewBox="0 0 25 25" fill="none" xmlns="http://www.w3.org/2000/svg">
<g clip-path="url(#clip0_13_1671)">
<path d="M23.6385 16.7842V2.35327H4.30591V7.80713C5.81841 8.36328 6.90024 9.81831 6.90024 11.5214C6.90024 12.5104 6.53457 13.415 5.93247 14.1093H10.6184L14.842 12.0314L15.4887 13.3458L11.5198 15.2983V16.4043C11.5198 17.0868 11.312 17.7217 10.9564 18.2491H24.9999V16.7842H23.6385ZM17.9961 5.22485V6.6897H9.94829V5.22485H17.9961ZM8.68452 9.79365V8.32881H19.2599V9.79365H8.68452Z" fill="#076871"/>
<path d="M2.94448 14.0123C4.32015 14.0123 5.43535 12.8971 5.43535 11.5214C5.43535 10.1457 4.32015 9.03052 2.94448 9.03052C1.56881 9.03052 0.453613 10.1457 0.453613 11.5214C0.453613 12.8971 1.56881 14.0123 2.94448 14.0123Z" fill="#076871"/>
<path d="M10.055 16.4042V15.574H2.94458C1.31836 15.574 0 16.8923 0 18.5186V22.6466H5.88921C5.88921 22.6466 5.88818 18.2666 5.88784 18.2483H8.21079C9.2293 18.2483 10.055 17.4227 10.055 16.4042Z" fill="#076871"/>
</g>
<defs>
<clipPath id="clip0_13_1671">
<rect width="25" height="25" fill="white"/>
</clipPath>
</defs>
</svg>
