<svg width="30" height="30" viewBox="0 0 30 30" fill="none" xmlns="http://www.w3.org/2000/svg">
<g clip-path="url(#clip0_13_3339)">
<g clip-path="url(#clip1_13_3339)">
<path d="M26.2709 17.9572H24.273C24.4766 18.5147 24.5879 19.1164 24.5879 19.7435V27.2942C24.5879 27.5557 24.5424 27.8066 24.4596 28.04H27.7625C28.9963 28.04 30 27.0363 30 25.8025V21.6863C30 19.6301 28.3271 17.9572 26.2709 17.9572Z" fill="white"/>
<path d="M9.57883 19.7436C9.57883 19.1164 9.69009 18.5148 9.89373 17.9573H7.89588C5.8396 17.9573 4.16669 19.6302 4.16669 21.6865V25.8027C4.16669 27.0364 5.1704 28.0402 6.4042 28.0402H9.70714C9.62434 27.8067 9.57883 27.5558 9.57883 27.2943V19.7436Z" fill="white"/>
<path d="M19.367 16.0144H14.7997C12.7434 16.0144 11.0705 17.6873 11.0705 19.7436V27.2943C11.0705 27.7062 11.4044 28.0401 11.8163 28.0401H22.3504C22.7623 28.0401 23.0962 27.7062 23.0962 27.2943V19.7436C23.0962 17.6873 21.4233 16.0144 19.367 16.0144Z" fill="white"/>
<path d="M17.0834 6.12634C14.6104 6.12634 12.5986 8.13822 12.5986 10.6112C12.5986 12.2886 13.5244 13.7536 14.8916 14.5227C15.5401 14.8875 16.2878 15.096 17.0834 15.096C17.879 15.096 18.6266 14.8875 19.2751 14.5227C20.6424 13.7536 21.5682 12.2886 21.5682 10.6112C21.5682 8.13827 19.5563 6.12634 17.0834 6.12634Z" fill="white"/>
<path d="M9.20812 10.3065C7.35866 10.3065 5.85406 11.8111 5.85406 13.6606C5.85406 15.51 7.35866 17.0146 9.20812 17.0146C9.67726 17.0146 10.124 16.9174 10.5298 16.7428C11.2314 16.4407 11.81 15.906 12.168 15.2362C12.4192 14.7661 12.5622 14.2298 12.5622 13.6606C12.5622 11.8112 11.0576 10.3065 9.20812 10.3065Z" fill="white"/>
<path d="M24.9586 10.3065C23.1091 10.3065 21.6046 11.8111 21.6046 13.6606C21.6046 14.2298 21.7475 14.7661 21.9988 15.2362C22.3567 15.906 22.9353 16.4407 23.6369 16.7428C24.0427 16.9174 24.4895 17.0146 24.9586 17.0146C26.8081 17.0146 28.3127 15.51 28.3127 13.6606C28.3127 11.8111 26.8081 10.3065 24.9586 10.3065Z" fill="white"/>
</g>
</g>
<defs>
<clipPath id="clip0_13_3339">
<rect width="30" height="30" fill="white"/>
</clipPath>
<clipPath id="clip1_13_3339">
<rect width="25.8333" height="25.8333" fill="white" transform="translate(4.16669 4.16663)"/>
</clipPath>
</defs>
</svg>
