<svg width="38" height="38" viewBox="0 0 38 38" fill="none" xmlns="http://www.w3.org/2000/svg">
<path d="M34.7124 25.583H32.8456V24.3751C32.8456 22.4755 31.3546 20.929 29.5217 20.929H23.4346V18.417H25.6624C26.9249 18.417 27.9625 17.3546 27.9625 16.0454V9.3716C27.9625 8.06241 26.9249 7 25.6624 7H18.6998C17.4373 7 16.4124 8.06241 16.4124 9.3716V16.0454C16.4124 17.3546 17.4373 18.417 18.6998 18.417H20.9346V20.929H14.847C13.0147 20.929 11.5236 22.4755 11.5236 24.3751V25.583H9.28745C8.02493 25.583 7 26.6461 7 27.9546V34.6284C7 35.9376 8.02493 37 9.28745 37H16.2499C17.5124 37 18.55 35.9376 18.55 34.6284V27.9546C18.55 26.6461 17.5124 25.583 16.2499 25.583H14.0236V24.3751C14.0236 23.9043 14.3929 23.5208 14.847 23.5208H22.1846H29.5217C29.9758 23.5208 30.3456 23.9043 30.3456 24.3751V25.583H27.7498C26.4873 25.583 25.4625 26.6461 25.4625 27.9546V34.6284C25.4625 35.9376 26.4873 37 27.7498 37H34.7124C35.9749 37 37 35.9376 37 34.6284V27.9546C37 26.6461 35.9749 25.583 34.7124 25.583Z" fill="white"/>
</svg>
