<svg width="25" height="25" viewBox="0 0 25 25" fill="none" xmlns="http://www.w3.org/2000/svg">
<g clip-path="url(#clip0_13_2912)">
<path d="M6.04671 11.7522C3.86223 11.7522 2.08496 13.5298 2.08496 15.7147C2.08496 17.8994 3.86223 19.677 6.04671 19.677C8.2312 19.677 10.0085 17.8994 10.0085 15.7147C10.0085 13.5298 8.2312 11.7522 6.04671 11.7522Z" fill="#076871"/>
<path d="M12.092 23.9173C11.9897 22.129 11.1148 20.5574 9.80275 19.5188C8.82924 20.4912 7.4859 21.0933 6.00465 21.0933C4.54248 21.0933 3.21496 20.5062 2.2445 19.556C0.958188 20.5945 0.102551 22.15 0.00165239 23.9173C-0.0143694 24.1964 0.0867202 24.4733 0.27879 24.677C0.472386 24.8823 0.744946 24.9999 1.02704 24.9999H11.0666C11.3485 24.9999 11.6212 24.8823 11.8146 24.677C12.0069 24.4733 12.1078 24.1964 12.092 23.9173Z" fill="#076871"/>
<path d="M18.0471 0C14.2133 0 11.0942 3.13931 11.0942 6.99806C11.0942 8.03814 11.3269 9.07116 11.7679 10.0046C11.5539 10.685 11.0555 11.2463 10.3971 11.532C10.0259 11.693 9.85579 12.1244 10.0168 12.4954C10.0475 12.5662 10.0879 12.6293 10.136 12.6846C10.7568 13.3984 11.6533 13.8077 12.5957 13.8077C13.3424 13.8077 14.056 13.5517 14.6293 13.0924C15.6688 13.6847 16.8384 13.9961 18.0471 13.9961C21.8809 13.9961 24.9999 10.8568 24.9999 6.99806C24.9999 3.13931 21.8809 0 18.0471 0ZM18.7921 9.3689C18.7921 9.77325 18.4642 10.1013 18.0597 10.1013C17.6551 10.1013 17.3273 9.77325 17.3273 9.3689V8.96263C17.3273 8.55827 17.6551 8.23021 18.0597 8.23021C18.4642 8.23021 18.7921 8.55827 18.7921 8.96263V9.3689ZM18.7921 6.80294C18.7921 7.20749 18.4642 7.53536 18.0597 7.53536C17.6551 7.53536 17.3273 7.20749 17.3273 6.80294V4.62742C17.3273 4.22287 17.6551 3.895 18.0597 3.895C18.4642 3.895 18.7921 4.22287 18.7921 4.62742V6.80294Z" fill="#076871"/>
</g>
<defs>
<clipPath id="clip0_13_2912">
<rect width="25" height="25" fill="white"/>
</clipPath>
</defs>
</svg>
