<svg width="30" height="30" viewBox="0 0 30 30" fill="none" xmlns="http://www.w3.org/2000/svg">
<g clip-path="url(#clip0_13_3404)">
<path d="M7.25624 14.1025C4.63486 14.1025 2.50214 16.2357 2.50214 18.8576C2.50214 21.4792 4.63486 23.6124 7.25624 23.6124C9.87762 23.6124 12.0103 21.4792 12.0103 18.8576C12.0103 16.2357 9.87762 14.1025 7.25624 14.1025Z" fill="white"/>
<path d="M14.5104 28.7009C14.3877 26.5549 13.3378 24.6689 11.7634 23.4226C10.5952 24.5894 8.98314 25.312 7.20564 25.312C5.45103 25.312 3.85802 24.6075 2.69347 23.4672C1.14989 24.7135 0.123122 26.58 0.0020439 28.7009C-0.0171822 29.0357 0.104125 29.368 0.334609 29.6125C0.566924 29.8588 0.893996 30 1.23251 30H13.2799C13.6182 30 13.9455 29.8588 14.1776 29.6125C14.4083 29.368 14.5294 29.0357 14.5104 28.7009Z" fill="white"/>
<path d="M21.6566 0C17.056 0 13.3131 3.76717 13.3131 8.39767C13.3131 9.64577 13.5924 10.8854 14.1215 12.0055C13.8647 12.822 13.2667 13.4956 12.4766 13.8384C12.0312 14.0316 11.827 14.5493 12.0202 14.9945C12.057 15.0794 12.1056 15.1552 12.1632 15.2216C12.9082 16.078 13.984 16.5692 15.1149 16.5692C16.011 16.5692 16.8672 16.2621 17.5552 15.7109C18.8026 16.4216 20.2061 16.7953 21.6566 16.7953C26.2571 16.7953 30 13.0282 30 8.39767C30 3.76717 26.2571 0 21.6566 0ZM22.5506 11.2427C22.5506 11.7279 22.1571 12.1216 21.6717 12.1216C21.1862 12.1216 20.7928 11.7279 20.7928 11.2427V10.7552C20.7928 10.2699 21.1862 9.87625 21.6717 9.87625C22.1571 9.87625 22.5506 10.2699 22.5506 10.7552V11.2427ZM22.5506 8.16353C22.5506 8.64899 22.1571 9.04243 21.6717 9.04243C21.1862 9.04243 20.7928 8.64899 20.7928 8.16353V5.5529C20.7928 5.06744 21.1862 4.674 21.6717 4.674C22.1571 4.674 22.5506 5.06744 22.5506 5.5529V8.16353Z" fill="white"/>
</g>
<defs>
<clipPath id="clip0_13_3404">
<rect width="30" height="30" fill="white"/>
</clipPath>
</defs>
</svg>
