<svg width="25" height="25" viewBox="0 0 25 25" fill="none" xmlns="http://www.w3.org/2000/svg">
<path fill-rule="evenodd" clip-rule="evenodd" d="M5.16582 12.629C5.16582 14.777 6.06169 16.7733 7.64349 18.1809C6.93352 18.5921 6.30422 19.1491 5.81275 19.8146C5.20321 20.6425 4.82072 21.5929 4.68984 22.5994L2.59253 20.4811C2.4547 20.3402 2.44829 20.1146 2.58184 19.9673L3.81213 18.6035C4.10915 18.2743 4.1615 17.8107 3.94782 17.421C3.58723 16.7653 3.30089 16.068 3.09789 15.3491C2.97769 14.9216 2.61496 14.6318 2.1737 14.6108L0.351511 14.5255C0.154921 14.5163 0 14.3528 0 14.1536V11.1043C0 10.9052 0.154921 10.7422 0.351511 10.7325L2.1737 10.6472C2.61496 10.6267 2.97555 10.3369 3.09789 9.9089C3.30089 9.18948 3.58723 8.49219 3.94782 7.83699C4.16204 7.44787 4.10968 6.98372 3.81213 6.65451L2.58184 5.29068C2.44882 5.14334 2.45523 4.91829 2.59253 4.77743L4.72723 2.62078C4.8672 2.47992 5.08996 2.47453 5.23633 2.60891L6.58682 3.85184C6.91215 4.15138 7.37104 4.20588 7.75567 3.98947C8.40474 3.62517 9.09494 3.33589 9.80704 3.12972C10.2307 3.00775 10.517 2.64129 10.5389 2.19712L10.6217 0.355123C10.6324 0.155973 10.7921 0 10.9909 0H14.0081C14.2047 0 14.3665 0.155973 14.3751 0.354583L14.4606 2.19658C14.4803 2.64129 14.7688 3.00721 15.1924 3.12972C15.9045 3.33535 16.5931 3.62463 17.2417 3.98893C17.6284 4.20535 18.0873 4.15138 18.4126 3.8513L19.7631 2.60891C19.9095 2.47507 20.1323 2.47992 20.2722 2.62078L22.4048 4.77743C22.5448 4.91829 22.5512 5.14334 22.4182 5.29068L21.1879 6.65451C20.8909 6.98372 20.8364 7.44787 21.05 7.83699C21.4128 8.49327 21.6991 9.19002 21.9021 9.9089C22.0223 10.3369 22.385 10.6267 22.8242 10.6472L24.6485 10.7325C24.8451 10.7422 25 10.9052 25 11.1043V14.1536C25 14.3528 24.8451 14.5163 24.6485 14.5255L22.8242 14.6108C22.385 14.6313 22.0223 14.9211 21.9021 15.3491C21.6991 16.0685 21.4128 16.7658 21.05 17.4215C20.8358 17.8107 20.8903 18.2748 21.1879 18.604L22.4182 19.9673C22.5512 20.1146 22.5448 20.3402 22.4048 20.4811L20.2722 22.6372C20.2482 22.6615 20.2199 22.6814 20.1916 22.6976C20.0735 21.6549 19.6867 20.6694 19.0553 19.8146C18.5809 19.1739 17.9826 18.6332 17.3031 18.2268C18.9175 16.8171 19.8331 14.804 19.8331 12.629C19.8331 8.54346 16.5424 5.21998 12.4984 5.21998C8.45389 5.21998 5.16582 8.54346 5.16582 12.629ZM12.4348 16.1889C14.2223 16.1889 15.0044 14.9513 15.3099 14.2135C15.9216 12.738 15.725 10.8226 14.8687 9.94398C14.2308 9.28878 13.4813 8.99627 12.437 8.99627C11.3883 8.99627 10.6367 9.28878 9.99882 9.94398C9.14462 10.8226 8.94589 12.738 9.55757 14.213C9.86313 14.9508 10.6458 16.1889 12.4348 16.1889ZM13.3024 22.3236L12.6886 20.1136C12.5817 19.7255 12.649 19.3321 12.8809 19.0045L13.5647 18.0395H11.3034L11.9893 19.0072C12.2185 19.3321 12.2863 19.7239 12.1837 20.1092L11.5763 22.3431L12.4327 23.9514L13.3024 22.3236ZM16.1342 18.3741L12.7169 24.7879C12.6603 24.8926 12.5529 24.9579 12.4327 24.9579C12.3168 24.9579 12.2078 24.8926 12.1506 24.7879L8.73328 18.3741C6.6552 19.1529 5.27693 21.1368 5.27693 23.3917V25H7.71507V23.2185C7.71507 23.0393 7.85931 22.8946 8.03613 22.8946C8.21296 22.8946 8.35719 23.0393 8.35719 23.2185V25H16.5093V23.2185C16.5093 23.0393 16.6535 22.8946 16.8303 22.8946C17.0071 22.8946 17.1514 23.0393 17.1514 23.2185V25H19.5895V23.3917C19.5906 21.1368 18.2118 19.1529 16.1342 18.3741Z" fill="#076871"/>
</svg>
