<svg width="30" height="30" viewBox="0 0 30 30" fill="none" xmlns="http://www.w3.org/2000/svg">
<path fill-rule="evenodd" clip-rule="evenodd" d="M6.19898 15.1548C6.19898 17.7324 7.27403 20.128 9.17219 21.8171C8.32023 22.3106 7.56507 22.9789 6.9753 23.7775C6.24386 24.771 5.78486 25.9114 5.6278 27.1193L3.11103 24.5773C2.94564 24.4083 2.93795 24.1376 3.09821 23.9608L4.57455 22.3242C4.93098 21.9291 4.9938 21.3728 4.73738 20.9052C4.30467 20.1183 3.96107 19.2816 3.71747 18.4189C3.57323 17.906 3.13795 17.5582 2.60844 17.5329L0.421813 17.4306C0.185905 17.4196 0 17.2234 0 16.9844V13.3252C0 13.0862 0.185905 12.8906 0.421813 12.879L2.60844 12.7767C3.13795 12.752 3.57067 12.4043 3.71747 11.8907C3.96107 11.0274 4.30467 10.1906 4.73738 9.40439C4.99444 8.93744 4.93162 8.38047 4.57455 7.98541L3.09821 6.34882C2.93859 6.17201 2.94628 5.90195 3.11103 5.73291L5.67268 3.14494C5.84063 2.97591 6.10795 2.96943 6.2836 3.13069L7.90418 4.62221C8.29459 4.98165 8.84525 5.04706 9.30681 4.78736C10.0857 4.3502 10.9139 4.00307 11.7685 3.75567C12.2768 3.6093 12.6204 3.16955 12.6467 2.63654L12.7461 0.426147C12.7589 0.187168 12.9506 0 13.189 0H16.8097C17.0456 0 17.2398 0.187168 17.2501 0.4255L17.3527 2.6359C17.3764 3.16955 17.7226 3.60865 18.2309 3.75567C19.0854 4.00242 19.9117 4.34955 20.69 4.78671C21.1541 5.04641 21.7048 4.98165 22.0952 4.62156L23.7158 3.13069C23.8914 2.97008 24.1587 2.97591 24.3267 3.14494L26.8858 5.73291C27.0537 5.90195 27.0614 6.17201 26.9018 6.34882L25.4254 7.98541C25.069 8.38047 25.0036 8.93744 25.2601 9.40439C25.6953 10.1919 26.0389 11.028 26.2825 11.8907C26.4268 12.4043 26.862 12.752 27.389 12.7767L29.5782 12.879C29.8141 12.8906 30 13.0862 30 13.3252V16.9844C30 17.2234 29.8141 17.4196 29.5782 17.4306L27.389 17.5329C26.862 17.5575 26.4268 17.9053 26.2825 18.4189C26.0389 19.2822 25.6953 20.1189 25.2601 20.9058C25.003 21.3728 25.0684 21.9298 25.4254 22.3248L26.9018 23.9608C27.0614 24.1376 27.0537 24.4083 26.8858 24.5773L24.3267 27.1646C24.2978 27.1938 24.2639 27.2177 24.2299 27.2372C24.0882 25.9859 23.6241 24.8033 22.8664 23.7775C22.2971 23.0087 21.5791 22.3598 20.7637 21.8721C22.701 20.1805 23.7997 17.7648 23.7997 15.1548C23.7997 10.2521 19.8508 6.26398 14.9981 6.26398C10.1447 6.26398 6.19898 10.2521 6.19898 15.1548ZM14.9218 19.4266C17.0668 19.4266 18.0053 17.9416 18.3719 17.0563C19.1059 15.2856 18.87 12.9871 17.8424 11.9328C17.077 11.1465 16.1776 10.7955 14.9244 10.7955C13.666 10.7955 12.764 11.1465 11.9986 11.9328C10.9735 12.9871 10.7351 15.2856 11.4691 17.0556C11.8358 17.9409 12.7749 19.4266 14.9218 19.4266ZM15.9629 26.7884L15.2263 24.1363C15.0981 23.6706 15.1789 23.1985 15.4571 22.8054L16.2776 21.6474H13.564L14.3872 22.8086C14.6622 23.1985 14.7436 23.6687 14.6205 24.1311L13.8916 26.8117L14.9192 28.7416L15.9629 26.7884ZM19.3611 22.0489L15.2603 29.7455C15.1923 29.8711 15.0635 29.9495 14.9192 29.9495C14.7801 29.9495 14.6493 29.8711 14.5808 29.7455L10.4799 22.0489C7.98624 22.9835 6.33232 25.3642 6.33232 28.07V30H9.25809V27.8621C9.25809 27.6471 9.43117 27.4736 9.64336 27.4736C9.85555 27.4736 10.0286 27.6471 10.0286 27.8621V30H19.8111V27.8621C19.8111 27.6471 19.9842 27.4736 20.1964 27.4736C20.4086 27.4736 20.5816 27.6471 20.5816 27.8621V30H23.5074V28.07C23.5087 25.3642 21.8541 22.9835 19.3611 22.0489Z" fill="white"/>
</svg>
